<svg width="49" height="49" viewBox="0 0 49 49" fill="none" xmlns="http://www.w3.org/2000/svg">
<g clip-path="url(#clip0_305_41)">
<path d="M24.3399 0.385254C19.5931 0.385254 14.9529 1.79283 11.0062 4.42998C7.05939 7.06714 3.98325 10.8154 2.16675 15.2009C0.350243 19.5863 -0.125037 24.4119 0.801008 29.0674C1.72705 33.723 4.01283 37.9994 7.36929 41.3558C10.7258 44.7123 15.0021 46.9981 19.6577 47.9241C24.3132 48.8502 29.1388 48.3749 33.5243 46.5584C37.9097 44.7419 41.658 41.6657 44.2951 37.7189C46.9323 33.7722 48.3399 29.132 48.3399 24.3853C48.333 18.0222 45.8022 11.9217 41.3028 7.42229C36.8034 2.92291 30.7029 0.392136 24.3399 0.385254V0.385254ZM32.3399 26.3853H26.3399V32.3853C26.3399 32.9157 26.1291 33.4244 25.7541 33.7995C25.379 34.1745 24.8703 34.3853 24.3399 34.3853C23.8094 34.3853 23.3007 34.1745 22.9256 33.7995C22.5506 33.4244 22.3399 32.9157 22.3399 32.3853V26.3853H16.3399C15.8094 26.3853 15.3007 26.1745 14.9256 25.7995C14.5506 25.4244 14.3399 24.9157 14.3399 24.3853C14.3399 23.8548 14.5506 23.3461 14.9256 22.971C15.3007 22.596 15.8094 22.3853 16.3399 22.3853H22.3399V16.3853C22.3399 15.8548 22.5506 15.3461 22.9256 14.971C23.3007 14.596 23.8094 14.3853 24.3399 14.3853C24.8703 14.3853 25.379 14.596 25.7541 14.971C26.1291 15.3461 26.3399 15.8548 26.3399 16.3853V22.3853H32.3399C32.8703 22.3853 33.379 22.596 33.7541 22.971C34.1291 23.3461 34.3399 23.8548 34.3399 24.3853C34.3399 24.9157 34.1291 25.4244 33.7541 25.7995C33.379 26.1745 32.8703 26.3853 32.3399 26.3853Z" fill="#15121D"/>
</g>
<defs>
<clipPath id="clip0_305_41">
<rect width="48" height="48" fill="white" transform="translate(0.339844 0.385254)"/>
</clipPath>
</defs>
</svg>
