<svg width="49" height="48" viewBox="0 0 49 48" fill="none" xmlns="http://www.w3.org/2000/svg">
<path d="M24.6016 16V22M24.6016 22V28M24.6016 22H30.6016M24.6016 22H18.6016" stroke="#15121D" stroke-width="2" stroke-linecap="round"/>
<path d="M28.6016 38C36.1436 38 39.9156 38 42.2576 35.656C44.6016 33.314 44.6016 29.542 44.6016 22C44.6016 14.458 44.6016 10.686 42.2576 8.344C39.9156 6 36.1436 6 28.6016 6H20.6016C13.0596 6 9.28756 6 6.94556 8.344C4.60156 10.686 4.60156 14.458 4.60156 22C4.60156 29.542 4.60156 33.314 6.94556 35.656C8.25156 36.964 10.0016 37.542 12.6016 37.796" stroke="#15121D" stroke-width="2" stroke-linecap="round" stroke-linejoin="round"/>
<path d="M28.602 38C26.13 38 23.406 39 20.92 40.29C16.924 42.364 14.926 43.402 13.942 42.74C12.958 42.08 13.144 40.03 13.518 35.932L13.602 35" stroke="#15121D" stroke-width="2" stroke-linecap="round"/>
</svg>
