<svg width="56" height="57" viewBox="0 0 56 57" fill="none" xmlns="http://www.w3.org/2000/svg">
<path d="M25.2936 9.94124C25.2936 11.2299 26.3196 12.2746 27.5853 12.2746C28.8509 12.2746 29.877 11.2299 29.877 9.94124C29.877 8.65258 28.8509 7.60791 27.5853 7.60791C26.3196 7.60791 25.2936 8.65258 25.2936 9.94124Z" fill="#15121D" stroke="#15121D" stroke-width="2"/>
<path d="M25.2936 28.6077C25.2936 29.8964 26.3196 30.9411 27.5853 30.9411C28.8509 30.9411 29.877 29.8964 29.877 28.6077C29.877 27.3191 28.8509 26.2744 27.5853 26.2744C26.3196 26.2744 25.2936 27.3191 25.2936 28.6077Z" fill="#15121D" stroke="#15121D" stroke-width="2"/>
<path d="M25.2936 47.2747C25.2936 48.5634 26.3196 49.6081 27.5853 49.6081C28.8509 49.6081 29.877 48.5634 29.877 47.2747C29.877 45.9861 28.8509 44.9414 27.5853 44.9414C26.3196 44.9414 25.2936 45.9861 25.2936 47.2747Z" fill="#15121D" stroke="#15121D" stroke-width="2"/>
</svg>
