<svg width="49" height="49" viewBox="0 0 49 49" fill="none" xmlns="http://www.w3.org/2000/svg">
<g clip-path="url(#clip0_305_115)">
<path d="M45.7906 12.5434C44.9952 12.5441 44.2327 12.8606 43.6706 13.4234L28.3266 28.7674C27.8623 29.2318 27.3111 29.6002 26.7044 29.8516C26.0976 30.1029 25.4474 30.2323 24.7906 30.2323C24.1339 30.2323 23.4836 30.1029 22.8769 29.8516C22.2702 29.6002 21.7189 29.2318 21.2546 28.7674L5.93063 13.4434C5.36483 12.8969 4.60702 12.5945 3.82043 12.6013C3.03384 12.6082 2.2814 12.9237 1.72518 13.4799C1.16895 14.0361 0.853446 14.7886 0.84661 15.5752C0.839774 16.3617 1.14216 17.1196 1.68863 17.6854L17.0006 33.0094C19.0652 35.0698 21.8628 36.2271 24.7796 36.2271C27.6964 36.2271 30.4941 35.0698 32.5586 33.0094L47.9126 17.6654C48.3325 17.2458 48.6184 16.7111 48.7343 16.129C48.8501 15.5469 48.7907 14.9435 48.5636 14.3951C48.3364 13.8468 47.9516 13.3781 47.4581 13.0485C46.9645 12.7189 46.3842 12.5431 45.7906 12.5434Z" fill="#15121D"/>
</g>
<defs>
<clipPath id="clip0_305_115">
<rect width="48" height="48" fill="white" transform="matrix(-4.37114e-08 -1 -1 4.37114e-08 48.8008 48.3853)"/>
</clipPath>
</defs>
</svg>
