<svg width="49" height="49" viewBox="0 0 49 49" fill="none" xmlns="http://www.w3.org/2000/svg">
<g clip-path="url(#clip0_305_117)">
<path d="M45.7906 36.2271C44.9952 36.2264 44.2327 35.9099 43.6706 35.3471L28.3266 20.0031C27.8623 19.5387 27.3111 19.1703 26.7044 18.9189C26.0976 18.6676 25.4474 18.5382 24.7906 18.5382C24.1339 18.5382 23.4836 18.6676 22.8769 18.9189C22.2702 19.1703 21.7189 19.5387 21.2546 20.0031L5.93063 35.3271C5.36483 35.8736 4.60702 36.176 3.82043 36.1692C3.03384 36.1623 2.2814 35.8468 1.72518 35.2906C1.16895 34.7344 0.853446 33.9819 0.84661 33.1953C0.839774 32.4088 1.14216 31.651 1.68863 31.0851L17.0006 15.7611C19.0652 13.7007 21.8628 12.5435 24.7796 12.5435C27.6964 12.5435 30.4941 13.7007 32.5586 15.7611L47.9126 31.1051C48.3325 31.5247 48.6184 32.0594 48.7343 32.6415C48.8501 33.2236 48.7907 33.827 48.5636 34.3754C48.3364 34.9237 47.9516 35.3924 47.4581 35.722C46.9645 36.0516 46.3842 36.2274 45.7906 36.2271Z" fill="#15121D"/>
</g>
<defs>
<clipPath id="clip0_305_117">
<rect width="48" height="48" fill="white" transform="translate(48.8008 0.385254) rotate(90)"/>
</clipPath>
</defs>
</svg>
