<svg width="34" height="40" viewBox="0 0 34 40" fill="none" xmlns="http://www.w3.org/2000/svg">
<g filter="url(#filter0_d_1253_17242)">
<path d="M28.6725 18.4817C27.9782 16.9189 26.9688 15.5162 25.7075 14.3614L24.6667 13.4065C24.6314 13.3749 24.5888 13.3526 24.5428 13.3413C24.4968 13.33 24.4487 13.3302 24.4028 13.3419C24.3569 13.3536 24.3146 13.3763 24.2795 13.4081C24.2445 13.44 24.2177 13.4799 24.2017 13.5245L23.7368 14.8586C23.4471 15.6955 22.9141 16.5503 22.1595 17.3908C22.1094 17.4445 22.0522 17.4588 22.0128 17.4624C21.9735 17.4659 21.9127 17.4588 21.859 17.4087C21.809 17.3658 21.7839 17.3014 21.7875 17.237C21.9198 15.0839 21.2761 12.6554 19.8669 10.0123C18.7009 7.81621 17.0807 6.10301 15.0563 4.90842L13.5792 4.0393C13.386 3.92485 13.1392 4.07507 13.15 4.30039L13.2287 6.01717C13.2823 7.1903 13.1464 8.22753 12.8245 9.08949C12.4311 10.1446 11.866 11.1246 11.1435 12.0044C10.6407 12.6159 10.0708 13.169 9.44459 13.6533C7.93635 14.8127 6.70995 16.2983 5.85724 17.9989C5.00662 19.7143 4.56354 21.6029 4.5625 23.5176C4.5625 25.2058 4.89513 26.8403 5.55322 28.3818C6.18867 29.866 7.10569 31.213 8.25357 32.3483C9.4124 33.4928 10.7572 34.3941 12.2558 35.02C13.8081 35.6709 15.4533 36 17.1522 36C18.8511 36 20.4964 35.6709 22.0486 35.0236C23.5435 34.4013 24.9029 33.4939 26.0508 32.3518C27.2097 31.2073 28.1181 29.8697 28.7512 28.3854C29.4083 26.8481 29.7454 25.193 29.7419 23.5212C29.7419 21.7758 29.3843 20.0805 28.6725 18.4817ZM24.3412 30.6172C22.4206 32.5199 19.8704 33.5643 17.1522 33.5643C14.434 33.5643 11.8838 32.5199 9.9632 30.6172C8.04971 28.718 6.9946 26.2001 6.9946 23.5212C6.9946 21.9653 7.34511 20.4739 8.0354 19.0862C8.70781 17.7306 9.70926 16.5181 10.9253 15.5846C11.7009 14.9916 12.4043 14.3098 13.0212 13.5531C13.9154 12.4622 14.6164 11.2462 15.1028 9.94073C15.3023 9.40222 15.4473 8.84506 15.5356 8.2776C16.3975 9.07161 17.12 10.0301 17.7245 11.1532C18.9191 13.3922 19.4699 15.3843 19.3626 17.0797C19.3369 17.4789 19.4021 17.8788 19.5533 18.2493C19.7044 18.6197 19.9376 18.9511 20.2353 19.2185C20.4932 19.4515 20.7949 19.6309 21.1227 19.7463C21.4506 19.8618 21.7982 19.9109 22.1452 19.8909C22.8498 19.8551 23.4971 19.544 23.9693 19.0182C24.4449 18.4853 24.8563 17.9416 25.1996 17.3873C25.7003 18.0275 26.1188 18.7249 26.4514 19.476C27.0201 20.7564 27.3098 22.1191 27.3098 23.5212C27.3098 26.2001 26.2547 28.7216 24.3412 30.6172Z" fill="#15121D"/>
</g>
<defs>
<filter id="filter0_d_1253_17242" x="0.5625" y="0" width="33.1797" height="40" filterUnits="userSpaceOnUse" color-interpolation-filters="sRGB">
<feFlood flood-opacity="0" result="BackgroundImageFix"/>
<feColorMatrix in="SourceAlpha" type="matrix" values="0 0 0 0 0 0 0 0 0 0 0 0 0 0 0 0 0 0 127 0" result="hardAlpha"/>
<feOffset/>
<feGaussianBlur stdDeviation="2"/>
<feComposite in2="hardAlpha" operator="out"/>
<feColorMatrix type="matrix" values="0 0 0 0 1 0 0 0 0 1 0 0 0 0 1 0 0 0 0.24 0"/>
<feBlend mode="normal" in2="BackgroundImageFix" result="effect1_dropShadow_1253_17242"/>
<feBlend mode="normal" in="SourceGraphic" in2="effect1_dropShadow_1253_17242" result="shape"/>
</filter>
</defs>
</svg>
