<svg width="40" height="40" viewBox="0 0 40 40" fill="none" xmlns="http://www.w3.org/2000/svg">
<path d="M19.9213 3.3335C10.7747 3.3335 3.33301 10.8102 3.33301 20.0002C3.33301 29.1902 10.8097 36.6668 19.9997 36.6668C29.1897 36.6668 36.6663 29.1902 36.6663 20.0002C36.6663 10.8102 29.1547 3.3335 19.9213 3.3335ZM19.9997 33.3335C12.648 33.3335 6.66634 27.3518 6.66634 20.0002C6.66634 12.6485 12.6113 6.66683 19.9213 6.66683C27.318 6.66683 33.333 12.6485 33.333 20.0002C33.333 27.3518 27.3513 33.3335 19.9997 33.3335Z" fill="#FFA826"/>
<path d="M18.333 11.6665H21.6663V23.3332H18.333V11.6665ZM18.333 24.9998H21.6663V28.3332H18.333V24.9998Z" fill="#FFA826"/>
</svg>
