<svg width="49" height="49" viewBox="0 0 49 49" fill="currenColor" xmlns="http://www.w3.org/2000/svg">
<path d="M24.3066 15.1392C21.8539 15.1392 19.5016 16.1135 17.7673 17.8478C16.0329 19.5822 15.0586 21.9344 15.0586 24.3872C15.0586 26.8399 16.0329 29.1921 17.7673 30.9265C19.5016 32.6608 21.8539 33.6352 24.3066 33.6352C26.7593 33.6352 29.1116 32.6608 30.8459 30.9265C32.5803 29.1921 33.5546 26.8399 33.5546 24.3872C33.5546 21.9344 32.5803 19.5822 30.8459 17.8478C29.1116 16.1135 26.7593 15.1392 24.3066 15.1392ZM24.3066 30.3932C22.7132 30.3932 21.185 29.7602 20.0583 28.6335C18.9316 27.5067 18.2986 25.9786 18.2986 24.3852C18.2986 22.7917 18.9316 21.2636 20.0583 20.1369C21.185 19.0101 22.7132 18.3772 24.3066 18.3772C25.9 18.3772 27.4282 19.0101 28.5549 20.1369C29.6816 21.2636 30.3146 22.7917 30.3146 24.3852C30.3146 25.9786 29.6816 27.5067 28.5549 28.6335C27.4282 29.7602 25.9 30.3932 24.3066 30.3932Z" fill="currentColor"/>
<path d="M33.9206 16.9551C35.1114 16.9551 36.0767 15.9898 36.0767 14.7991C36.0767 13.6083 35.1114 12.6431 33.9206 12.6431C32.7299 12.6431 31.7646 13.6083 31.7646 14.7991C31.7646 15.9898 32.7299 16.9551 33.9206 16.9551Z" fill="#15121D"/>
<path d="M41.3745 12.607C40.9115 11.4114 40.204 10.3256 39.2972 9.41914C38.3904 8.51269 37.3043 7.80556 36.1085 7.34302C34.7092 6.81773 33.2309 6.5337 31.7365 6.50302C29.8105 6.41902 29.2005 6.39502 24.3165 6.39502C19.4325 6.39502 18.8065 6.39502 16.8965 6.50302C15.4033 6.53213 13.926 6.81622 12.5285 7.34302C11.3324 7.80502 10.246 8.51196 9.33917 9.41848C8.43231 10.325 7.72496 11.4111 7.2625 12.607C6.73711 14.0062 6.45373 15.4847 6.4245 16.979C6.3385 18.903 6.3125 19.513 6.3125 24.399C6.3125 29.283 6.3125 29.905 6.4245 31.819C6.4545 33.315 6.7365 34.791 7.2625 36.193C7.72626 37.3885 8.43429 38.4742 9.34137 39.3806C10.2485 40.287 11.3346 40.9942 12.5305 41.457C13.9254 42.0034 15.4032 42.3078 16.9005 42.357C18.8265 42.441 19.4365 42.467 24.3205 42.467C29.2045 42.467 29.8305 42.467 31.7405 42.357C33.2347 42.3266 34.713 42.0433 36.1125 41.519C37.308 41.0554 38.3937 40.3477 39.3004 39.441C40.2071 38.5343 40.9149 37.4485 41.3785 36.253C41.9045 34.853 42.1865 33.377 42.2165 31.881C42.3025 29.957 42.3285 29.347 42.3285 24.461C42.3285 19.575 42.3285 18.955 42.2165 17.041C42.1932 15.5256 41.9084 14.0255 41.3745 12.607ZM38.9385 31.671C38.9256 32.8236 38.7152 33.9655 38.3165 35.047C38.0162 35.8248 37.5563 36.531 36.9666 37.1204C36.3769 37.7097 35.6704 38.1691 34.8925 38.469C33.823 38.8659 32.6932 39.0763 31.5525 39.091C29.6525 39.179 29.1165 39.201 24.2445 39.201C19.3685 39.201 18.8705 39.201 16.9345 39.091C15.7944 39.0771 14.6652 38.8666 13.5965 38.469C12.8159 38.171 12.1065 37.7124 11.5143 37.1229C10.9221 36.5335 10.4602 35.8262 10.1585 35.047C9.76539 33.9771 9.55512 32.8487 9.5365 31.709C9.4505 29.809 9.4305 29.273 9.4305 24.401C9.4305 19.527 9.4305 19.029 9.5365 17.091C9.54943 15.9391 9.75981 14.7979 10.1585 13.717C10.7685 12.139 12.0185 10.897 13.5965 10.293C14.6657 9.8973 15.7945 9.68695 16.9345 9.67102C18.8365 9.58502 19.3705 9.56102 24.2445 9.56102C29.1185 9.56102 29.6185 9.56102 31.5525 9.67102C32.6933 9.68474 33.8232 9.89516 34.8925 10.293C35.6704 10.5936 36.3768 11.0534 36.9664 11.6431C37.5561 12.2327 38.016 12.9392 38.3165 13.717C38.7096 14.7869 38.9199 15.9153 38.9385 17.055C39.0245 18.957 39.0465 19.491 39.0465 24.365C39.0465 29.237 39.0465 29.761 38.9605 31.673H38.9385V31.671Z" fill="#15121D"/>
</svg>
