<svg width="49" height="49" viewBox="0 0 49 49" fill="none" xmlns="http://www.w3.org/2000/svg">
<path d="M10.7666 14.7793C13.1834 14.7793 15.1426 12.8201 15.1426 10.4033C15.1426 7.98655 13.1834 6.02734 10.7666 6.02734C8.34983 6.02734 6.39062 7.98655 6.39062 10.4033C6.39062 12.8201 8.34983 14.7793 10.7666 14.7793Z" fill="#15121D"/>
<path d="M19.2752 18.0951V42.3731H26.8132V30.3671C26.8132 27.1991 27.4092 24.1311 31.3372 24.1311C35.2112 24.1311 35.2592 27.7531 35.2592 30.5671V42.3751H42.8012V29.0611C42.8012 22.5211 41.3932 17.4951 33.7492 17.4951C30.0792 17.4951 27.6192 19.5091 26.6132 21.4151H26.5112V18.0951H19.2752ZM6.99121 18.0951H14.5412V42.3731H6.99121V18.0951Z" fill="#15121D"/>
</svg>
