<svg width="58" height="57" viewBox="0 0 58 57" fill="none" xmlns="http://www.w3.org/2000/svg">
<path d="M19.8822 48.4868H12.0223C11.1178 48.4868 10.3848 47.7536 10.3848 46.8493V33.5037C10.3848 32.5993 11.1179 31.8662 12.0223 31.8662H19.8823C20.7867 31.8662 21.5198 32.5993 21.5198 33.5037V46.8493C21.5198 47.7536 20.7866 48.4868 19.8822 48.4868Z" fill="#FFA826"/>
<path d="M15.9525 44.3931C15.7372 44.3931 15.526 44.4806 15.3737 44.6329C15.2214 44.7854 15.1338 44.9965 15.1338 45.2118C15.1338 45.4272 15.2213 45.6384 15.3737 45.7907C15.526 45.9429 15.7372 46.0307 15.9525 46.0307C16.1679 46.0307 16.3792 45.943 16.5313 45.7907C16.6836 45.6384 16.7714 45.4272 16.7714 45.2118C16.7714 44.9965 16.6837 44.7853 16.5313 44.6329C16.3791 44.4805 16.1678 44.3931 15.9525 44.3931Z" fill="#424750"/>
<path d="M47.4302 23.1733C47.2148 23.1733 47.0035 23.2609 46.8513 23.4132C46.6991 23.5655 46.6113 23.7768 46.6113 23.9921C46.6113 24.2075 46.699 24.4187 46.8513 24.5708C47.0035 24.7232 47.2148 24.8108 47.4302 24.8108C47.6463 24.8108 47.8567 24.7233 48.009 24.5708C48.162 24.4187 48.2496 24.2075 48.2496 23.9921C48.2496 23.7768 48.162 23.5655 48.009 23.4132C47.8567 23.2609 47.6463 23.1733 47.4302 23.1733Z" fill="#424750"/>
<path fill-rule="evenodd" clip-rule="evenodd" d="M50.6675 16.8354C50.8846 16.8354 51.093 16.9217 51.2465 17.0752C51.4001 17.2288 51.4862 17.437 51.4864 17.6542V48.4868C51.4864 48.9388 51.1197 49.3055 50.6676 49.3055H25.9517C24.9544 49.3055 23.9915 48.9446 23.24 48.2892L22.2665 47.4403C22.0013 48.5099 21.0333 49.3054 19.8827 49.3054H12.0226C10.6682 49.3054 9.56632 48.2035 9.56641 46.8491V33.5034C9.56641 32.1492 10.6682 31.0472 12.0226 31.0472H19.8826C20.7237 31.0472 21.4673 31.4725 21.9102 32.1192L24.5105 29.5188C24.8037 29.2258 25.4052 28.7304 26.4339 28.1809C28.0037 27.3425 29.7075 26.743 29.7075 26.743V19.9968V17.6552C29.7075 17.2032 30.0741 16.8365 30.5262 16.8365L50.6675 16.8354ZM12.0226 47.6679H19.8825C20.3339 47.6679 20.7012 47.3006 20.7013 46.8492V33.5035C20.7013 33.0521 20.334 32.6848 19.8826 32.6848H16.7714V42.1166C16.7714 42.5687 16.4047 42.9354 15.9525 42.9354C15.5004 42.9354 15.1338 42.5687 15.1338 42.1166V32.6848H12.0226C11.5711 32.6848 11.2037 33.0521 11.2037 33.5035V46.8492C11.2037 47.3007 11.5711 47.6679 12.0226 47.6679ZM24.316 47.0551L22.3388 45.3307V34.0064L24.9904 31.316C24.9904 31.316 26.1169 30.3406 26.8754 29.9127C28.4741 29.011 29.7052 28.6567 29.7052 28.6567V30.8577L28.912 32.9684C29.0047 33.3309 29.3312 33.5843 29.7052 33.5843L43.4523 33.5854C44.0843 33.5854 44.5985 34.0995 44.5985 34.7316C44.5985 35.3637 44.0843 35.8779 43.4523 35.8779H35.204C34.7518 35.8779 34.3853 36.2445 34.3853 36.6967C34.3853 37.1488 34.7518 37.5154 35.204 37.5154H46.015C46.6471 37.5154 47.1613 38.0297 47.1613 38.6618C47.1613 39.2938 46.6471 39.808 46.015 39.808H35.204C34.7518 39.808 34.3853 40.1747 34.3853 40.6267C34.3853 41.0789 34.7518 41.4456 35.204 41.4456H44.2631C44.8952 41.4456 45.4094 41.9597 45.4094 42.5918C45.4094 43.2239 44.8952 43.7381 44.2631 43.7381H35.204C34.7518 43.7381 34.3853 44.1048 34.3853 44.5569C34.3853 45.009 34.7518 45.3756 35.204 45.3756H41.4703C42.1024 45.3756 42.6165 45.8898 42.6165 46.5219C42.6165 47.1541 42.1024 47.6682 41.4703 47.6682H25.9514C25.3501 47.6679 24.7693 47.4503 24.316 47.0551ZM44.254 46.5217C44.254 46.9303 44.1648 47.3181 44.0061 47.6679H49.8488V18.8212L31.3451 18.8221V31.9478L43.4522 31.9479C44.9872 31.9479 46.2359 33.1967 46.2359 34.7316C46.2359 35.1402 46.1468 35.528 46.0149 35.8779C46.2197 35.8779 46.4192 35.9009 46.6117 35.943V26.626C46.6117 26.174 46.9783 25.8073 47.4305 25.8073C47.8826 25.8073 48.2492 26.174 48.2492 26.626V37.0032C48.5941 37.4667 48.7987 38.0407 48.7987 38.6617C48.7987 39.9417 47.9301 41.022 46.7513 41.3457C46.94 41.7209 47.0469 42.1439 47.0469 42.5916C47.0469 44.1266 45.798 45.3754 44.2631 45.3754H44.0061C44.1648 45.7252 44.254 46.1131 44.254 46.5217Z" fill="#424750"/>
<path fill-rule="evenodd" clip-rule="evenodd" d="M34.0674 18.5854H38.6177V32.2354H34.0674V18.5854Z" fill="#424750"/>
<path fill-rule="evenodd" clip-rule="evenodd" d="M7.64062 15.9601C7.64062 19.0095 10.2268 23.4788 15.3741 29.5316C15.7235 29.9425 16.3578 29.9425 16.7072 29.5316C21.8545 23.4788 24.4406 19.0095 24.4406 15.9601C24.4406 11.3209 20.6798 7.56006 16.0406 7.56006C11.4014 7.56006 7.64062 11.3209 7.64062 15.9601ZM16.0406 9.31006C19.7134 9.31006 22.6906 12.2873 22.6906 15.9601C22.6906 18.3358 20.4812 22.2649 16.0406 27.6054C11.6001 22.2649 9.39062 18.3358 9.39062 15.9601C9.39062 12.2873 12.3679 9.31006 16.0406 9.31006Z" fill="#9773FF"/>
<path fill-rule="evenodd" clip-rule="evenodd" d="M11.9277 15.9602C11.9277 18.2314 13.769 20.0727 16.0402 20.0727C18.3115 20.0727 20.1528 18.2314 20.1528 15.9602C20.1528 13.6889 18.3115 11.8477 16.0402 11.8477C13.769 11.8477 11.9277 13.6889 11.9277 15.9602ZM18.5777 15.9602C18.5777 17.3616 17.4417 18.4977 16.0402 18.4977C14.6389 18.4977 13.5028 17.3616 13.5028 15.9602C13.5028 14.5588 14.6389 13.4227 16.0402 13.4227C17.4417 13.4227 18.5777 14.5588 18.5777 15.9602Z" fill="#9773FF"/>
</svg>
