<svg width="41" height="40" viewBox="0 0 41 40" fill="none" xmlns="http://www.w3.org/2000/svg">
<path d="M12.3138 22.9397C15.1339 22.9397 17.3939 25.2218 17.3939 28.0618V34.8799C17.3939 37.7 15.1339 40 12.3138 40H5.55371C2.75367 40 0.473633 37.7 0.473633 34.8799V28.0618C0.473633 25.2218 2.75367 22.9397 5.55371 22.9397H12.3138ZM35.3944 22.9397C38.1944 22.9397 40.4744 25.2218 40.4744 28.0618V34.8799C40.4744 37.7 38.1944 40 35.3944 40H28.6343C25.8142 40 23.5542 37.7 23.5542 34.8799V28.0618C23.5542 25.2218 25.8142 22.9397 28.6343 22.9397H35.3944ZM12.3138 0C15.1339 0 17.3939 2.30003 17.3939 5.12208V11.9402C17.3939 14.7802 15.1339 17.0603 12.3138 17.0603H5.55371C2.75367 17.0603 0.473633 14.7802 0.473633 11.9402V5.12208C0.473633 2.30003 2.75367 0 5.55371 0H12.3138ZM35.3944 0C38.1944 0 40.4744 2.30003 40.4744 5.12208V11.9402C40.4744 14.7802 38.1944 17.0603 35.3944 17.0603H28.6343C25.8142 17.0603 23.5542 14.7802 23.5542 11.9402V5.12208C23.5542 2.30003 25.8142 0 28.6343 0H35.3944Z" fill="#15121D"/>
</svg>
