<svg width="49" height="49" viewBox="0 0 49 49" fill="none" xmlns="http://www.w3.org/2000/svg">
<g clip-path="url(#clip0_314_674)">
<path d="M40.8324 17.7185V17.2918C40.7415 13.6798 39.2253 10.2504 36.6148 7.75237C34.0043 5.25431 30.5116 3.89043 26.8991 3.95848C24.2086 3.93653 21.5692 4.69251 19.2983 6.13545C17.0275 7.5784 15.2219 9.64682 14.0991 12.0918C10.898 12.4705 7.95575 14.037 5.85433 16.4811C3.75292 18.9253 2.64545 22.0693 2.75105 25.2909C2.85665 28.5125 4.16762 31.5772 6.42459 33.8785C8.68155 36.1798 11.7201 37.5502 14.9391 37.7185C14.634 36.8558 14.634 35.9145 14.9391 35.0518C12.3689 34.8479 9.9713 33.6782 8.22862 31.7781C6.48594 29.878 5.52748 27.3884 5.54607 24.8102C5.56465 22.2321 6.5589 19.7566 8.32879 17.8818C10.0987 16.007 12.5129 14.872 15.0857 14.7052H15.9791L16.2857 13.8652C17.1127 11.7173 18.579 9.87513 20.4866 8.58749C22.3943 7.29986 24.6512 6.62885 26.9524 6.66515C29.8578 6.59689 32.6724 7.67977 34.7828 9.6778C36.8932 11.6758 38.1284 14.427 38.2191 17.3318C38.2374 17.6871 38.2374 18.0432 38.2191 18.3985L38.1124 19.3585L38.9791 19.7585C40.6553 20.5136 42.0203 21.8231 42.8443 23.4666C43.6684 25.11 43.9013 26.9871 43.5038 28.7821C43.1063 30.5771 42.1027 32.1804 40.6618 33.3223C39.2209 34.4642 37.4307 35.0749 35.5924 35.0518H33.8724C34.1774 35.9145 34.1774 36.8558 33.8724 37.7185H35.5791C37.9504 37.7355 40.2597 36.9618 42.1422 35.5198C44.0247 34.0777 45.373 32.0494 45.974 29.7555C46.575 27.4616 46.3945 25.0328 45.4609 22.8529C44.5274 20.673 42.8941 18.8664 40.8191 17.7185H40.8324Z" fill="#15121D"/>
<path d="M30.126 35.1453C29.9505 35.1443 29.7766 35.1779 29.6141 35.2443C29.4517 35.3106 29.3039 35.4084 29.1793 35.532L25.7527 38.972V22.6253C25.7527 22.2717 25.6122 21.9326 25.3622 21.6825C25.1121 21.4325 24.773 21.292 24.4193 21.292C24.0657 21.292 23.7266 21.4325 23.4765 21.6825C23.2265 21.9326 23.086 22.2717 23.086 22.6253V38.972L19.6593 35.5453C19.41 35.2925 19.0705 35.149 18.7154 35.1465C18.3604 35.144 18.0189 35.2827 17.766 35.532C17.5132 35.7813 17.3697 36.1208 17.3672 36.4759C17.3647 36.831 17.5034 37.1725 17.7527 37.4253L24.4193 44.092L31.086 37.4253C31.274 37.2388 31.4023 37.0006 31.4544 36.7409C31.5065 36.4812 31.4801 36.2119 31.3785 35.9673C31.277 35.7228 31.1049 35.5139 30.8842 35.3675C30.6635 35.2211 30.4042 35.1438 30.1393 35.1453H30.126Z" fill="#15121D"/>
</g>
<defs>
<clipPath id="clip0_314_674">
<rect width="48" height="48" fill="white" transform="translate(0.418945 0.385254)"/>
</clipPath>
</defs>
</svg>
