<svg width="49" height="48" viewBox="0 0 49 48" fill="none" xmlns="http://www.w3.org/2000/svg">
<g filter="url(#filter0_d_1253_17254)">
<path d="M22.8252 30V26C21.2339 26 19.7078 25.3679 18.5826 24.2426C17.4573 23.1174 16.8252 21.5913 16.8252 20C16.8252 18.4087 17.4573 16.8826 18.5826 15.7574C19.7078 14.6321 21.2339 14 22.8252 14V12C22.8252 11.4696 23.0359 10.9609 23.411 10.5858C23.7861 10.2107 24.2948 10 24.8252 10C25.3556 10 25.8643 10.2107 26.2394 10.5858C26.6145 10.9609 26.8252 11.4696 26.8252 12V14H26.8692C28.4488 14 29.9638 14.6275 31.0807 15.7445C32.1977 16.8614 32.8252 18.3764 32.8252 19.956C32.8252 20.4864 32.6145 20.9951 32.2394 21.3702C31.8643 21.7453 31.3556 21.956 30.8252 21.956C30.2948 21.956 29.7861 21.7453 29.411 21.3702C29.0359 20.9951 28.8252 20.4864 28.8252 19.956C28.8252 19.4372 28.6191 18.9397 28.2523 18.5729C27.8855 18.2061 27.388 18 26.8692 18H26.8252V22C28.4165 22 29.9426 22.6321 31.0678 23.7574C32.1931 24.8826 32.8252 26.4087 32.8252 28C32.8252 29.5913 32.1931 31.1174 31.0678 32.2426C29.9426 33.3679 28.4165 34 26.8252 34V36C26.8252 36.5304 26.6145 37.0391 26.2394 37.4142C25.8643 37.7893 25.3556 38 24.8252 38C24.2948 38 23.7861 37.7893 23.411 37.4142C23.0359 37.0391 22.8252 36.5304 22.8252 36V34H22.7232C21.1589 34 19.6588 33.3786 18.5527 32.2725C17.4466 31.1664 16.8252 29.6662 16.8252 28.102C16.8252 27.5716 17.0359 27.0629 17.411 26.6878C17.7861 26.3127 18.2948 26.102 18.8252 26.102C19.3556 26.102 19.8643 26.3127 20.2394 26.6878C20.6145 27.0629 20.8252 27.5716 20.8252 28.102C20.8257 28.6052 21.0259 29.0877 21.3817 29.4435C21.7375 29.7993 22.22 29.9995 22.7232 30H22.8252ZM26.8252 30C27.3556 30 27.8643 29.7893 28.2394 29.4142C28.6145 29.0391 28.8252 28.5304 28.8252 28C28.8252 27.4696 28.6145 26.9609 28.2394 26.5858C27.8643 26.2107 27.3556 26 26.8252 26V30ZM22.8252 18C22.2948 18 21.7861 18.2107 21.411 18.5858C21.0359 18.9609 20.8252 19.4696 20.8252 20C20.8252 20.5304 21.0359 21.0391 21.411 21.4142C21.7861 21.7893 22.2948 22 22.8252 22V18ZM24.8252 44C13.7792 44 4.8252 35.046 4.8252 24C4.8252 12.954 13.7792 4 24.8252 4C35.8712 4 44.8252 12.954 44.8252 24C44.8252 35.046 35.8712 44 24.8252 44ZM24.8252 40C29.0687 40 33.1383 38.3143 36.1389 35.3137C39.1395 32.3131 40.8252 28.2435 40.8252 24C40.8252 19.7565 39.1395 15.6869 36.1389 12.6863C33.1383 9.68571 29.0687 8 24.8252 8C20.5817 8 16.5121 9.68571 13.5115 12.6863C10.5109 15.6869 8.8252 19.7565 8.8252 24C8.8252 28.2435 10.5109 32.3131 13.5115 35.3137C16.5121 38.3143 20.5817 40 24.8252 40Z" fill="black"/>
</g>
<defs>
<filter id="filter0_d_1253_17254" x="0.825195" y="0" width="48" height="48" filterUnits="userSpaceOnUse" color-interpolation-filters="sRGB">
<feFlood flood-opacity="0" result="BackgroundImageFix"/>
<feColorMatrix in="SourceAlpha" type="matrix" values="0 0 0 0 0 0 0 0 0 0 0 0 0 0 0 0 0 0 127 0" result="hardAlpha"/>
<feOffset/>
<feGaussianBlur stdDeviation="2"/>
<feComposite in2="hardAlpha" operator="out"/>
<feColorMatrix type="matrix" values="0 0 0 0 1 0 0 0 0 1 0 0 0 0 1 0 0 0 0.24 0"/>
<feBlend mode="normal" in2="BackgroundImageFix" result="effect1_dropShadow_1253_17254"/>
<feBlend mode="normal" in="SourceGraphic" in2="effect1_dropShadow_1253_17254" result="shape"/>
</filter>
</defs>
</svg>
