<svg width="49" height="49" viewBox="0 0 49 49" fill="none" xmlns="http://www.w3.org/2000/svg">
<g clip-path="url(#clip0_305_14)">
<path d="M48.0628 22.8794C47.7736 18.1994 46.1211 13.7064 43.3092 9.95426C40.4973 6.20208 36.6488 3.35479 32.2382 1.76339C27.8277 0.171999 23.0478 -0.0939285 18.4879 0.998396C13.928 2.09072 9.78749 4.49354 6.57671 7.91064C3.36593 11.3277 1.22529 15.6097 0.418688 20.2287C-0.38791 24.8477 0.174797 29.6018 2.03744 33.9048C3.90008 38.2079 6.98122 41.8718 10.901 44.4449C14.8208 47.018 19.4079 48.3878 24.0968 48.3854H38.0628C40.7142 48.3828 43.2562 47.3283 45.131 45.4536C47.0057 43.5788 48.0602 41.0368 48.0628 38.3854V22.8794ZM44.0628 38.3854C44.0628 39.9767 43.4307 41.5028 42.3054 42.628C41.1802 43.7533 39.6541 44.3854 38.0628 44.3854H24.0968C21.2747 44.3841 18.4845 43.788 15.9082 42.636C13.3319 41.484 11.0274 39.8019 9.1448 37.6994C7.25315 35.598 5.83266 33.1163 4.97859 30.421C4.12452 27.7256 3.8566 24.8788 4.19281 22.0714C4.72368 17.6433 6.71318 13.5178 9.84769 10.3453C12.9822 7.17273 17.0834 5.13362 21.5048 4.5494C22.3673 4.44131 23.2356 4.38654 24.1048 4.3854C28.7658 4.37269 33.2824 6.00121 36.8628 8.9854C38.9539 10.7233 40.6702 12.8677 41.9079 15.2887C43.1455 17.7096 43.8786 20.3567 44.0628 23.0694V38.3854Z" fill="#15121D"/>
<path d="M16.0625 18.3853H24.0625C24.5929 18.3853 25.1016 18.1745 25.4767 17.7995C25.8518 17.4244 26.0625 16.9157 26.0625 16.3853C26.0625 15.8548 25.8518 15.3461 25.4767 14.971C25.1016 14.596 24.5929 14.3853 24.0625 14.3853H16.0625C15.5321 14.3853 15.0234 14.596 14.6483 14.971C14.2732 15.3461 14.0625 15.8548 14.0625 16.3853C14.0625 16.9157 14.2732 17.4244 14.6483 17.7995C15.0234 18.1745 15.5321 18.3853 16.0625 18.3853Z" fill="#15121D"/>
<path d="M32.0625 22.3853H16.0625C15.5321 22.3853 15.0234 22.596 14.6483 22.971C14.2732 23.3461 14.0625 23.8548 14.0625 24.3853C14.0625 24.9157 14.2732 25.4244 14.6483 25.7995C15.0234 26.1745 15.5321 26.3853 16.0625 26.3853H32.0625C32.5929 26.3853 33.1016 26.1745 33.4767 25.7995C33.8518 25.4244 34.0625 24.9157 34.0625 24.3853C34.0625 23.8548 33.8518 23.3461 33.4767 22.971C33.1016 22.596 32.5929 22.3853 32.0625 22.3853Z" fill="#15121D"/>
<path d="M32.0625 30.3853H16.0625C15.5321 30.3853 15.0234 30.596 14.6483 30.971C14.2732 31.3461 14.0625 31.8548 14.0625 32.3853C14.0625 32.9157 14.2732 33.4244 14.6483 33.7995C15.0234 34.1745 15.5321 34.3853 16.0625 34.3853H32.0625C32.5929 34.3853 33.1016 34.1745 33.4767 33.7995C33.8518 33.4244 34.0625 32.9157 34.0625 32.3853C34.0625 31.8548 33.8518 31.3461 33.4767 30.971C33.1016 30.596 32.5929 30.3853 32.0625 30.3853Z" fill="#15121D"/>
</g>
<defs>
<clipPath id="clip0_305_14">
<rect width="48" height="48" fill="white" transform="translate(0.0625 0.385254)"/>
</clipPath>
</defs>
</svg>
