<svg width="33" height="32" viewBox="0 0 33 32" fill="none" xmlns="http://www.w3.org/2000/svg">
<g clip-path="url(#clip0_864_1275)">
<path d="M7.37891 22.6665C8.48348 22.6665 9.37891 21.7711 9.37891 20.6665C9.37891 19.5619 8.48348 18.6665 7.37891 18.6665C6.27434 18.6665 5.37891 19.5619 5.37891 20.6665C5.37891 21.7711 6.27434 22.6665 7.37891 22.6665Z" fill="#15121D"/>
<path d="M25.3792 4H6.71257C4.94511 4.00212 3.25064 4.70518 2.00086 5.95496C0.751074 7.20474 0.0480156 8.89921 0.0458984 10.6667L0.0458984 21.3333C0.0480156 23.1008 0.751074 24.7953 2.00086 26.045C3.25064 27.2948 4.94511 27.9979 6.71257 28H25.3792C27.1467 27.9979 28.8412 27.2948 30.0909 26.045C31.3407 24.7953 32.0438 23.1008 32.0459 21.3333V10.6667C32.0438 8.89921 31.3407 7.20474 30.0909 5.95496C28.8412 4.70518 27.1467 4.00212 25.3792 4ZM6.71257 6.66667H25.3792C26.4401 6.66667 27.4575 7.08809 28.2077 7.83824C28.9578 8.58839 29.3792 9.6058 29.3792 10.6667H2.71257C2.71257 9.6058 3.13399 8.58839 3.88414 7.83824C4.63428 7.08809 5.6517 6.66667 6.71257 6.66667ZM25.3792 25.3333H6.71257C5.6517 25.3333 4.63428 24.9119 3.88414 24.1618C3.13399 23.4116 2.71257 22.3942 2.71257 21.3333V13.3333H29.3792V21.3333C29.3792 22.3942 28.9578 23.4116 28.2077 24.1618C27.4575 24.9119 26.4401 25.3333 25.3792 25.3333Z" fill="#15121D"/>
</g>
<defs>
<clipPath id="clip0_864_1275">
<rect width="32" height="32" fill="white" transform="translate(0.0458984)"/>
</clipPath>
</defs>
</svg>
