<svg width="69" height="69" viewBox="0 0 69 69" fill="none" xmlns="http://www.w3.org/2000/svg">
<g clip-path="url(#clip0_309_577)">
<path d="M37.875 31.6676L37.8765 4.96973C37.8765 3.31238 36.5329 1.96884 34.8757 1.96891C33.2183 1.96891 31.8748 3.31245 31.8748 4.96972L31.8762 31.6676L5.1784 31.6662C3.52105 31.6662 2.17751 33.0097 2.17758 34.667C2.17765 36.3243 3.52112 37.6679 5.1784 37.6678L31.8762 37.6664L31.8748 64.3643C31.8748 66.0216 33.2184 67.3651 34.8757 67.3651C36.5329 67.365 37.8765 66.0215 37.8765 64.3643L37.875 37.6664L64.5729 37.6679C66.2302 37.6679 67.5737 36.3243 67.5737 34.6671C67.5737 33.0097 66.2301 31.6662 64.5729 31.6662L37.875 31.6676Z" fill="#15121D"/>
</g>
<defs>
<clipPath id="clip0_309_577">
<rect width="48" height="48" fill="white" transform="translate(0.933594 34.667) rotate(-45)"/>
</clipPath>
</defs>
</svg>
