<svg width="58" height="57" viewBox="0 0 58 57" fill="none" xmlns="http://www.w3.org/2000/svg">
<path fill-rule="evenodd" clip-rule="evenodd" d="M24.873 10.249L41.5799 15.4699V23.6459L36.0526 25.4453V17.6747L18.6602 12.1301L24.873 10.249Z" fill="#FFA826"/>
<path fill-rule="evenodd" clip-rule="evenodd" d="M49.1782 14.1975C49.1361 14.0315 49.0578 13.9105 48.9517 13.8168C48.9021 13.7671 48.8468 13.7233 48.7869 13.6865C48.7531 13.6664 48.7181 13.6488 48.6821 13.6336C48.657 13.6193 29.219 7.42664 29.219 7.42664C29.0453 7.37146 28.8587 7.37146 28.685 7.42664L9.29943 13.5948C8.93297 13.71 8.68338 14.0494 8.68262 14.4336V35.5815C8.68294 35.9661 8.93265 36.3059 9.29943 36.4213L16.1072 38.7228C16.2809 38.778 16.6762 37.1868 16.6762 37.1868L10.4449 34.9374V15.0778L16.3196 13.2088L32.7974 18.4526L28.9494 19.6766L14.2339 14.9958C13.7701 14.8484 13.2746 15.1047 13.1272 15.5686C12.9797 16.0323 13.2362 16.5278 13.6999 16.6753L28.0682 21.2459V31.7192C28.0682 32.2059 28.4627 32.6004 28.9494 32.6004C29.4359 32.6004 29.8305 32.2059 29.8305 31.7192V21.2459L34.8241 19.6598V25.5055C34.8241 25.9921 35.2186 26.3866 35.7052 26.3866C35.7948 26.386 35.8839 26.372 35.9696 26.3452L38.0253 25.6896C38.4892 25.5421 38.7455 25.0467 38.5981 24.5828C38.4506 24.1191 37.9552 23.8626 37.4913 24.0101L36.5837 24.2991V19.1003L41.1358 17.6517V22.8505L40.1348 23.1686C39.671 23.3161 39.4146 23.8115 39.5621 24.2753C39.678 24.6403 40.0164 24.8884 40.3992 24.8895C40.4889 24.8896 40.5782 24.8757 40.6635 24.8481L42.2795 24.3343C42.6463 24.219 42.8961 23.8792 42.8964 23.4947V17.0877L47.4537 15.6391V34.9365L46.3082 35.3022C45.84 35.4348 45.5679 35.9218 45.7004 36.3901C45.833 36.8583 46.3201 37.1304 46.7884 36.9979C46.8046 36.9932 48.5993 36.4213 48.5993 36.4213C48.9661 36.3059 49.2159 35.9661 49.2162 35.5815V14.4336C49.2143 14.3536 49.2016 14.2742 49.1782 14.1975ZM35.7043 17.5274L19.2266 12.2845L22.6349 11.1998L39.1126 16.4427L35.7043 17.5274ZM25.5419 10.2746L42.0187 15.5184L45.427 14.4336L28.9494 9.19072L25.5419 10.2746Z" fill="#424750"/>
<path d="M13.2436 29.4351C12.7904 29.4351 12.4229 29.8026 12.4229 30.2558V36.2179C12.4229 36.6712 12.7904 37.0386 13.2436 37.0386C13.6969 37.0386 14.0644 36.6712 14.0644 36.2179V30.2558C14.0644 29.8026 13.6969 29.4351 13.2436 29.4351Z" fill="#424750"/>
<path d="M13.2431 26.9854C13.0274 26.9854 12.8158 27.0731 12.6632 27.2257C12.5106 27.3783 12.4229 27.5899 12.4229 27.8065C12.4229 28.0214 12.5106 28.233 12.6632 28.3865C12.8158 28.539 13.0274 28.6259 13.2431 28.6259C13.459 28.6259 13.6705 28.539 13.8232 28.3865C13.9757 28.233 14.0634 28.0222 14.0634 27.8065C14.0634 27.5899 13.9757 27.3783 13.8232 27.2257C13.6705 27.0731 13.459 26.9854 13.2431 26.9854Z" fill="#424750"/>
<path d="M16.3935 37.1353C16.1778 37.1353 15.9662 37.223 15.8135 37.3756C15.661 37.5282 15.5732 37.7398 15.5732 37.9564C15.5732 38.1714 15.661 38.3829 15.8135 38.5364C15.9662 38.6889 16.1778 38.7758 16.3935 38.7758C16.6092 38.7758 16.8209 38.6889 16.9735 38.5364C17.1261 38.3829 17.2138 38.1721 17.2138 37.9564C17.2138 37.7398 17.1261 37.5282 16.9735 37.3756C16.8209 37.223 16.6092 37.1353 16.3935 37.1353Z" fill="#424750"/>
<path d="M43.0475 26.0996C42.5609 26.0996 42.1663 26.4941 42.1663 26.9808V36.1671C42.1615 40.5449 38.6137 44.0926 34.2359 44.0975H23.6619C23.1753 44.0975 22.7807 44.492 22.7807 44.9787V46.8106L16.387 42.3351L22.7807 37.8597V39.6916C22.7807 40.1783 23.1753 40.5728 23.6619 40.5728H31.5923C34.5111 40.57 36.8765 38.2046 36.8794 35.2859V34.9112C36.8794 34.4246 36.4848 34.03 35.9982 34.03C35.5115 34.03 35.117 34.4246 35.117 34.9112V35.2859C35.117 37.2325 33.539 38.8105 31.5923 38.8105H24.5431V36.1671C24.5429 35.6804 24.1481 35.2861 23.6615 35.2863C23.4811 35.2864 23.305 35.3419 23.157 35.4454L14.3454 41.6135C13.9467 41.8927 13.8501 42.4423 14.1293 42.8407C14.1882 42.9248 14.2614 42.9979 14.3454 43.0568L23.157 49.225C23.5558 49.5039 24.1053 49.4066 24.384 49.0078C24.4875 48.8599 24.543 48.6838 24.5431 48.5033V45.8598H34.2359C39.5863 45.8535 43.9224 41.5175 43.9286 36.1671V26.9808C43.9286 26.4941 43.5341 26.0996 43.0475 26.0996Z" fill="#9773FF"/>
<path fill-rule="evenodd" clip-rule="evenodd" d="M15.5732 21.7354H24.3872V24.0168L19.7657 35.3854H16.9187L21.4037 24.3094H15.5732V21.7354Z" fill="#FFA826"/>
</svg>
