<svg width="41" height="41" viewBox="0 0 41 41" fill="none" xmlns="http://www.w3.org/2000/svg">
<path fill-rule="evenodd" clip-rule="evenodd" d="M24.6884 2.71537L26.1502 4.17717C26.7161 4.73909 27.472 5.05105 28.2759 5.05105H30.3316C33.6532 5.05105 36.3548 7.75268 36.3548 11.0742V13.1279C36.3548 13.9298 36.6668 14.6877 37.2327 15.2576L38.6685 16.6954C39.8063 17.8253 40.4383 19.3351 40.4443 20.9449C40.4502 22.5546 39.8283 24.0684 38.6945 25.2103L37.2287 26.6721C36.6668 27.238 36.3548 27.9919 36.3548 28.7958V30.8535C36.3548 34.173 33.6532 36.8747 30.3336 36.8747H28.2719C27.48 36.8747 26.7062 37.1946 26.1442 37.7525L24.7084 39.1883C23.5346 40.3702 21.9868 40.9621 20.439 40.9621C18.9052 40.9621 17.3714 40.3822 16.1976 39.2183C16.1816 39.2023 16.1656 39.1863 16.1496 39.1683L14.7298 37.7505C14.1639 37.1886 13.408 36.8767 12.6041 36.8747H10.5524C7.23084 36.8747 4.53122 34.173 4.53122 30.8535V28.7918C4.53122 27.9879 4.21726 27.234 3.65334 26.6661L2.21554 25.2303C-0.120142 22.9066 -0.148138 19.1231 2.14555 16.7634L2.19954 16.7094L3.65534 15.2496C4.21726 14.6837 4.53122 13.9258 4.53122 13.1239V11.0742C4.53122 7.75468 7.23084 5.05305 10.5504 5.05105H12.6101C13.412 5.05105 14.1679 4.73709 14.7418 4.17117L16.1716 2.73737C18.5093 0.383697 22.3308 0.371699 24.6884 2.71537ZM18.2973 4.85508L16.8595 6.29688C15.7117 7.43072 14.2059 8.05064 12.6101 8.05064H10.5524C8.88661 8.05264 7.5308 9.40845 7.5308 11.0742V13.1239C7.5308 14.7257 6.90889 16.2315 5.78104 17.3673L4.36124 18.7892C4.34724 18.8051 4.33324 18.8171 4.31924 18.8311C3.14541 20.013 3.15141 21.9307 4.33324 23.1046L5.77704 24.5484C6.90889 25.6842 7.5308 27.19 7.5308 28.7918V30.8535C7.5308 32.5193 8.88461 33.8751 10.5524 33.8751H12.6061C14.2099 33.8771 15.7157 34.499 16.8495 35.6288L18.2913 37.0666L18.3313 37.1106C19.5111 38.2625 21.4109 38.2485 22.5827 37.0706L24.0265 35.6308C25.1464 34.513 26.6942 33.8751 28.2719 33.8751H30.3316C31.9994 33.8751 33.3552 32.5193 33.3552 30.8535V28.7958C33.3552 27.194 33.9751 25.6882 35.107 24.5544L36.5468 23.1126C37.1327 22.5246 37.4467 21.7627 37.4447 20.9549C37.4427 20.149 37.1247 19.3911 36.5508 18.8191L35.109 17.3753C33.9751 16.2335 33.3552 14.7297 33.3552 13.1279V11.0742C33.3552 9.40645 31.9994 8.05064 30.3316 8.05064H28.2759C26.6742 8.05064 25.1684 7.42872 24.0345 6.30288L22.5907 4.85708C21.3889 3.66724 19.4711 3.67324 18.2973 4.85508ZM25.4475 23.9598C26.5534 23.9598 27.4472 24.8537 27.4472 25.9596C27.4472 27.0654 26.5534 27.9593 25.4475 27.9593C24.3417 27.9593 23.4378 27.0654 23.4378 25.9596C23.4378 24.8537 24.3237 23.9598 25.4295 23.9598H25.4475ZM26.643 14.7637C27.2289 15.3496 27.2289 16.2995 26.643 16.8854L16.3624 27.164C16.0704 27.458 15.6865 27.6039 15.3025 27.6039C14.9186 27.6039 14.5346 27.458 14.2427 27.164C13.6568 26.5781 13.6568 25.6302 14.2427 25.0443L24.5213 14.7637C25.1072 14.1778 26.057 14.1778 26.643 14.7637ZM15.4489 13.9612C16.5548 13.9612 17.4486 14.8551 17.4486 15.9609C17.4486 17.0668 16.5548 17.9607 15.4489 17.9607C14.3431 17.9607 13.4392 17.0668 13.4392 15.9609C13.4392 14.8551 14.3251 13.9612 15.4309 13.9612H15.4489Z" fill="#15121D"/>
</svg>
