<svg width="57" height="57" viewBox="0 0 57 57" fill="none" xmlns="http://www.w3.org/2000/svg">
<g clip-path="url(#clip0_582_1945)">
<path d="M39.8965 33.2746C39.8965 33.8935 39.6507 34.487 39.2131 34.9245C38.7755 35.3621 38.182 35.608 37.5631 35.608H18.8965C18.2776 35.608 17.6842 35.3621 17.2466 34.9245C16.809 34.487 16.5632 33.8935 16.5632 33.2746C16.5632 32.6558 16.809 32.0623 17.2466 31.6247C17.6842 31.1871 18.2776 30.9413 18.8965 30.9413H37.5631C38.182 30.9413 38.7755 31.1871 39.2131 31.6247C39.6507 32.0623 39.8965 32.6558 39.8965 33.2746ZM30.5632 40.2746H18.8965C18.2776 40.2746 17.6842 40.5205 17.2466 40.958C16.809 41.3956 16.5632 41.9891 16.5632 42.608C16.5632 43.2268 16.809 43.8203 17.2466 44.2579C17.6842 44.6955 18.2776 44.9413 18.8965 44.9413H30.5632C31.182 44.9413 31.7755 44.6955 32.2131 44.2579C32.6507 43.8203 32.8965 43.2268 32.8965 42.608C32.8965 41.9891 32.6507 41.3956 32.2131 40.958C31.7755 40.5205 31.182 40.2746 30.5632 40.2746ZM51.5631 25.073V44.9413C51.5594 48.0344 50.3291 50.9997 48.142 53.1868C45.9548 55.3739 42.9895 56.6043 39.8965 56.608H16.5632C13.4701 56.6043 10.5048 55.3739 8.31766 53.1868C6.13054 50.9997 4.90019 48.0344 4.89648 44.9413V12.2746C4.90019 9.18157 6.13054 6.21627 8.31766 4.02914C10.5048 1.84202 13.4701 0.611669 16.5632 0.607964H27.0982C29.2439 0.602441 31.3695 1.02234 33.352 1.84337C35.3345 2.6644 37.1346 3.87029 38.6482 5.3913L46.7775 13.5253C48.2994 15.0379 49.506 16.8374 50.3275 18.8196C51.149 20.8018 51.569 22.9273 51.5631 25.073ZM35.3488 8.69063C34.6145 7.97934 33.79 7.36745 32.8965 6.87063V16.9413C32.8965 17.5601 33.1423 18.1536 33.5799 18.5912C34.0175 19.0288 34.611 19.2746 35.2298 19.2746H45.3005C44.8034 18.3814 44.1907 17.5576 43.4781 16.8246L35.3488 8.69063ZM46.8965 25.073C46.8965 24.688 46.8218 24.3193 46.7868 23.9413H35.2298C33.3733 23.9413 31.5928 23.2038 30.2801 21.891C28.9673 20.5783 28.2298 18.7978 28.2298 16.9413V5.3843C27.8518 5.3493 27.4808 5.27463 27.0982 5.27463H16.5632C14.7066 5.27463 12.9262 6.01213 11.6134 7.32488C10.3006 8.63764 9.56315 10.4181 9.56315 12.2746V44.9413C9.56315 46.7978 10.3006 48.5783 11.6134 49.891C12.9262 51.2038 14.7066 51.9413 16.5632 51.9413H39.8965C41.753 51.9413 43.5335 51.2038 44.8462 49.891C46.159 48.5783 46.8965 46.7978 46.8965 44.9413V25.073Z" fill="#15121D"/>
</g>
<defs>
<clipPath id="clip0_582_1945">
<rect width="56" height="56" fill="white" transform="translate(0.229492 0.60791)"/>
</clipPath>
</defs>
</svg>
