<svg width="49" height="49" viewBox="0 0 49 49" fill="none" xmlns="http://www.w3.org/2000/svg">
<g clip-path="url(#clip0_304_4619)">
<path d="M37.5249 2.2454L13.1409 26.6294C12.2096 27.5557 11.4713 28.6575 10.9687 29.8711C10.4661 31.0847 10.2092 32.3859 10.2129 33.6994V36.3854C10.2129 36.9158 10.4236 37.4245 10.7987 37.7996C11.1738 38.1747 11.6825 38.3854 12.2129 38.3854H14.8989C16.2125 38.3891 17.5137 38.1322 18.7272 37.6296C19.9408 37.127 21.0426 36.3887 21.9689 35.4574L46.3529 11.0734C47.5217 9.90174 48.1781 8.31435 48.1781 6.6594C48.1781 5.00445 47.5217 3.41706 46.3529 2.2454C45.1643 1.10919 43.5833 0.475098 41.9389 0.475098C40.2946 0.475098 38.7136 1.10919 37.5249 2.2454ZM43.5249 8.2454L19.1409 32.6294C18.0132 33.7503 16.4889 34.3812 14.8989 34.3854H14.2129V33.6994C14.2171 32.1094 14.8481 30.5851 15.9689 29.4574L40.3529 5.0734C40.7801 4.66531 41.3482 4.43759 41.9389 4.43759C42.5297 4.43759 43.0978 4.66531 43.5249 5.0734C43.9448 5.49443 44.1806 6.06478 44.1806 6.6594C44.1806 7.25402 43.9448 7.82437 43.5249 8.2454Z" fill="#15121D"/>
<path d="M46.2129 18.3433C45.6825 18.3433 45.1738 18.554 44.7987 18.929C44.4236 19.3041 44.2129 19.8128 44.2129 20.3433V30.3853H36.2129C34.6216 30.3853 33.0955 31.0174 31.9703 32.1426C30.845 33.2678 30.2129 34.794 30.2129 36.3853V44.3853H10.2129C8.62159 44.3853 7.09547 43.7531 5.97025 42.6279C4.84503 41.5027 4.21289 39.9766 4.21289 38.3853V10.3853C4.21289 8.79396 4.84503 7.26783 5.97025 6.14261C7.09547 5.0174 8.62159 4.38525 10.2129 4.38525H28.2969C28.8273 4.38525 29.336 4.17454 29.7111 3.79947C30.0862 3.4244 30.2969 2.91569 30.2969 2.38525C30.2969 1.85482 30.0862 1.34611 29.7111 0.97104C29.336 0.595968 28.8273 0.385254 28.2969 0.385254L10.2129 0.385254C7.5617 0.38843 5.02001 1.44302 3.14533 3.31769C1.27065 5.19237 0.216066 7.73406 0.212891 10.3853L0.212891 38.3853C0.216066 41.0364 1.27065 43.5781 3.14533 45.4528C5.02001 47.3275 7.5617 48.3821 10.2129 48.3853H32.8989C34.2127 48.389 35.5142 48.1322 36.7282 47.6296C37.9421 47.127 39.0442 46.3886 39.9709 45.4573L45.2829 40.1413C46.2144 39.215 46.953 38.1132 47.4559 36.8997C47.9588 35.6861 48.2161 34.3849 48.2129 33.0713V20.3433C48.2129 19.8128 48.0022 19.3041 47.6271 18.929C47.252 18.554 46.7433 18.3433 46.2129 18.3433ZM37.1429 42.6293C36.3389 43.4313 35.3222 43.9865 34.2129 44.2293V36.3853C34.2129 35.8548 34.4236 35.3461 34.7987 34.971C35.1738 34.596 35.6825 34.3853 36.2129 34.3853H44.0629C43.8155 35.4923 43.2609 36.5071 42.4629 37.3133L37.1429 42.6293Z" fill="#15121D"/>
</g>
<defs>
<clipPath id="clip0_304_4619">
<rect width="48" height="48" fill="white" transform="translate(0.212891 0.385254)"/>
</clipPath>
</defs>
</svg>
