<svg width="49" height="49" viewBox="0 0 49 49" fill="none" xmlns="http://www.w3.org/2000/svg">
<g clip-path="url(#clip0_305_52)">
<path d="M38.457 2.38525H10.457C7.80584 2.38843 5.26415 3.44302 3.38947 5.31769C1.5148 7.19237 0.460207 9.73406 0.457031 12.3853L0.457031 36.3853C0.460207 39.0364 1.5148 41.5781 3.38947 43.4528C5.26415 45.3275 7.80584 46.3821 10.457 46.3853H38.457C41.1082 46.3821 43.6499 45.3275 45.5246 43.4528C47.3993 41.5781 48.4539 39.0364 48.457 36.3853V12.3853C48.4539 9.73406 47.3993 7.19237 45.5246 5.31769C43.6499 3.44302 41.1082 2.38843 38.457 2.38525ZM10.457 6.38525H38.457C39.6546 6.38761 40.8241 6.74828 41.8149 7.42086C42.8058 8.09344 43.5727 9.04715 44.017 10.1593L28.701 25.4773C27.5739 26.5999 26.0479 27.2302 24.457 27.2302C22.8662 27.2302 21.3402 26.5999 20.213 25.4773L4.89703 10.1593C5.34133 9.04715 6.10826 8.09344 7.09913 7.42086C8.08999 6.74828 9.25946 6.38761 10.457 6.38525ZM38.457 42.3853H10.457C8.86573 42.3853 7.33961 41.7531 6.21439 40.6279C5.08917 39.5027 4.45703 37.9766 4.45703 36.3853V15.3853L17.385 28.3053C19.2623 30.1778 21.8055 31.2293 24.457 31.2293C27.1085 31.2293 29.6518 30.1778 31.529 28.3053L44.457 15.3853V36.3853C44.457 37.9766 43.8249 39.5027 42.6997 40.6279C41.5745 41.7531 40.0483 42.3853 38.457 42.3853Z" fill="#15121D"/>
</g>
<defs>
<clipPath id="clip0_305_52">
<rect width="48" height="48" fill="white" transform="translate(0.457031 0.385254)"/>
</clipPath>
</defs>
</svg>
