<svg width="41" height="40" viewBox="0 0 41 40" fill="none" xmlns="http://www.w3.org/2000/svg">
<path d="M37.7229 27.1668L24.9396 5.96681C24.4226 5.15817 23.7105 4.49268 22.8687 4.0317C22.0269 3.57073 21.0826 3.3291 20.1229 3.3291C19.1632 3.3291 18.2189 3.57073 17.3771 4.0317C16.5353 4.49268 15.8231 5.15817 15.3062 5.96681L2.52289 27.1668C2.07131 27.9196 1.82587 28.7779 1.81124 29.6556C1.79661 30.5333 2.01331 31.3994 2.43955 32.1668C2.93235 33.0306 3.64565 33.748 4.50656 34.2458C5.36746 34.7436 6.3451 35.0039 7.33955 35.0001H32.9062C33.8941 35.0107 34.8674 34.7604 35.7277 34.2747C36.588 33.7889 37.305 33.0848 37.8062 32.2335C38.245 31.4581 38.4686 30.5796 38.4539 29.6888C38.4393 28.798 38.1869 27.9273 37.7229 27.1668ZM34.8896 30.5835C34.6892 30.9278 34.3986 31.2108 34.049 31.4017C33.6994 31.5927 33.3042 31.6843 32.9062 31.6668H7.33955C6.94159 31.6843 6.54641 31.5927 6.19682 31.4017C5.84722 31.2108 5.55653 30.9278 5.35622 30.5835C5.20994 30.3301 5.13293 30.0427 5.13293 29.7501C5.13293 29.4576 5.20994 29.1702 5.35622 28.9168L18.1562 7.70014C18.3862 7.39632 18.6835 7.14992 19.0247 6.98026C19.3659 6.81061 19.7418 6.72232 20.1229 6.72232C20.504 6.72232 20.8798 6.81061 21.2211 6.98026C21.5623 7.14992 21.8595 7.39632 22.0896 7.70014L34.8729 28.9001C35.0248 29.154 35.1064 29.4437 35.1094 29.7395C35.1123 30.0354 35.0364 30.3267 34.8896 30.5835Z" fill="#15121D"/>
<path d="M20.1227 28.3333C21.0432 28.3333 21.7894 27.5871 21.7894 26.6667C21.7894 25.7462 21.0432 25 20.1227 25C19.2022 25 18.4561 25.7462 18.4561 26.6667C18.4561 27.5871 19.2022 28.3333 20.1227 28.3333Z" fill="#15121D"/>
<path d="M20.1227 13.3335C19.6807 13.3335 19.2568 13.5091 18.9442 13.8217C18.6316 14.1342 18.4561 14.5581 18.4561 15.0002V21.6668C18.4561 22.1089 18.6316 22.5328 18.9442 22.8453C19.2568 23.1579 19.6807 23.3335 20.1227 23.3335C20.5647 23.3335 20.9887 23.1579 21.3012 22.8453C21.6138 22.5328 21.7894 22.1089 21.7894 21.6668V15.0002C21.7894 14.5581 21.6138 14.1342 21.3012 13.8217C20.9887 13.5091 20.5647 13.3335 20.1227 13.3335Z" fill="#15121D"/>
</svg>
