<svg width="41" height="41" viewBox="0 0 41 41" fill="none" xmlns="http://www.w3.org/2000/svg">
<g clip-path="url(#clip0_314_4390)">
<path d="M38.0712 15.6721L31.6062 9.20711C31.2919 8.90351 30.8709 8.73552 30.4339 8.73932C29.9969 8.74312 29.5789 8.9184 29.2699 9.22741C28.9608 9.53643 28.7856 9.95445 28.7818 10.3914C28.778 10.8284 28.946 11.2494 29.2496 11.5638L35.7146 18.0288C35.9066 18.2247 36.0745 18.4429 36.2146 18.6788C36.1896 18.6788 36.1696 18.6654 36.1446 18.6654L10.0046 18.7188C9.56253 18.7188 9.13861 18.8944 8.82605 19.2069C8.51349 19.5195 8.33789 19.9434 8.33789 20.3854C8.33789 20.8275 8.51349 21.2514 8.82605 21.564C9.13861 21.8765 9.56253 22.0521 10.0046 22.0521L36.1346 21.9988C36.1812 21.9988 36.2196 21.9754 36.2646 21.9721C36.1167 22.254 35.9293 22.5133 35.7079 22.7421L29.2429 29.2071C29.0837 29.3609 28.9567 29.5448 28.8694 29.7481C28.782 29.9514 28.7361 30.1701 28.7341 30.3914C28.7322 30.6127 28.7744 30.8322 28.8582 31.037C28.942 31.2419 29.0657 31.4279 29.2222 31.5844C29.3787 31.7409 29.5648 31.8647 29.7696 31.9485C29.9745 32.0323 30.1939 32.0745 30.4152 32.0725C30.6365 32.0706 30.8552 32.0246 31.0586 31.9373C31.2619 31.8499 31.4458 31.723 31.5996 31.5638L38.0646 25.0988C39.3144 23.8486 40.0165 22.1532 40.0165 20.3854C40.0165 18.6177 39.3144 16.9223 38.0646 15.6721H38.0712Z" fill="black"/>
<path d="M11.6891 37.0519H8.35579C7.02971 37.0519 5.75794 36.5251 4.82026 35.5875C3.88258 34.6498 3.35579 33.378 3.35579 32.0519V8.71859C3.35579 7.3925 3.88258 6.12074 4.82026 5.18305C5.75794 4.24537 7.02971 3.71859 8.35579 3.71859H11.6891C12.1312 3.71859 12.5551 3.54299 12.8676 3.23043C13.1802 2.91787 13.3558 2.49395 13.3558 2.05192C13.3558 1.60989 13.1802 1.18597 12.8676 0.873409C12.5551 0.560849 12.1312 0.385254 11.6891 0.385254L8.35579 0.385254C6.14647 0.3879 4.02839 1.26672 2.46616 2.82895C0.903931 4.39118 0.0251074 6.50926 0.0224609 8.71859L0.0224609 32.0519C0.0251074 34.2612 0.903931 36.3793 2.46616 37.9416C4.02839 39.5038 6.14647 40.3826 8.35579 40.3853H11.6891C12.1312 40.3853 12.5551 40.2097 12.8676 39.8971C13.1802 39.5845 13.3558 39.1606 13.3558 38.7186C13.3558 38.2766 13.1802 37.8526 12.8676 37.5401C12.5551 37.2275 12.1312 37.0519 11.6891 37.0519Z" fill="black"/>
</g>
<defs>
<clipPath id="clip0_314_4390">
<rect width="40" height="40" fill="white" transform="translate(0.0224609 0.385254)"/>
</clipPath>
</defs>
</svg>
