<svg width="58" height="57" viewBox="0 0 58 57" fill="none" xmlns="http://www.w3.org/2000/svg">
<path fill-rule="evenodd" clip-rule="evenodd" d="M31.7089 14.3853L48.4158 19.6062V27.7822L42.8882 29.5816V21.8109L25.4961 16.2665L31.7089 14.3853Z" fill="#FFA826"/>
<path d="M32.504 14.3653L49.3185 19.7378C49.6811 19.8536 49.9272 20.1907 49.9272 20.5714V27.666C49.9272 28.0369 49.6933 28.3675 49.3436 28.491L47.7002 29.0715C47.2446 29.2324 46.7447 28.9935 46.5838 28.5378C46.4228 28.0821 46.6618 27.5823 47.1174 27.4213L48.1772 27.0471V21.2103L29.4525 15.2275C28.6497 14.971 28.6381 13.8391 29.4354 13.5662L35.5956 11.4573C35.7725 11.3968 35.9641 11.3944 36.1424 11.4507L55.7424 17.6354C56.1065 17.7503 56.354 18.088 56.354 18.4698V39.8073C56.354 40.1889 56.1068 40.5265 55.7429 40.6416L36.1429 46.8418C35.9701 46.8965 35.7847 46.896 35.6121 46.8408L16.2565 40.6406C15.8942 40.5246 15.6484 40.1878 15.6484 39.8073V36.9193C15.6484 36.4361 16.0401 36.0443 16.5234 36.0443C17.0066 36.0443 17.3984 36.4361 17.3984 36.9193V39.1688L35.8807 45.0892L54.604 39.1664V19.1112L35.8902 13.2062L32.504 14.3653Z" fill="#424750"/>
<path d="M55.2158 17.7509C55.6766 17.6052 56.1682 17.8605 56.3139 18.3213C56.4597 18.782 56.2043 19.2737 55.7436 19.4195L36.1436 25.6196C35.9714 25.6741 35.7866 25.674 35.6146 25.6192L20.657 20.8624C20.1964 20.716 19.9418 20.2239 20.0882 19.7634C20.2348 19.303 20.7268 19.0484 21.1873 19.1948L35.8804 23.8675L55.2158 17.7509Z" fill="#424750"/>
<path d="M44.6133 28.1978C45.0721 28.0463 45.5669 28.2954 45.7185 28.7543C45.87 29.2132 45.6209 29.708 45.1621 29.8596L43.0043 30.5722C42.4382 30.7592 41.8548 30.3375 41.8548 29.7413V23.2857L23.1302 17.3028C22.3231 17.0449 22.3171 15.9051 23.1214 15.6387L30.4718 13.2048C30.9305 13.0528 31.4256 13.3016 31.5775 13.7604C31.7294 14.2191 31.4806 14.7142 31.0218 14.8661L26.2249 16.4545L42.9962 21.8132C43.3587 21.929 43.6048 22.266 43.6048 22.6467V28.5308L44.6133 28.1978Z" fill="#424750"/>
<path d="M17.3936 19.2645V23.4808C17.3936 23.9639 17.0018 24.3557 16.5185 24.3557C16.0353 24.3557 15.6436 23.9639 15.6436 23.4808V18.6221C15.6436 18.2398 15.8917 17.9018 16.2564 17.7872L23.2085 15.6044C23.6696 15.4596 24.1607 15.7161 24.3055 16.1771C24.4503 16.6381 24.1938 17.1292 23.7329 17.274L17.3936 19.2645Z" fill="#424750"/>
<path d="M24.7837 25.4102C25.267 25.4102 25.6588 25.8018 25.6588 26.2851C25.6588 26.7684 25.267 27.1602 24.7837 27.1602H9.0459C8.56265 27.1602 8.1709 26.7684 8.1709 26.2851C8.1709 25.8018 8.56265 25.4102 9.0459 25.4102H24.7837Z" fill="#9773FF"/>
<path d="M16.0334 29.2603C16.5166 29.2603 16.9084 29.6519 16.9084 30.1352C16.9084 30.6185 16.5166 31.0102 16.0334 31.0102H2.39551C1.91226 31.0102 1.52051 30.6185 1.52051 30.1352C1.52051 29.6519 1.91226 29.2603 2.39551 29.2603H16.0334Z" fill="#9773FF"/>
<path d="M6.4209 27.1602C6.90415 27.1602 7.2959 26.7684 7.2959 26.2852C7.2959 25.8019 6.90415 25.4102 6.4209 25.4102C5.93765 25.4102 5.5459 25.8019 5.5459 26.2852C5.5459 26.7684 5.93765 27.1602 6.4209 27.1602Z" fill="#9773FF"/>
<path d="M8.87109 34.8604C9.35434 34.8604 9.74609 34.4686 9.74609 33.9854C9.74609 33.5021 9.35434 33.1104 8.87109 33.1104C8.38784 33.1104 7.99609 33.5021 7.99609 33.9854C7.99609 34.4686 8.38784 34.8604 8.87109 34.8604Z" fill="#9773FF"/>
<path d="M20.234 33.1104C20.7172 33.1104 21.109 33.5021 21.109 33.9854C21.109 34.4687 20.7172 34.8603 20.234 34.8603H11.4961C11.0128 34.8603 10.6211 34.4687 10.6211 33.9854C10.6211 33.5021 11.0128 33.1104 11.4961 33.1104H20.234Z" fill="#9773FF"/>
<path d="M28.9835 10.0103C29.4668 10.0103 29.8586 10.402 29.8586 10.8853C29.8586 11.3685 29.4668 11.7603 28.9835 11.7603H15.3457C14.8625 11.7603 14.4707 11.3685 14.4707 10.8853C14.4707 10.402 14.8625 10.0103 15.3457 10.0103H28.9835Z" fill="#9773FF"/>
<path d="M15.3342 14.21C15.8174 14.21 16.2091 14.6018 16.2091 15.085C16.2091 15.5683 15.8174 15.96 15.3342 15.96H8.69629C8.21303 15.96 7.82129 15.5683 7.82129 15.085C7.82129 14.6018 8.21303 14.21 8.69629 14.21H15.3342Z" fill="#9773FF"/>
<path d="M36.8711 45.929C36.8711 46.4122 36.4793 46.8039 35.9961 46.8039C35.5129 46.8039 35.1211 46.4122 35.1211 45.929V41.6011C35.1211 41.1179 35.5129 40.7261 35.9961 40.7261C36.4793 40.7261 36.8711 41.1179 36.8711 41.6011V45.929Z" fill="#424750"/>
<path d="M36.8711 38.0848C36.8711 38.5681 36.4793 38.9599 35.9961 38.9599C35.5129 38.9599 35.1211 38.5681 35.1211 38.0848V25.585C35.1211 25.1018 35.5129 24.71 35.9961 24.71C36.4793 24.71 36.8711 25.1018 36.8711 25.585V38.0848Z" fill="#424750"/>
</svg>
