<svg width="49" height="49" viewBox="0 0 49 49" fill="none" xmlns="http://www.w3.org/2000/svg">
<path d="M39.8047 29.6353C39.8047 28.4418 39.3306 27.2972 38.4867 26.4533C37.6428 25.6094 36.4982 25.1353 35.3047 25.1353H14.3047C13.1112 25.1353 11.9666 25.6094 11.1227 26.4533C10.2788 27.2972 9.80469 28.4418 9.80469 29.6353V31.1353C9.80469 37.0483 15.3847 43.1353 24.8047 43.1353C34.2247 43.1353 39.8047 37.0483 39.8047 31.1353V29.6353ZM12.8047 29.6353C12.8047 29.2375 12.9627 28.8559 13.244 28.5746C13.5253 28.2933 13.9069 28.1353 14.3047 28.1353H35.3047C35.7025 28.1353 36.084 28.2933 36.3653 28.5746C36.6467 28.8559 36.8047 29.2375 36.8047 29.6353V31.1353C36.8047 35.4493 32.5087 40.1353 24.8047 40.1353C17.1007 40.1353 12.8047 35.4493 12.8047 31.1353V29.6353ZM33.0547 13.8853C33.0548 12.1067 32.4801 10.3758 31.4164 8.95039C30.3526 7.52502 28.8567 6.48159 27.1516 5.97563C25.4465 5.46967 23.6236 5.52828 21.9546 6.14272C20.2855 6.75716 18.8597 7.89453 17.8897 9.38529H12.8047C12.4069 9.38529 12.0253 9.54333 11.744 9.82463C11.4627 10.1059 11.3047 10.4875 11.3047 10.8853V16.8853C11.3047 16.9333 11.3047 16.9783 11.3107 17.0233H11.3047V19.8853C11.3047 21.0788 11.7788 22.2234 12.6227 23.0673C13.4666 23.9112 14.6112 24.3853 15.8047 24.3853H16.9657C17.2749 24.3851 17.579 24.307 17.85 24.1581C18.1209 24.0092 18.35 23.7945 18.516 23.5336C18.682 23.2728 18.7795 22.9743 18.7996 22.6658C18.8197 22.3573 18.7617 22.0487 18.6309 21.7685C18.5002 21.4884 18.3009 21.2457 18.0515 21.0629C17.8021 20.8802 17.5107 20.7633 17.2042 20.723C16.8976 20.6827 16.5859 20.7203 16.2978 20.8324C16.0096 20.9445 15.7544 21.1274 15.5557 21.3643C15.206 21.3054 14.8884 21.1246 14.6594 20.8538C14.4304 20.5831 14.3047 20.2399 14.3047 19.8853V18.3853H15.0547C15.9457 18.3853 16.7767 18.1243 17.4757 17.6773C18.3248 19.3202 19.7013 20.6302 21.3842 21.3969C23.0672 22.1637 24.9589 22.3427 26.7558 21.9053C28.5527 21.468 30.1505 20.4395 31.2928 18.9851C32.4351 17.5307 33.0556 15.7347 33.0547 13.8853ZM19.5547 13.8853C19.5547 12.4929 20.1078 11.1575 21.0924 10.173C22.0769 9.18842 23.4123 8.63529 24.8047 8.63529C26.1971 8.63529 27.5324 9.18842 28.517 10.173C29.5016 11.1575 30.0547 12.4929 30.0547 13.8853C30.0547 15.2777 29.5016 16.613 28.517 17.5976C27.5324 18.5822 26.1971 19.1353 24.8047 19.1353C23.4123 19.1353 22.0769 18.5822 21.0924 17.5976C20.1078 16.613 19.5547 15.2777 19.5547 13.8853ZM16.5547 13.8853C16.5547 14.2831 16.3967 14.6646 16.1153 14.946C15.834 15.2273 15.4525 15.3853 15.0547 15.3853H14.3047V12.3853H16.5547V13.8853Z" fill="#15121D"/>
</svg>
