<svg width="41" height="40" viewBox="0 0 41 40" fill="none" xmlns="http://www.w3.org/2000/svg">
<path d="M20.2834 3.42997C20.4898 3.1717 20.7454 2.95694 21.0354 2.79811C21.3253 2.63929 21.6439 2.53955 21.9727 2.50467C22.3014 2.4698 22.6338 2.50048 22.9507 2.59493C23.2675 2.68939 23.5624 2.84575 23.8184 3.05497L31.9734 9.71497C32.4219 10.0811 32.7294 10.5916 32.8434 11.1593C32.9574 11.7269 32.8708 12.3165 32.5984 12.8275C31.8855 12.6096 31.144 12.4992 30.3984 12.5H29.6484L30.3934 11.65L26.0984 8.14247L22.5559 12.5025H19.3334L24.1609 6.56247L22.2359 4.98997L16.2409 12.5H13.0409L20.2834 3.42997ZM26.6484 25C26.3169 25 25.999 25.1317 25.7646 25.3661C25.5301 25.6005 25.3984 25.9184 25.3984 26.25C25.3984 26.5815 25.5301 26.8994 25.7646 27.1339C25.999 27.3683 26.3169 27.5 26.6484 27.5H29.1484C29.48 27.5 29.7979 27.3683 30.0323 27.1339C30.2667 26.8994 30.3984 26.5815 30.3984 26.25C30.3984 25.9184 30.2667 25.6005 30.0323 25.3661C29.7979 25.1317 29.48 25 29.1484 25H26.6484ZM7.89844 13.75C7.89844 13.4184 8.03013 13.1005 8.26455 12.8661C8.49897 12.6317 8.81692 12.5 9.14844 12.5H10.5434L12.5309 9.99997H9.14844C8.15388 9.99997 7.20005 10.3951 6.49679 11.0983C5.79353 11.8016 5.39844 12.7554 5.39844 13.75V28.75C5.39844 30.4076 6.05692 31.9973 7.22902 33.1694C8.40112 34.3415 9.99083 35 11.6484 35H30.3984C31.7245 35 32.9963 34.4732 33.934 33.5355C34.8717 32.5978 35.3984 31.3261 35.3984 30V20C35.3984 18.6739 34.8717 17.4021 33.934 16.4644C32.9963 15.5268 31.7245 15 30.3984 15H9.14844C8.81692 15 8.49897 14.8683 8.26455 14.6339C8.03013 14.3994 7.89844 14.0815 7.89844 13.75ZM7.89844 28.75V17.2875C8.28844 17.425 8.71094 17.5 9.14844 17.5H30.3984C31.0615 17.5 31.6974 17.7634 32.1662 18.2322C32.635 18.701 32.8984 19.3369 32.8984 20V30C32.8984 30.663 32.635 31.2989 32.1662 31.7677C31.6974 32.2366 31.0615 32.5 30.3984 32.5H11.6484C10.6539 32.5 9.70005 32.1049 8.99679 31.4016C8.29353 30.6984 7.89844 29.7445 7.89844 28.75Z" fill="#15121D"/>
</svg>
