<svg width="57" height="57" viewBox="0 0 57 57" fill="none" xmlns="http://www.w3.org/2000/svg">
<path d="M38.126 32.3853C37.7282 32.3853 37.3466 32.5433 37.0653 32.8246C36.784 33.1059 36.626 33.4874 36.626 33.8853C36.626 34.2831 36.784 34.6646 37.0653 34.9459C37.3466 35.2272 37.7282 35.3853 38.126 35.3853H43.126C43.5238 35.3853 43.9053 35.2272 44.1866 34.9459C44.4679 34.6646 44.626 34.2831 44.626 33.8853C44.626 33.4874 44.4679 33.1059 44.1866 32.8246C43.9053 32.5433 43.5238 32.3853 43.126 32.3853H38.126ZM6.62598 11.8853C6.62598 10.4266 7.20544 9.02762 8.23689 7.99617C9.26834 6.96472 10.6673 6.38525 12.126 6.38525H39.126C40.5847 6.38525 41.9836 6.96472 43.0151 7.99617C44.0465 9.02762 44.626 10.4266 44.626 11.8853V14.4013C46.5244 14.5281 48.3037 15.3718 49.6034 16.7613C50.9032 18.1509 51.6262 19.9826 51.626 21.8853V42.8853C51.626 44.8744 50.8358 46.782 49.4293 48.1886C48.0228 49.5951 46.1151 50.3853 44.126 50.3853H14.134C12.1449 50.3853 10.2372 49.5951 8.83068 48.1886C7.42416 46.782 6.63398 44.8744 6.63398 42.8853V21.8853H6.62598V12.3853H6.64798C6.63316 12.219 6.62582 12.0522 6.62598 11.8853ZM44.126 17.3853H9.63398V42.8853C9.63398 44.0787 10.1081 45.2233 10.952 46.0672C11.7959 46.9111 12.9405 47.3853 14.134 47.3853H44.126C45.3195 47.3853 46.4641 46.9111 47.308 46.0672C48.1519 45.2233 48.626 44.0787 48.626 42.8853V21.8853C48.626 20.6918 48.1519 19.5472 47.308 18.7033C46.4641 17.8594 45.3195 17.3853 44.126 17.3853ZM41.626 11.8853C41.626 10.5053 40.506 9.38525 39.126 9.38525H12.126C11.4629 9.38525 10.8271 9.64865 10.3582 10.1175C9.88937 10.5863 9.62598 11.2222 9.62598 11.8853C9.62598 12.5483 9.88937 13.1842 10.3582 13.653C10.8271 14.1219 11.4629 14.3853 12.126 14.3853H41.626V11.8853Z" fill="black"/>
</svg>
