<svg width="57" height="57" viewBox="0 0 57 57" fill="none" xmlns="http://www.w3.org/2000/svg">
<path d="M21.1951 13.2184C21.1957 15.1826 20.4882 17.0811 19.2026 18.5661C17.9169 20.051 16.1392 21.0228 14.1951 21.3034V35.3851C14.1951 37.2416 14.9326 39.0221 16.2454 40.3348C17.5582 41.6476 19.3386 42.3851 21.1951 42.3851H27.4718L25.2085 40.1218C25.0365 39.9615 24.8986 39.7683 24.803 39.5537C24.7073 39.339 24.6559 39.1073 24.6518 38.8723C24.6476 38.6373 24.6908 38.4039 24.7789 38.186C24.8669 37.9681 24.9979 37.7702 25.1641 37.604C25.3302 37.4378 25.5282 37.3068 25.7461 37.2188C25.964 37.1308 26.1974 37.0876 26.4324 37.0917C26.6673 37.0959 26.8991 37.1473 27.1137 37.2429C27.3284 37.3386 27.5216 37.4765 27.6818 37.6484L32.9318 42.8984C33.2595 43.2265 33.4436 43.6713 33.4436 44.1351C33.4436 44.5988 33.2595 45.0436 32.9318 45.3718L27.6818 50.6218C27.5216 50.7937 27.3284 50.9316 27.1137 51.0272C26.8991 51.1229 26.6673 51.1743 26.4324 51.1785C26.1974 51.1826 25.964 51.1394 25.7461 51.0514C25.5282 50.9634 25.3302 50.8324 25.1641 50.6662C24.9979 50.5 24.8669 50.3021 24.7789 50.0841C24.6908 49.8662 24.6476 49.6328 24.6518 49.3979C24.6559 49.1629 24.7073 48.9312 24.803 48.7165C24.8986 48.5018 25.0365 48.3086 25.2085 48.1484L27.4718 45.8851H21.1951C18.4104 45.8851 15.7397 44.7788 13.7705 42.8097C11.8014 40.8406 10.6951 38.1699 10.6951 35.3851V21.0468C8.81992 20.4816 7.21007 19.2616 6.15879 17.6092C5.1075 15.9567 4.68472 13.9816 4.96744 12.0435C5.25016 10.1055 6.21957 8.33345 7.69912 7.05016C9.17868 5.76686 11.0699 5.05768 13.0285 5.05176C15.1944 5.05176 17.2716 5.91217 18.8032 7.44372C20.3347 8.97527 21.1951 11.0525 21.1951 13.2184ZM17.6951 13.2184C17.6951 11.9807 17.2035 10.7938 16.3283 9.91859C15.4531 9.04342 14.2662 8.55176 13.0285 8.55176C11.7908 8.55176 10.6038 9.04342 9.72865 9.91859C8.85348 10.7938 8.36182 11.9807 8.36182 13.2184C8.36182 14.4561 8.85348 15.6431 9.72865 16.5183C10.6038 17.3934 11.7908 17.8851 13.0285 17.8851C14.2662 17.8851 15.4531 17.3934 16.3283 16.5183C17.2035 15.6431 17.6951 14.4561 17.6951 13.2184ZM51.5285 43.5518C51.5281 45.1171 51.0778 46.6493 50.2314 47.966C49.3849 49.2827 48.1778 50.3283 46.754 50.9785C45.3301 51.6287 43.7493 51.8559 42.1999 51.6333C40.6506 51.4106 39.1978 50.7473 38.0147 49.7224C36.8316 48.6975 35.9679 47.3542 35.5265 45.8524C35.0852 44.3506 35.0847 42.7536 35.5252 41.2516C35.9656 39.7495 36.8285 38.4057 38.011 37.3801C39.1935 36.3545 40.6459 35.6904 42.1951 35.4668V21.3851C42.1951 19.5286 41.4577 17.7481 40.1449 16.4353C38.8321 15.1226 37.0517 14.3851 35.1952 14.3851H30.6685L32.9318 16.6484C33.2409 16.9802 33.4092 17.4189 33.4012 17.8723C33.3932 18.3257 33.2096 18.7582 32.8889 19.0789C32.5683 19.3995 32.1357 19.5832 31.6824 19.5912C31.229 19.5992 30.7902 19.4309 30.4585 19.1218L25.2085 13.8718C24.8808 13.5436 24.6967 13.0988 24.6967 12.6351C24.6967 12.1713 24.8808 11.7265 25.2085 11.3984L30.4585 6.14842C30.6187 5.97649 30.8119 5.83858 31.0266 5.74294C31.2412 5.64729 31.473 5.59586 31.7079 5.59171C31.9429 5.58756 32.1763 5.63079 32.3942 5.7188C32.6121 5.80682 32.8101 5.93782 32.9762 6.104C33.1424 6.27018 33.2734 6.46812 33.3614 6.68603C33.4495 6.90394 33.4927 7.13734 33.4885 7.37231C33.4844 7.60728 33.433 7.83901 33.3373 8.05368C33.2417 8.26835 33.1038 8.46155 32.9318 8.62176L30.6685 10.8851H35.1952C37.9799 10.8851 40.6506 11.9913 42.6198 13.9605C44.5889 15.9296 45.6951 18.6003 45.6951 21.3851V35.7234C49.0691 36.7268 51.5285 39.8534 51.5285 43.5518ZM48.0285 43.5518C48.0285 42.3141 47.5368 41.1271 46.6616 40.2519C45.7865 39.3768 44.5995 38.8851 43.3618 38.8851C42.1241 38.8851 40.9372 39.3768 40.062 40.2519C39.1868 41.1271 38.6951 42.3141 38.6951 43.5518C38.6951 44.7894 39.1868 45.9764 40.062 46.8516C40.9372 47.7268 42.1241 48.2184 43.3618 48.2184C44.5995 48.2184 45.7865 47.7268 46.6616 46.8516C47.5368 45.9764 48.0285 44.7894 48.0285 43.5518Z" fill="#15121D"/>
</svg>
