<svg width="49" height="49" viewBox="0 0 49 49" fill="none" xmlns="http://www.w3.org/2000/svg">
<path d="M14.1854 15.0704L12.6062 19.808H20.1422V12.608H17.603C16.8469 12.6076 16.1099 12.8452 15.4965 13.2872C14.883 13.7292 14.4243 14.3531 14.1854 15.0704ZM11.8094 22.208L11.7998 22.232L11.1614 22.3904L10.8686 22.4624C10.0895 22.6573 9.39791 23.1071 8.90388 23.7403C8.40985 24.3735 8.14174 25.1537 8.14219 25.9568V30.008C8.14219 30.392 8.26219 30.752 8.47099 31.0448C8.902 29.8024 9.72906 28.736 10.8251 28.0094C11.9211 27.2827 13.2254 26.9361 14.5375 27.0228C15.8497 27.1095 17.097 27.6247 18.0879 28.4892C19.0788 29.3537 19.7584 30.5197 20.0222 31.808H29.8622C30.1243 30.5184 30.8031 29.3507 31.7941 28.4849C32.7851 27.619 34.0333 27.1029 35.3464 27.0162C36.6595 26.9294 37.9647 27.2768 39.061 28.0047C40.1573 28.7327 40.9839 29.8009 41.4134 31.0448C41.6279 30.7417 41.7428 30.3793 41.7422 30.008V27.0968C41.7425 26.3032 41.4805 25.5317 40.997 24.9023C40.5134 24.273 39.8355 23.821 39.0686 23.6168L33.7862 22.208H11.807H11.8094ZM31.8374 19.808L28.8638 14.4608C28.5524 13.8998 28.0967 13.4323 27.544 13.1065C26.9912 12.7808 26.3614 12.6086 25.7198 12.608H22.5422V19.808H31.8374ZM44.1422 30.008C44.1423 30.8132 43.9109 31.6015 43.4756 32.2789C43.0403 32.9563 42.4194 33.4943 41.687 33.8288C41.4948 35.233 40.8117 36.5238 39.7589 37.4725C38.706 38.4212 37.3513 38.9666 35.9347 39.0121C34.5182 39.0575 33.1313 38.6 32.0198 37.7207C30.9083 36.8414 30.144 35.597 29.8622 34.208H20.0222C19.7404 35.597 18.9761 36.8414 17.8646 37.7207C16.7531 38.6 15.3662 39.0575 13.9496 39.0121C12.5331 38.9666 11.1784 38.4212 10.1255 37.4725C9.07263 36.5238 8.38958 35.233 8.19739 33.8288C7.46495 33.4943 6.8441 32.9563 6.40881 32.2789C5.97351 31.6015 5.74212 30.8132 5.74219 30.008V25.9568C5.74214 24.6813 6.14858 23.4389 6.90253 22.4101C7.65648 21.3812 8.71869 20.6194 9.93499 20.2352L11.9102 14.3096C12.3086 13.115 13.0728 12.0761 14.0945 11.3399C15.1163 10.6038 16.3437 10.2078 17.603 10.208H25.7174C26.7877 10.2078 27.8385 10.4938 28.761 11.0365C29.6835 11.5792 30.4441 12.3588 30.9638 13.2944L34.6646 19.9592L39.6878 21.2984C40.9654 21.639 42.0948 22.3921 42.9003 23.4407C43.7058 24.4893 44.1424 25.7746 44.1422 27.0968V30.008ZM14.1422 29.408C13.1874 29.408 12.2717 29.7873 11.5966 30.4624C10.9215 31.1376 10.5422 32.0532 10.5422 33.008C10.5422 33.9628 10.9215 34.8785 11.5966 35.5536C12.2717 36.2287 13.1874 36.608 14.1422 36.608C15.097 36.608 16.0126 36.2287 16.6878 35.5536C17.3629 34.8785 17.7422 33.9628 17.7422 33.008C17.7422 32.0532 17.3629 31.1376 16.6878 30.4624C16.0126 29.7873 15.097 29.408 14.1422 29.408ZM35.7422 29.408C34.7874 29.408 33.8717 29.7873 33.1966 30.4624C32.5215 31.1376 32.1422 32.0532 32.1422 33.008C32.1422 33.9628 32.5215 34.8785 33.1966 35.5536C33.8717 36.2287 34.7874 36.608 35.7422 36.608C36.697 36.608 37.6126 36.2287 38.2878 35.5536C38.9629 34.8785 39.3422 33.9628 39.3422 33.008C39.3422 32.0532 38.9629 31.1376 38.2878 30.4624C37.6126 29.7873 36.697 29.408 35.7422 29.408Z" fill="#15121D"/>
</svg>
