<svg width="43" height="40" viewBox="0 0 43 40" fill="none" xmlns="http://www.w3.org/2000/svg">
<path d="M42.6541 0H0.548828V12.6316H2.65409V35.7895C2.65409 36.9062 3.0977 37.9771 3.88733 38.7668C4.67695 39.5564 5.74792 40 6.86462 40H36.3383C37.455 40 38.526 39.5564 39.3156 38.7668C40.1052 37.9771 40.5488 36.9062 40.5488 35.7895V12.6316H42.6541V0ZM4.75935 4.21053H38.4436V8.42105H4.75935V4.21053ZM36.3383 35.7895H6.86462V12.6316H36.3383V35.7895ZM15.2857 16.8421H27.9172C27.9172 17.9588 27.4736 19.0298 26.684 19.8194C25.8944 20.609 24.8234 21.0526 23.7067 21.0526H19.4962C18.3795 21.0526 17.3085 20.609 16.5189 19.8194C15.7293 19.0298 15.2857 17.9588 15.2857 16.8421Z" fill="#15121D"/>
</svg>
