<svg width="34" height="29" viewBox="0 0 34 29" fill="none" xmlns="http://www.w3.org/2000/svg">
<path d="M29.6017 14.6317V12.6381C29.6017 9.29636 28.2742 6.0915 25.9113 3.72854C23.5483 1.36558 20.3435 0.0380859 17.0017 0.0380859C13.66 0.0380859 10.4551 1.36558 8.09219 3.72854C5.72923 6.0915 4.40174 9.29636 4.40174 12.6381V14.6317C2.93336 15.2783 1.73166 16.4096 0.997808 17.8364C0.263957 19.2631 0.0425028 20.8987 0.370518 22.4692C0.698533 24.0398 1.55611 25.45 2.79968 26.4637C4.04324 27.4775 5.59732 28.0333 7.20174 28.0381C7.94434 28.0381 8.65653 27.7431 9.18164 27.218C9.70674 26.6929 10.0017 25.9807 10.0017 25.2381V16.8381C10.0017 16.0955 9.70674 15.3833 9.18164 14.8582C8.65653 14.3331 7.94434 14.0381 7.20174 14.0381V12.6381C7.20174 10.039 8.23423 7.5463 10.0721 5.70844C11.9099 3.87058 14.4026 2.83809 17.0017 2.83809C19.6009 2.83809 22.0935 3.87058 23.9314 5.70844C25.7692 7.5463 26.8017 10.039 26.8017 12.6381V14.0381C26.0591 14.0381 25.3469 14.3331 24.8218 14.8582C24.2967 15.3833 24.0017 16.0955 24.0017 16.8381V25.2381H19.8017C19.4304 25.2381 19.0743 25.3856 18.8118 25.6481C18.5492 25.9107 18.4017 26.2668 18.4017 26.6381C18.4017 27.0094 18.5492 27.3655 18.8118 27.628C19.0743 27.8906 19.4304 28.0381 19.8017 28.0381H26.8017C28.4062 28.0333 29.9602 27.4775 31.2038 26.4637C32.4474 25.45 33.3049 24.0398 33.633 22.4692C33.961 20.8987 33.7395 19.2631 33.0057 17.8364C32.2718 16.4096 31.0701 15.2783 29.6017 14.6317ZM7.20174 25.2381C6.08783 25.2381 5.01954 24.7956 4.23189 24.0079C3.44424 23.2203 3.00174 22.152 3.00174 21.0381C3.00174 19.9242 3.44424 18.8559 4.23189 18.0682C5.01954 17.2806 6.08783 16.8381 7.20174 16.8381V25.2381ZM26.8017 25.2381V16.8381C27.9156 16.8381 28.9839 17.2806 29.7716 18.0682C30.5592 18.8559 31.0017 19.9242 31.0017 21.0381C31.0017 22.152 30.5592 23.2203 29.7716 24.0079C28.9839 24.7956 27.9156 25.2381 26.8017 25.2381Z" fill="#15121D"/>
</svg>
