<svg width="49" height="49" viewBox="0 0 49 49" fill="none" xmlns="http://www.w3.org/2000/svg">
<path fill-rule="evenodd" clip-rule="evenodd" d="M14.4102 6.38525C13.8797 6.38525 13.371 6.59597 12.9959 6.97104C12.6209 7.34611 12.4102 7.85482 12.4102 8.38525V36.3853C12.4102 36.9157 12.6209 37.4244 12.9959 37.7995C13.371 38.1745 13.8797 38.3853 14.4102 38.3853H25.4102V40.3853H14.4102C13.3493 40.3853 12.3319 39.9638 11.5817 39.2137C10.8316 38.4635 10.4102 37.4461 10.4102 36.3853V8.38525C10.4102 7.32439 10.8316 6.30697 11.5817 5.55683C12.3319 4.80668 13.3493 4.38525 14.4102 4.38525H34.4102C35.471 4.38525 36.4884 4.80668 37.2386 5.55683C37.9887 6.30697 38.4102 7.32439 38.4102 8.38525V36.3853C38.4102 37.4461 37.9887 38.4635 37.2386 39.2137C36.4884 39.9638 35.471 40.3853 34.4102 40.3853H31.4102V38.3853H34.4102C34.9406 38.3853 35.4493 38.1745 35.8244 37.7995C36.1994 37.4244 36.4102 36.9157 36.4102 36.3853V8.38525C36.4102 7.85482 36.1994 7.34611 35.8244 6.97104C35.4493 6.59597 34.9406 6.38525 34.4102 6.38525H14.4102Z" fill="#15121D"/>
<path fill-rule="evenodd" clip-rule="evenodd" d="M18.4102 11.3853C18.4102 11.12 18.5155 10.8657 18.703 10.6781C18.8906 10.4906 19.1449 10.3853 19.4102 10.3853H29.4102C29.6754 10.3853 29.9297 10.4906 30.1173 10.6781C30.3048 10.8657 30.4102 11.12 30.4102 11.3853C30.4102 11.6505 30.3048 11.9048 30.1173 12.0924C29.9297 12.2799 29.6754 12.3853 29.4102 12.3853H19.4102C19.1449 12.3853 18.8906 12.2799 18.703 12.0924C18.5155 11.9048 18.4102 11.6505 18.4102 11.3853ZM14.4102 17.3853C14.4102 17.12 14.5155 16.8657 14.703 16.6781C14.8906 16.4906 15.1449 16.3853 15.4102 16.3853H33.4102C33.6754 16.3853 33.9297 16.4906 34.1173 16.6781C34.3048 16.8657 34.4102 17.12 34.4102 17.3853C34.4102 17.6505 34.3048 17.9048 34.1173 18.0924C33.9297 18.2799 33.6754 18.3853 33.4102 18.3853H15.4102C15.1449 18.3853 14.8906 18.2799 14.703 18.0924C14.5155 17.9048 14.4102 17.6505 14.4102 17.3853ZM14.4102 21.3853C14.4102 21.12 14.5155 20.8657 14.703 20.6781C14.8906 20.4906 15.1449 20.3853 15.4102 20.3853H33.4102C33.6754 20.3853 33.9297 20.4906 34.1173 20.6781C34.3048 20.8657 34.4102 21.12 34.4102 21.3853C34.4102 21.6505 34.3048 21.9048 34.1173 22.0924C33.9297 22.2799 33.6754 22.3853 33.4102 22.3853H15.4102C15.1449 22.3853 14.8906 22.2799 14.703 22.0924C14.5155 21.9048 14.4102 21.6505 14.4102 21.3853ZM14.4102 25.3853C14.4102 25.12 14.5155 24.8657 14.703 24.6781C14.8906 24.4906 15.1449 24.3853 15.4102 24.3853H33.4102C33.6754 24.3853 33.9297 24.4906 34.1173 24.6781C34.3048 24.8657 34.4102 25.12 34.4102 25.3853C34.4102 25.6505 34.3048 25.9048 34.1173 26.0924C33.9297 26.2799 33.6754 26.3853 33.4102 26.3853H15.4102C15.1449 26.3853 14.8906 26.2799 14.703 26.0924C14.5155 25.9048 14.4102 25.6505 14.4102 25.3853ZM28.4102 35.3853C28.9406 35.3853 29.4493 35.1745 29.8244 34.7995C30.1994 34.4244 30.4102 33.9157 30.4102 33.3853C30.4102 32.8548 30.1994 32.3461 29.8244 31.971C29.4493 31.596 28.9406 31.3853 28.4102 31.3853C27.8797 31.3853 27.371 31.596 26.9959 31.971C26.6209 32.3461 26.4102 32.8548 26.4102 33.3853C26.4102 33.9157 26.6209 34.4244 26.9959 34.7995C27.371 35.1745 27.8797 35.3853 28.4102 35.3853ZM28.4102 37.3853C29.471 37.3853 30.4884 36.9638 31.2386 36.2137C31.9887 35.4635 32.4102 34.4461 32.4102 33.3853C32.4102 32.3244 31.9887 31.307 31.2386 30.5568C30.4884 29.8067 29.471 29.3853 28.4102 29.3853C27.3493 29.3853 26.3319 29.8067 25.5817 30.5568C24.8316 31.307 24.4102 32.3244 24.4102 33.3853C24.4102 34.4461 24.8316 35.4635 25.5817 36.2137C26.3319 36.9638 27.3493 37.3853 28.4102 37.3853Z" fill="#15121D"/>
<path fill-rule="evenodd" clip-rule="evenodd" d="M27.4102 35.3853H25.4102V44.3853L28.4102 42.8853L31.4102 44.3853V35.3853H29.4102V41.1493L28.4102 40.6493L27.4102 41.1493V35.3853Z" fill="#15121D"/>
</svg>
