<svg width="43" height="40" viewBox="0 0 43 40" fill="none" xmlns="http://www.w3.org/2000/svg">
<path fill-rule="evenodd" clip-rule="evenodd" d="M21.3578 2.1314C24.693 0.0228052 29.1235 -0.559726 32.951 0.666871C41.2767 3.35184 43.8612 12.4282 41.5495 19.6504C37.9825 30.9933 22.7485 39.4544 22.1024 39.8092C21.8727 39.9364 21.6183 40 21.364 40C21.1096 40 20.8574 39.9385 20.6276 39.8133C19.9856 39.4626 4.86237 31.1267 1.17643 19.6524C1.17438 19.6524 1.17438 19.6504 1.17438 19.6504C-1.13933 12.4262 1.43693 3.34774 9.7544 0.666871C13.6598 -0.596647 17.916 -0.0407809 21.3578 2.1314ZM10.6979 3.59593C3.96807 5.76607 2.27791 13.0046 4.10549 18.713C6.98123 27.6602 18.3426 34.8947 21.3619 36.6853C24.3915 34.8762 35.835 27.5617 38.6184 18.7212C40.446 13.0067 38.7497 5.76812 32.0095 3.59593C28.7441 2.54779 24.9351 3.1857 22.3055 5.22046C21.7558 5.643 20.9927 5.6512 20.4389 5.23276C17.6534 3.13852 14.0147 2.52523 10.6979 3.59593ZM30.0404 7.66934C32.8362 8.5739 34.795 11.0497 35.035 13.9767C35.1027 14.8238 34.473 15.5663 33.6259 15.634C33.5828 15.6381 33.5418 15.6402 33.4987 15.6402C32.7049 15.6402 32.0321 15.031 31.9665 14.2269C31.8311 12.5409 30.7029 11.1173 29.0969 10.5984C28.2867 10.3359 27.8436 9.46821 28.1041 8.6621C28.3687 7.85395 29.2282 7.415 30.0404 7.66934Z" fill="#15121D"/>
</svg>
