<svg width="49" height="43" viewBox="0 0 49 43" fill="none" xmlns="http://www.w3.org/2000/svg">
<path d="M35.8163 0.219238C33.5642 0.254268 31.3612 0.882945 29.4298 2.04178C27.4985 3.20062 25.907 4.84858 24.8163 6.81924C23.7256 4.84858 22.1342 3.20062 20.2028 2.04178C18.2714 0.882945 16.0684 0.254268 13.8163 0.219238C10.2262 0.37522 6.84373 1.94575 4.40789 4.5877C1.97204 7.22966 0.680822 10.7283 0.816323 14.3192C0.816323 23.4132 10.3883 33.3452 18.4163 40.0792C20.2088 41.5855 22.475 42.4113 24.8163 42.4113C27.1576 42.4113 29.4239 41.5855 31.2163 40.0792C39.2443 33.3452 48.8163 23.4132 48.8163 14.3192C48.9518 10.7283 47.6606 7.22966 45.2248 4.5877C42.7889 1.94575 39.4064 0.37522 35.8163 0.219238ZM28.6463 37.0192C27.5743 37.922 26.2178 38.417 24.8163 38.417C23.4148 38.417 22.0584 37.922 20.9863 37.0192C10.7103 28.3972 4.81632 20.1252 4.81632 14.3192C4.6796 11.7887 5.54906 9.3067 7.23505 7.41464C8.92104 5.52258 11.2868 4.37394 13.8163 4.21924C16.3459 4.37394 18.7116 5.52258 20.3976 7.41464C22.0836 9.3067 22.953 11.7887 22.8163 14.3192C22.8163 14.8497 23.027 15.3584 23.4021 15.7335C23.7772 16.1085 24.2859 16.3192 24.8163 16.3192C25.3468 16.3192 25.8555 16.1085 26.2305 15.7335C26.6056 15.3584 26.8163 14.8497 26.8163 14.3192C26.6796 11.7887 27.5491 9.3067 29.235 7.41464C30.921 5.52258 33.2868 4.37394 35.8163 4.21924C38.3459 4.37394 40.7116 5.52258 42.3976 7.41464C44.0836 9.3067 44.953 11.7887 44.8163 14.3192C44.8163 20.1252 38.9223 28.3972 28.6463 37.0112V37.0192Z" fill="#15121D"/>
</svg>
