<svg width="28" height="29" viewBox="0 0 28 29" fill="none" xmlns="http://www.w3.org/2000/svg">
<path fill-rule="evenodd" clip-rule="evenodd" d="M16.1033 18.6454C17.6709 18.6454 18.9469 19.9123 18.9469 21.4695V25.4744C18.9469 25.809 19.2151 26.0773 19.5588 26.0851H22.0404C23.996 26.0851 25.5858 24.5149 25.5858 22.5853V11.2266C25.5767 10.5625 25.2603 9.93758 24.7174 9.52223L16.1332 2.67628C14.9809 1.76357 13.3691 1.76357 12.2129 2.67888L3.68733 9.51963C3.12356 9.94799 2.80718 10.573 2.80067 11.2487V22.5853C2.80067 24.5149 4.39042 26.0851 6.34603 26.0851H8.8511C9.20394 26.0851 9.49038 25.8051 9.49038 25.4614C9.49038 25.3859 9.49949 25.3104 9.51512 25.2388V21.4695C9.51512 19.9214 10.7833 18.6558 12.3392 18.6454H16.1033ZM22.0404 28.0381H19.5354C18.1006 28.0042 16.9938 26.878 16.9938 25.4744V21.4695C16.9938 20.989 16.5941 20.5984 16.1033 20.5984H12.3457C11.8652 20.601 11.4681 20.9929 11.4681 21.4695V25.4614C11.4681 25.5591 11.4551 25.6528 11.4278 25.7413C11.2872 27.0303 10.1857 28.0381 8.8511 28.0381H6.34603C3.31366 28.0381 0.847656 25.5916 0.847656 22.5853V11.2396C0.860676 9.94539 1.457 8.76056 2.48688 7.98066L10.9955 1.15163C12.8691 -0.33266 15.4796 -0.332661 17.3493 1.14902L25.9191 7.98456C26.9256 8.75145 27.5219 9.93367 27.5388 11.2122V22.5853C27.5388 25.5916 25.0728 28.0381 22.0404 28.0381Z" fill="#15121D"/>
</svg>
