<svg width="51" height="40" viewBox="0 0 51 40" fill="none" xmlns="http://www.w3.org/2000/svg">
<path d="M4.79004 16C2.57671 16 0.790039 17.7867 0.790039 20C0.790039 22.2133 2.57671 24 4.79004 24C7.00337 24 8.79004 22.2133 8.79004 20C8.79004 17.7867 7.00337 16 4.79004 16ZM4.79004 0C2.57671 0 0.790039 1.78667 0.790039 4C0.790039 6.21333 2.57671 8 4.79004 8C7.00337 8 8.79004 6.21333 8.79004 4C8.79004 1.78667 7.00337 0 4.79004 0ZM4.79004 32C2.57671 32 0.790039 33.8133 0.790039 36C0.790039 38.1867 2.60337 40 4.79004 40C6.97671 40 8.79004 38.1867 8.79004 36C8.79004 33.8133 7.00337 32 4.79004 32ZM15.4567 38.6667H47.4567C48.9234 38.6667 50.1234 37.4667 50.1234 36C50.1234 34.5333 48.9234 33.3333 47.4567 33.3333H15.4567C13.99 33.3333 12.79 34.5333 12.79 36C12.79 37.4667 13.99 38.6667 15.4567 38.6667ZM15.4567 22.6667H47.4567C48.9234 22.6667 50.1234 21.4667 50.1234 20C50.1234 18.5333 48.9234 17.3333 47.4567 17.3333H15.4567C13.99 17.3333 12.79 18.5333 12.79 20C12.79 21.4667 13.99 22.6667 15.4567 22.6667ZM12.79 4C12.79 5.46667 13.99 6.66667 15.4567 6.66667H47.4567C48.9234 6.66667 50.1234 5.46667 50.1234 4C50.1234 2.53333 48.9234 1.33333 47.4567 1.33333H15.4567C13.99 1.33333 12.79 2.53333 12.79 4Z" fill="#15121D"/>
</svg>
