<svg width="41" height="40" viewBox="0 0 41 40" fill="none" xmlns="http://www.w3.org/2000/svg">
<path fill-rule="evenodd" clip-rule="evenodd" d="M29.4932 0C36.2712 0 40.8252 4.756 40.8252 11.832V28.168C40.8252 35.244 36.2712 40 29.4892 40H12.1532C5.3772 40 0.825195 35.244 0.825195 28.168V11.832C0.825195 4.756 5.3772 0 12.1532 0H29.4932ZM29.4932 3H12.1532C7.0952 3 3.8252 6.466 3.8252 11.832V28.168C3.8252 33.534 7.0952 37 12.1532 37H29.4892C34.5532 37 37.8252 33.534 37.8252 28.168V11.832C37.8252 6.466 34.5532 3 29.4932 3ZM20.8132 18.5C21.6412 18.5 22.3132 19.172 22.3132 20V28C22.3132 28.828 21.6412 29.5 20.8132 29.5C19.9852 29.5 19.3132 28.828 19.3132 28V20C19.3132 19.172 19.9852 18.5 20.8132 18.5ZM20.823 10.4082C21.929 10.4082 22.823 11.3022 22.823 12.4082C22.823 13.5142 21.929 14.4082 20.823 14.4082C19.717 14.4082 18.813 13.5142 18.813 12.4082C18.813 11.3022 19.699 10.4082 20.803 10.4082H20.823Z" fill="#15121D"/>
</svg>
