<svg width="56" height="44" viewBox="0 0 56 44" fill="none" xmlns="http://www.w3.org/2000/svg">
<path d="M20.1064 12V7C20.1064 5.67392 20.6332 4.40215 21.5709 3.46447C22.5086 2.52678 23.7804 2 25.1064 2H49.1064C50.4325 2 51.7043 2.52678 52.642 3.46447C53.5797 4.40215 54.1064 5.67392 54.1064 7V37C54.1064 38.3261 53.5797 39.5979 52.642 40.5355C51.7043 41.4732 50.4325 42 49.1064 42H25.1064C23.7804 42 22.5086 41.4732 21.5709 40.5355C20.6332 39.5979 20.1064 38.3261 20.1064 37V32M12.1064 12L2.10645 22M2.10645 22L12.1064 32M2.10645 22H36.2314" stroke="#FF5E5E" stroke-width="3" stroke-linecap="round" stroke-linejoin="round"/>
</svg>
