<svg width="24" height="49" viewBox="0 0 24 49" fill="none" xmlns="http://www.w3.org/2000/svg">
<path d="M23.8888 3.3954C23.8881 4.19079 23.5715 4.95333 23.0088 5.5154L7.66477 20.8594C7.20033 21.3237 6.83192 21.875 6.58056 22.4817C6.32921 23.0884 6.19984 23.7387 6.19984 24.3954C6.19984 25.0521 6.32921 25.7024 6.58056 26.3091C6.83192 26.9158 7.20033 27.4671 7.66477 27.9314L22.9888 43.2554C23.5352 43.8212 23.8376 44.579 23.8308 45.3656C23.824 46.1522 23.5084 46.9046 22.9522 47.4609C22.396 48.0171 21.6436 48.3326 20.857 48.3394C20.0704 48.3463 19.3126 48.0439 18.7468 47.4974L3.42277 32.1854C1.3623 30.1209 0.205078 27.3232 0.205078 24.4064C0.205078 21.4896 1.3623 18.6919 3.42277 16.6274L18.7668 1.2734C19.1863 0.853572 19.721 0.567631 20.3031 0.451763C20.8852 0.335895 21.4887 0.395307 22.037 0.622482C22.5854 0.849657 23.054 1.23438 23.3836 1.72798C23.7132 2.22158 23.889 2.80186 23.8888 3.3954Z" fill="#15121D"/>
</svg>
