<svg width="47" height="51" viewBox="0 0 47 51" fill="none" xmlns="http://www.w3.org/2000/svg">
<path fill-rule="evenodd" clip-rule="evenodd" d="M33.2612 0.0380859C41.1567 0.0380859 46.4605 5.44492 46.4605 13.4911V36.585C46.4605 44.7016 41.3199 49.9803 33.3641 50.0305L14.0447 50.0381C6.14915 50.0381 0.842773 44.6313 0.842773 36.585V13.4911C0.842773 5.37209 5.98341 0.0958459 13.9392 0.0481311L33.2586 0.0380859H33.2612ZM33.2612 3.80504L13.9518 3.81508C8.10545 3.85024 4.60972 7.46651 4.60972 13.4911V36.585C4.60972 42.6498 8.1381 46.2711 14.0422 46.2711L33.3516 46.2636C39.1979 46.2284 42.6936 42.6071 42.6936 36.585V13.4911C42.6936 7.42633 39.1677 3.80504 33.2612 3.80504ZM32.7767 33.8746C33.8164 33.8746 34.6602 34.7184 34.6602 35.7581C34.6602 36.7978 33.8164 37.6415 32.7767 37.6415H14.6451C13.6055 37.6415 12.7617 36.7978 12.7617 35.7581C12.7617 34.7184 13.6055 33.8746 14.6451 33.8746H32.7767ZM32.7767 23.361C33.8164 23.361 34.6602 24.2048 34.6602 25.2445C34.6602 26.2842 33.8164 27.128 32.7767 27.128H14.6451C13.6055 27.128 12.7617 26.2842 12.7617 25.2445C12.7617 24.2048 13.6055 23.361 14.6451 23.361H32.7767ZM21.563 12.8718C22.6027 12.8718 23.4465 13.7156 23.4465 14.7553C23.4465 15.795 22.6027 16.6388 21.563 16.6388H14.6444C13.6047 16.6388 12.7609 15.795 12.7609 14.7553C12.7609 13.7156 13.6047 12.8718 14.6444 12.8718H21.563Z" fill="#15121D"/>
</svg>
