<svg width="49" height="49" viewBox="0 0 49 49" fill="currentColor" xmlns="http://www.w3.org/2000/svg">
<path d="M47.7378 44.9713L35.7998 33.0333C39.053 29.0545 40.6525 23.9775 40.2675 18.8524C39.8824 13.7274 37.5422 8.94637 33.731 5.49835C29.9197 2.05033 24.929 0.199091 19.7911 0.327554C14.6532 0.456018 9.76119 2.55435 6.12701 6.18853C2.49283 9.82271 0.394494 14.7147 0.266031 19.8526C0.137567 24.9905 1.9888 29.9812 5.43682 33.7925C8.88484 37.6037 13.6658 39.9439 18.7909 40.329C23.916 40.7141 28.993 39.1146 32.9718 35.8613L44.9098 47.7993C45.287 48.1636 45.7922 48.3652 46.3166 48.3607C46.841 48.3561 47.3426 48.1458 47.7134 47.7749C48.0842 47.4041 48.2946 46.9025 48.2991 46.3781C48.3037 45.8537 48.1021 45.3485 47.7378 44.9713ZM20.3238 36.3853C17.1593 36.3853 14.0658 35.4469 11.4347 33.6888C8.80347 31.9307 6.75271 29.4319 5.54171 26.5082C4.33071 23.5846 4.01385 20.3676 4.63122 17.2639C5.24858 14.1602 6.77243 11.3092 9.01007 9.0716C11.2477 6.83396 14.0986 5.3101 17.2023 4.69274C20.306 4.07538 23.5231 4.39223 26.4467 5.60323C29.3703 6.81424 31.8692 8.865 33.6273 11.4962C35.3854 14.1274 36.3238 17.2208 36.3238 20.3853C36.319 24.6273 34.6318 28.6942 31.6322 31.6938C28.6327 34.6933 24.5658 36.3805 20.3238 36.3853Z" fill="currentColor"/>
</svg>
