<svg width="57" height="57" viewBox="0 0 57 57" fill="none" xmlns="http://www.w3.org/2000/svg">
<g clip-path="url(#clip0_582_1942)">
<path d="M28.8333 14.3853C26.9874 14.3853 25.1829 14.9326 23.648 15.9582C22.1132 16.9838 20.9169 18.4414 20.2105 20.1469C19.504 21.8523 19.3192 23.7289 19.6793 25.5394C20.0395 27.3499 20.9284 29.013 22.2337 30.3183C23.539 31.6235 25.202 32.5125 27.0125 32.8726C28.823 33.2327 30.6996 33.0479 32.4051 32.3415C34.1105 31.635 35.5682 30.4388 36.5937 28.9039C37.6193 27.3691 38.1667 25.5645 38.1667 23.7186C38.1667 21.2432 37.1833 18.8693 35.433 17.1189C33.6827 15.3686 31.3087 14.3853 28.8333 14.3853ZM28.8333 28.3853C27.9104 28.3853 27.0081 28.1116 26.2407 27.5988C25.4732 27.086 24.8751 26.3572 24.5219 25.5044C24.1687 24.6517 24.0763 23.7134 24.2563 22.8082C24.4364 21.9029 24.8809 21.0714 25.5335 20.4188C26.1862 19.7661 27.0177 19.3217 27.9229 19.1416C28.8282 18.9615 29.7665 19.0539 30.6192 19.4071C31.4719 19.7604 32.2008 20.3585 32.7135 21.1259C33.2263 21.8934 33.5 22.7956 33.5 23.7186C33.5 24.9563 33.0083 26.1433 32.1332 27.0184C31.258 27.8936 30.071 28.3853 28.8333 28.3853Z" fill="#15121D"/>
<path d="M28.8328 56.385C26.868 56.3951 24.9294 55.9343 23.1792 55.0412C21.4291 54.148 19.9185 52.8486 18.7738 51.2517C9.88143 38.9854 5.37109 29.764 5.37109 23.842C5.37109 17.6196 7.84294 11.6521 12.2429 7.25213C16.6428 2.85222 22.6103 0.380371 28.8328 0.380371C35.0552 0.380371 41.0228 2.85222 45.4227 7.25213C49.8226 11.6521 52.2944 17.6196 52.2944 23.842C52.2944 29.764 47.7841 38.9854 38.8918 51.2517C37.747 52.8486 36.2364 54.148 34.4863 55.0412C32.7362 55.9343 30.7976 56.3951 28.8328 56.385ZM28.8328 5.47404C23.9617 5.4796 19.2918 7.41707 15.8475 10.8614C12.4031 14.3057 10.4657 18.9757 10.4601 23.8467C10.4601 28.5367 14.8771 37.2097 22.8944 48.2674C23.575 49.2049 24.468 49.9679 25.5001 50.494C26.5322 51.0201 27.6743 51.2944 28.8328 51.2944C29.9913 51.2944 31.1333 51.0201 32.1654 50.494C33.1976 49.9679 34.0905 49.2049 34.7711 48.2674C42.7884 37.2097 47.2054 28.5367 47.2054 23.8467C47.1999 18.9757 45.2624 14.3057 41.8181 10.8614C38.3737 7.41707 33.7038 5.4796 28.8328 5.47404Z" fill="#15121D"/>
</g>
<defs>
<clipPath id="clip0_582_1942">
<rect width="56" height="56" fill="white" transform="translate(0.833008 0.385254)"/>
</clipPath>
</defs>
</svg>
