<svg width="29" height="29" viewBox="0 0 29 29" fill="none" xmlns="http://www.w3.org/2000/svg">
<path fill-rule="evenodd" clip-rule="evenodd" d="M6.95022 15.833C12.7929 15.833 13.0528 17.8145 13.0528 21.9355C13.0528 24.0003 13.0528 25.4693 12.1855 26.5448C11.1876 27.7839 9.37114 28.0381 6.95022 28.0381C4.5293 28.0381 2.71289 27.7839 1.71494 26.5448C0.847656 25.4693 0.847656 24.0018 0.847656 21.9714L1.92458 21.9355H0.847656C0.847656 17.8145 1.10755 15.833 6.95022 15.833ZM22.7451 15.833C28.5878 15.833 28.8477 17.8145 28.8477 21.9355C28.8477 24.0003 28.8477 25.4693 27.9804 26.5448C26.9824 27.7839 25.166 28.0381 22.7451 28.0381C20.3242 28.0381 18.5078 27.7839 17.5098 26.5448C16.6425 25.4693 16.6425 24.0018 16.6425 21.9714L17.7195 21.9355H16.6425C16.6425 17.8145 16.9024 15.833 22.7451 15.833ZM7.24625 17.9874L6.95022 17.9868C3.204 17.9868 3.01189 18.2556 3.00203 21.4L3.00264 22.625C3.00944 23.8756 3.05709 24.779 3.39063 25.195C3.77114 25.666 4.90119 25.8842 6.95022 25.8842C8.99925 25.8842 10.1293 25.6645 10.5098 25.1936C10.8989 24.7097 10.8989 23.561 10.8989 21.97C10.8989 18.3799 10.8989 18.0043 7.24625 17.9874ZM23.0411 17.9874L22.7451 17.9868C18.9989 17.9868 18.8068 18.2556 18.7969 21.4L18.7975 22.625C18.8043 23.8756 18.852 24.779 19.1855 25.195C19.566 25.666 20.6961 25.8842 22.7451 25.8842C24.7941 25.8842 25.9242 25.6645 26.3047 25.1936C26.6938 24.7097 26.6938 23.561 26.6938 21.97C26.6938 18.3799 26.6938 18.0043 23.0411 17.9874ZM6.95022 0.0380859C12.7929 0.0380859 13.0528 2.01962 13.0528 6.14065C13.0528 8.20547 13.0528 9.67439 12.1855 10.7499C11.1876 11.9891 9.37114 12.2432 6.95022 12.2432C4.5293 12.2432 2.71289 11.9891 1.71494 10.7499C0.847656 9.67439 0.847656 8.20691 0.847656 6.17655L1.92458 6.14065H0.847656C0.847656 2.01962 1.10755 0.0380859 6.95022 0.0380859ZM22.7451 0.0380859C28.5878 0.0380859 28.8477 2.01962 28.8477 6.14065C28.8477 8.20547 28.8477 9.67439 27.9804 10.7499C26.9824 11.9891 25.166 12.2432 22.7451 12.2432C20.3242 12.2432 18.5078 11.9891 17.5098 10.7499C16.6425 9.67439 16.6425 8.20691 16.6425 6.17655L17.7195 6.14065H16.6425C16.6425 2.01962 16.9024 0.0380859 22.7451 0.0380859ZM7.24625 2.19257L6.95022 2.19193C3.204 2.19193 3.01189 2.46075 3.00203 5.60513L3.00264 6.83014C3.00944 8.08075 3.05709 8.98414 3.39063 9.40014C3.77114 9.87111 4.90119 10.0894 6.95022 10.0894C8.99925 10.0894 10.1293 9.86968 10.5098 9.3987C10.8989 8.9148 10.8989 7.76609 10.8989 6.17511C10.8989 2.58507 10.8989 2.20947 7.24625 2.19257ZM23.0411 2.19257L22.7451 2.19193C18.9989 2.19193 18.8068 2.46075 18.7969 5.60513L18.7975 6.83014C18.8043 8.08075 18.852 8.98414 19.1855 9.40014C19.566 9.87111 20.6961 10.0894 22.7451 10.0894C24.7941 10.0894 25.9242 9.86968 26.3047 9.3987C26.6938 8.9148 26.6938 7.76609 26.6938 6.17511C26.6938 2.58507 26.6938 2.20947 23.0411 2.19257Z" fill="#15121D"/>
</svg>
