<svg width="26" height="40" viewBox="0 0 26 40" fill="none" xmlns="http://www.w3.org/2000/svg">
<path d="M1.31738 16.25C1.6489 16.25 1.96685 16.3817 2.20127 16.6161C2.43569 16.8505 2.56738 17.1685 2.56738 17.5V20C2.56738 22.6522 3.62095 25.1957 5.49631 27.0711C7.37168 28.9464 9.91522 30 12.5674 30C15.2195 30 17.7631 28.9464 19.6385 27.0711C21.5138 25.1957 22.5674 22.6522 22.5674 20V17.5C22.5674 17.1685 22.6991 16.8505 22.9335 16.6161C23.1679 16.3817 23.4859 16.25 23.8174 16.25C24.1489 16.25 24.4668 16.3817 24.7013 16.6161C24.9357 16.8505 25.0674 17.1685 25.0674 17.5V20C25.0674 23.0988 23.9164 26.0872 21.8377 28.3854C19.7589 30.6835 16.9007 32.1276 13.8174 32.4375V37.5H21.3174C21.6489 37.5 21.9668 37.6317 22.2013 37.8661C22.4357 38.1005 22.5674 38.4185 22.5674 38.75C22.5674 39.0815 22.4357 39.3995 22.2013 39.6339C21.9668 39.8683 21.6489 40 21.3174 40H3.81738C3.48586 40 3.16792 39.8683 2.9335 39.6339C2.69908 39.3995 2.56738 39.0815 2.56738 38.75C2.56738 38.4185 2.69908 38.1005 2.9335 37.8661C3.16792 37.6317 3.48586 37.5 3.81738 37.5H11.3174V32.4375C8.23409 32.1276 5.37582 30.6835 3.29708 28.3854C1.21834 26.0872 0.0673439 23.0988 0.0673828 20V17.5C0.0673828 17.1685 0.199079 16.8505 0.4335 16.6161C0.66792 16.3817 0.985862 16.25 1.31738 16.25Z" fill="#15121D"/>
<path d="M17.5674 20C17.5674 21.3261 17.0406 22.5979 16.1029 23.5355C15.1652 24.4732 13.8935 25 12.5674 25C11.2413 25 9.96953 24.4732 9.03185 23.5355C8.09417 22.5979 7.56738 21.3261 7.56738 20V7.5C7.56738 6.17392 8.09417 4.90215 9.03185 3.96447C9.96953 3.02678 11.2413 2.5 12.5674 2.5C13.8935 2.5 15.1652 3.02678 16.1029 3.96447C17.0406 4.90215 17.5674 6.17392 17.5674 7.5V20ZM12.5674 0C10.5783 0 8.6706 0.790176 7.26408 2.1967C5.85756 3.60322 5.06738 5.51088 5.06738 7.5V20C5.06738 21.9891 5.85756 23.8968 7.26408 25.3033C8.6706 26.7098 10.5783 27.5 12.5674 27.5C14.5565 27.5 16.4642 26.7098 17.8707 25.3033C19.2772 23.8968 20.0674 21.9891 20.0674 20V7.5C20.0674 5.51088 19.2772 3.60322 17.8707 2.1967C16.4642 0.790176 14.5565 0 12.5674 0V0Z" fill="#15121D"/>
</svg>
