<svg width="57" height="57" viewBox="0 0 57 57" fill="none" xmlns="http://www.w3.org/2000/svg">
<path fill-rule="evenodd" clip-rule="evenodd" d="M43.6961 31.1555L43.6722 30.998C43.4963 29.8489 43.4828 29.406 43.6125 28.9252C43.7355 28.4702 43.965 28.1057 44.6794 27.2254C45.6453 26.0356 45.8878 25.5886 45.8877 24.885C45.8877 24.1818 45.6451 23.7347 44.6793 22.545L44.6017 22.4494C43.9704 21.6698 43.7304 21.2819 43.6125 20.8454C43.5234 20.515 43.5065 20.1306 43.5581 19.6135C43.5795 19.3995 43.605 19.2122 43.6723 18.7728C43.9001 17.2853 43.886 16.8038 43.5448 16.2202C43.2095 15.6464 42.7509 15.3614 41.4561 14.8615L41.3507 14.8208C40.268 14.4039 39.8775 14.1972 39.53 13.8533C39.1826 13.5093 38.9742 13.1232 38.5531 12.0516L38.5119 11.9469C38.0068 10.6652 37.7186 10.2106 37.1392 9.87887C36.5781 9.55741 36.0348 9.53512 34.6683 9.73748L34.5337 9.75764C34.1188 9.81983 33.9313 9.8448 33.7171 9.86581C33.1925 9.9173 32.8028 9.90062 32.4678 9.81202C32.0074 9.69022 31.6389 9.46289 30.7494 8.75547C29.5478 7.7997 29.0969 7.56006 28.3878 7.56006C27.7671 7.56006 27.2337 7.81716 26.371 8.48377C26.2867 8.54887 26.2044 8.61365 26.0264 8.75512C25.1367 9.46267 24.7682 9.69 24.3079 9.8118C23.8213 9.94046 23.3726 9.927 22.212 9.75283C20.7108 9.52744 20.2253 9.54135 19.6367 9.87846C19.0377 10.2215 18.777 10.6407 18.2229 12.0511C17.8019 13.1224 17.5933 13.5086 17.2458 13.8526C16.928 14.1672 16.5118 14.397 15.6681 14.7261C15.6038 14.7512 15.553 14.7709 15.4251 14.8201L15.3193 14.8609C14.0247 15.3608 13.5662 15.6458 13.2308 16.2195C12.9055 16.7761 12.883 17.3151 13.0876 18.6693L13.1078 18.8018C13.1706 19.2125 13.1958 19.398 13.2171 19.6098C13.269 20.1287 13.2521 20.5139 13.1629 20.8449C13.0392 21.3024 12.8065 21.6691 12.0477 22.6041C11.9483 22.7268 11.8853 22.8053 11.8226 22.8848C11.1478 23.7404 10.8877 24.2689 10.8877 24.885C10.8877 25.5004 11.1477 26.0293 11.8204 26.8825C11.8866 26.9665 11.9525 27.0484 12.0958 27.2251C12.8102 28.105 13.0399 28.4699 13.1627 28.925C13.252 29.2555 13.2689 29.6402 13.2172 30.1579C13.1957 30.3716 13.1703 30.5586 13.103 30.9976C12.8753 32.4848 12.8893 32.9664 13.2305 33.5501C13.5658 34.1238 14.0245 34.4088 15.3192 34.9087L15.4246 34.9494C16.5073 35.3663 16.8978 35.573 17.2454 35.917C17.5928 36.2609 17.8013 36.647 18.2222 37.7186L18.2635 37.8234C18.7687 39.1051 19.0569 39.5595 19.6362 39.8914C20.1974 40.2128 20.7407 40.2351 22.1076 40.0326L22.2426 40.0124C22.6582 39.9501 22.8462 39.9251 23.0607 39.9041C23.258 39.8848 23.4319 39.8753 23.5922 39.8753C23.8633 39.8753 24.0974 39.9025 24.3076 39.9581C24.768 40.0799 25.1365 40.3072 26.0259 41.0146C27.2277 41.9704 27.6785 42.2101 28.3877 42.2101C29.0968 42.2101 29.5476 41.9704 30.7492 41.0147L30.846 40.9379C31.6336 40.3127 32.0258 40.0751 32.4675 39.9582C32.9541 39.8295 33.4022 39.843 34.5634 40.0172C36.0646 40.2425 36.5501 40.2286 37.1388 39.8916C37.7377 39.5485 37.9985 39.1294 38.5526 37.7189C38.9735 36.6477 39.1821 36.2613 39.5296 35.9175C39.8772 35.5733 40.2675 35.3668 41.3502 34.9499L41.4561 34.909C42.7507 34.4092 43.2093 34.1242 43.5446 33.5505C43.8699 32.9938 43.8925 32.4549 43.6961 31.1555ZM44.0939 24.8853C44.0939 25.0338 43.8706 25.3849 43.2822 26.1097C42.3868 27.213 42.0834 27.7114 41.88 28.4649C41.6702 29.2416 41.6805 29.8392 41.9025 31.2892L41.9223 31.4193C42.0329 32.1521 42.0462 32.5668 41.9928 32.6583C41.9312 32.7637 41.5577 32.9607 40.8054 33.2511L40.7012 33.2913C39.3514 33.8109 38.8291 34.0972 38.2625 34.6581C37.6957 35.2191 37.4062 35.7368 36.8812 37.0729C36.5506 37.9145 36.3554 38.2857 36.2419 38.3508C36.1393 38.4096 35.7139 38.3905 34.8317 38.2581C33.3905 38.0417 32.7877 38.0321 32.0052 38.2392C31.2728 38.4329 30.7291 38.7521 29.7253 39.5487L29.6272 39.6267C28.8938 40.21 28.5393 40.4309 28.3877 40.4309C28.236 40.4309 27.8814 40.2099 27.1481 39.6266C26.0337 38.7404 25.5305 38.4403 24.7699 38.2391C24.4042 38.1422 24.0176 38.0962 23.5922 38.0962C23.371 38.0962 23.1397 38.1085 22.8846 38.1335C22.6302 38.1584 22.4195 38.1865 21.919 38.2616L21.7877 38.2812C21.0462 38.391 20.6266 38.4041 20.5332 38.3506C20.4263 38.2894 20.2277 37.9204 19.9342 37.1757L19.8935 37.0725C19.3685 35.7361 19.0793 35.2188 18.5126 34.6578C17.946 34.0968 17.4234 33.8104 16.0738 33.2909L15.9699 33.2508C15.2174 32.9602 14.844 32.7633 14.7823 32.6577C14.7234 32.557 14.7435 32.1327 14.881 31.2349C14.9493 30.7897 14.9773 30.5826 15.0021 30.3334C15.0753 29.6022 15.0451 29.0188 14.8954 28.4647C14.6909 27.7074 14.3852 27.2084 13.4457 26.051C13.3506 25.9337 13.291 25.8596 13.2334 25.7864C12.8647 25.3188 12.6814 25.0013 12.6814 24.885C12.6814 24.7686 12.8651 24.4504 13.2353 23.9811C13.2952 23.9053 13.3564 23.829 13.4934 23.6602C14.3886 22.557 14.692 22.0586 14.8955 21.3051C15.0453 20.7504 15.0754 20.1664 15.002 19.434C14.9768 19.1827 14.9485 18.9749 14.873 18.4808L14.8532 18.3508C14.7425 17.6179 14.7292 17.2032 14.7826 17.1117C14.8443 17.0063 15.2177 16.8094 15.97 16.5189L16.0742 16.4787C16.2049 16.4284 16.2574 16.4081 16.3248 16.3819C17.4145 15.9567 17.9906 15.6291 18.513 15.1118C19.0797 14.5508 19.3691 14.0333 19.8942 12.6972C20.2248 11.8555 20.42 11.4842 20.5336 11.4192C20.6362 11.3605 21.0614 11.3795 21.9437 11.5119C23.3841 11.7282 23.9875 11.7378 24.77 11.5309C25.5345 11.3287 26.038 11.0264 27.2076 10.0962C27.3254 10.0026 27.3998 9.9441 27.4732 9.88734C27.9474 9.52104 28.2687 9.33923 28.3878 9.33923C28.5394 9.33923 28.894 9.56021 29.6274 10.1435C30.7417 11.0297 31.2449 11.3298 32.0055 11.5311C32.5653 11.6791 33.1545 11.7089 33.8937 11.6363C34.1476 11.6114 34.3575 11.5834 34.857 11.5085L34.9884 11.4889C35.7294 11.3792 36.1488 11.3661 36.2422 11.4196C36.3492 11.4808 36.5477 11.8498 36.8412 12.5945L36.8819 12.6977C37.4069 14.0342 37.6961 14.5514 38.2629 15.1124C38.8295 15.6734 39.3518 15.9597 40.7015 16.4793L40.8054 16.5194C41.5579 16.81 41.9313 17.0069 41.993 17.1125C42.0519 17.2133 42.0318 17.6376 41.8943 18.5353C41.826 18.9812 41.7979 19.1886 41.773 19.4382C41.7001 20.1687 41.7303 20.7518 41.8799 21.3056C42.0758 22.0311 42.3984 22.5697 43.2033 23.5637L43.2821 23.6607C43.8706 24.3856 44.0939 24.7368 44.0939 24.8853Z" fill="#424750"/>
<path fill-rule="evenodd" clip-rule="evenodd" d="M28.7379 36.0853C34.8268 36.0853 39.7629 31.2276 39.7629 25.2353C39.7629 19.2429 34.8268 14.3853 28.7379 14.3853C22.649 14.3853 17.7129 19.2429 17.7129 25.2353C17.7129 31.2276 22.649 36.0853 28.7379 36.0853ZM35.518 18.7667C35.09 18.4583 34.491 18.5525 34.18 18.9769L26.4174 29.5748L22.7662 26.701C22.3519 26.3749 21.7493 26.4436 21.4205 26.8545C21.0917 27.2655 21.1609 27.8631 21.5753 28.1893L26.0094 31.6793C26.4363 32.0153 27.0595 31.9309 27.3797 31.4936L35.73 20.0936C36.0409 19.6692 35.946 19.075 35.518 18.7667Z" fill="#FFA826"/>
<path d="M28.7377 13.6851C29.1374 13.6851 29.4615 14.0043 29.4615 14.398C29.4615 14.7918 29.1374 15.111 28.7377 15.111C23.0616 15.111 18.4602 19.6437 18.4602 25.2351C18.4602 30.8265 23.0616 35.3591 28.7377 35.3591C34.4138 35.3591 39.0152 30.8265 39.0152 25.2351C39.0152 24.8413 39.3392 24.5221 39.7389 24.5221C40.1386 24.5221 40.4627 24.8413 40.4627 25.2351C40.4627 31.614 35.2132 36.7851 28.7377 36.7851C22.2622 36.7851 17.0127 31.614 17.0127 25.2351C17.0127 18.8561 22.2622 13.6851 28.7377 13.6851Z" fill="#424750"/>
<path d="M37.1237 41.4073C37.1237 40.9809 37.4794 40.6353 37.9182 40.6353C38.357 40.6353 38.7127 40.9809 38.7127 41.4073V48.6129C38.7127 49.1099 38.2365 49.4774 37.7383 49.3648L28.8073 47.3464L19.7345 49.3654C19.237 49.4761 18.7627 49.1089 18.7627 48.6129V43.8091C18.7627 43.3828 19.1184 43.0371 19.5572 43.0371C19.9959 43.0371 20.3516 43.3828 20.3516 43.8091V47.6441L28.6314 45.8016C28.749 45.7754 28.8712 45.7756 28.9887 45.8022L37.1237 47.6407V41.4073Z" fill="#9773FF"/>
<path d="M19.6377 40.6353C19.4076 40.6353 19.1819 40.7289 19.0191 40.8916C18.8563 41.0544 18.7627 41.2801 18.7627 41.5111C18.7627 41.7404 18.8563 41.9661 19.0191 42.1297C19.1819 42.2925 19.4076 42.3853 19.6377 42.3853C19.8679 42.3853 20.0936 42.2925 20.2563 42.1297C20.4191 41.9661 20.5127 41.7413 20.5127 41.5111C20.5127 41.2801 20.4191 41.0544 20.2563 40.8916C20.0936 40.7289 19.8679 40.6353 19.6377 40.6353Z" fill="#9773FF"/>
<path d="M31.538 13.6851C31.3079 13.6851 31.0822 13.7787 30.9194 13.9414C30.7567 14.1042 30.6631 14.33 30.6631 14.5609C30.6631 14.7902 30.7567 15.016 30.9194 15.1795C31.0822 15.3423 31.3079 15.4351 31.538 15.4351C31.7682 15.4351 31.9939 15.3423 32.1567 15.1795C32.3194 15.016 32.4131 14.7911 32.4131 14.5609C32.4131 14.33 32.3194 14.1042 32.1567 13.9414C31.9939 13.7787 31.7682 13.6851 31.538 13.6851Z" fill="#424750"/>
</svg>
