<svg width="35" height="40" viewBox="0 0 35 40" fill="none" xmlns="http://www.w3.org/2000/svg">
<path fill-rule="evenodd" clip-rule="evenodd" d="M22.4416 0C22.5281 0 22.6129 0.00728127 22.6954 0.0212638L22.971 0.0229545C23.3818 0.0229545 23.7744 0.190079 24.0603 0.486071L34.259 11.1116C34.5288 11.3915 34.6801 11.768 34.6801 12.1566V30.6128C34.716 35.6648 30.7816 39.7926 25.7215 39.998L9.57485 40H9.35537C4.42228 39.8885 0.465867 35.8988 0.345334 31.0139L0.344727 9.04165C0.461513 4.04603 4.58728 0.0229545 9.54666 0.0229545L22.1879 0.0212638C22.2704 0.00728127 22.3552 0 22.4416 0ZM20.9313 3.04248L9.55068 3.04328C6.21423 3.04328 3.44358 5.74547 3.36505 9.07789V30.6128C3.29055 34.062 6.00885 36.9032 9.42383 36.9797H25.6611C29.0217 36.8407 31.6836 34.0479 31.6596 30.6249L31.6595 14.0606L27.6124 14.0626C23.9276 14.0526 20.9315 11.0484 20.9315 7.36758L20.9313 3.04248ZM22.0655 25.3871C22.8991 25.3871 23.5757 26.0636 23.5757 26.8972C23.5757 27.7308 22.8991 28.4074 22.0655 28.4074H11.1923C10.3587 28.4074 9.68217 27.7308 9.68217 26.8972C9.68217 26.0636 10.3587 25.3871 11.1923 25.3871H22.0655ZM17.948 17.8322C18.7816 17.8322 19.4582 18.5088 19.4582 19.3424C19.4582 20.176 18.7816 20.8525 17.948 20.8525H11.1905C10.3569 20.8525 9.68036 20.176 9.68036 19.3424C9.68036 18.5088 10.3569 17.8322 11.1905 17.8322H17.948ZM23.9516 4.73587L23.9518 7.36758C23.9518 9.38919 25.5969 11.0363 27.6165 11.0423L30.0043 11.0403L23.9516 4.73587Z" fill="#15121D"/>
</svg>
