<svg width="41" height="40" viewBox="0 0 41 40" fill="none" xmlns="http://www.w3.org/2000/svg">
<path d="M37.7409 15.5C37.0624 14.8036 36.3659 14.0714 36.0981 13.4464C35.8302 12.8214 35.8481 11.8929 35.8302 10.9464C35.8124 9.21429 35.7766 7.23214 34.4016 5.85714C33.0266 4.48214 31.0445 4.44643 29.3124 4.42857C28.3659 4.41071 27.4016 4.39286 26.8124 4.16071C26.2231 3.92857 25.4552 3.19643 24.7588 2.51786C23.5266 1.33929 22.1159 0 20.2588 0C18.4016 0 16.9909 1.33929 15.7588 2.51786C15.0624 3.19643 14.3302 3.89286 13.7052 4.16071C13.0802 4.42857 12.1516 4.41071 11.2052 4.42857C9.47308 4.44643 7.49093 4.48214 6.11593 5.85714C4.74093 7.23214 4.70522 9.21429 4.68736 10.9464C4.6695 11.8929 4.65165 12.8571 4.4195 13.4464C4.18736 14.0357 3.45522 14.8036 2.77665 15.5C1.59807 16.7321 0.258789 18.1429 0.258789 20C0.258789 21.8571 1.59807 23.2679 2.77665 24.5C3.45522 25.1964 4.15165 25.9286 4.4195 26.5536C4.68736 27.1786 4.6695 28.1071 4.68736 29.0536C4.70522 30.7857 4.74093 32.7679 6.11593 34.1429C7.49093 35.5179 9.47308 35.5536 11.2052 35.5714C12.1516 35.5893 13.1159 35.6071 13.7052 35.8393C14.2945 36.0714 15.0624 36.8036 15.7588 37.4821C16.9909 38.6607 18.4016 40 20.2588 40C22.1159 40 23.5266 38.6607 24.7588 37.4821C25.4552 36.8036 26.1874 36.1071 26.8124 35.8393C27.4374 35.5714 28.3659 35.5893 29.3124 35.5714C31.0445 35.5536 33.0266 35.5179 34.4016 34.1429C35.7766 32.7679 35.8124 30.7857 35.8302 29.0536C35.8481 28.1071 35.8659 27.1429 36.0981 26.5536C36.3302 25.9643 37.0624 25.1964 37.7409 24.5C38.9195 23.2679 40.2588 21.8571 40.2588 20C40.2588 18.1429 38.9195 16.7321 37.7409 15.5ZM35.6695 22.5179C34.8124 23.4107 33.9374 24.3393 33.4552 25.4643C32.9731 26.5893 32.9909 27.8036 32.9731 29C32.9552 30.1964 32.9374 31.5714 32.3838 32.125C31.8302 32.6786 30.5266 32.6964 29.2588 32.7143C27.9909 32.7321 26.8124 32.75 25.7231 33.1964C24.6338 33.6429 23.6695 34.5536 22.7766 35.4107C21.8838 36.2679 20.9731 37.1429 20.2588 37.1429C19.5445 37.1429 18.6338 36.2679 17.7409 35.4107C16.8481 34.5536 15.9195 33.6786 14.7945 33.1964C13.6695 32.7143 12.4552 32.7321 11.2588 32.7143C10.0624 32.6964 8.68736 32.6786 8.13379 32.125C7.58022 31.5714 7.56236 30.2679 7.5445 29C7.52665 27.7321 7.50879 26.5536 7.06236 25.4643C6.61593 24.375 5.70522 23.4107 4.84807 22.5179C3.99093 21.625 3.11593 20.7143 3.11593 20C3.11593 19.2857 3.99093 18.375 4.84807 17.4821C5.70522 16.5893 6.58022 15.6607 7.06236 14.5357C7.5445 13.4107 7.52665 12.1964 7.5445 11C7.56236 9.80357 7.58022 8.42857 8.13379 7.875C8.68736 7.32143 9.99093 7.30357 11.2588 7.28571C12.5266 7.26786 13.7052 7.25 14.7945 6.80357C15.8838 6.35714 16.8481 5.44643 17.7409 4.58929C18.6338 3.73214 19.5445 2.85714 20.2588 2.85714C20.9731 2.85714 21.8838 3.73214 22.7766 4.58929C23.6695 5.44643 24.5981 6.32143 25.7231 6.80357C26.8481 7.28571 28.0624 7.26786 29.2588 7.28571C30.4552 7.30357 31.8302 7.32143 32.3838 7.875C32.9374 8.42857 32.9552 9.73214 32.9731 11C32.9909 12.2679 33.0088 13.4464 33.4552 14.5357C33.9016 15.625 34.8124 16.5893 35.6695 17.4821C36.5266 18.375 37.4016 19.2857 37.4016 20C37.4016 20.7143 36.5266 21.625 35.6695 22.5179ZM22.4016 29.2857C22.4016 29.7095 22.276 30.1238 22.0405 30.4762C21.805 30.8286 21.4704 31.1033 21.0788 31.2655C20.6873 31.4276 20.2564 31.4701 19.8407 31.3874C19.4251 31.3047 19.0432 31.1006 18.7436 30.8009C18.4439 30.5013 18.2398 30.1194 18.1571 29.7038C18.0744 29.2881 18.1169 28.8572 18.279 28.4657C18.4412 28.0741 18.7159 27.7395 19.0683 27.504C19.4207 27.2685 19.835 27.1429 20.2588 27.1429C20.8271 27.1429 21.3722 27.3686 21.774 27.7705C22.1759 28.1724 22.4016 28.7174 22.4016 29.2857ZM26.6874 16.4286C26.6874 17.8853 26.1926 19.2988 25.2842 20.4375C24.3758 21.5763 23.1076 22.3727 21.6874 22.6964V22.8571C21.6874 23.236 21.5369 23.5994 21.2689 23.8673C21.001 24.1352 20.6377 24.2857 20.2588 24.2857C19.8799 24.2857 19.5165 24.1352 19.2486 23.8673C18.9807 23.5994 18.8302 23.236 18.8302 22.8571V21.4286C18.8302 21.0497 18.9807 20.6863 19.2486 20.4184C19.5165 20.1505 19.8799 20 20.2588 20C20.9652 20 21.6557 19.7905 22.243 19.3981C22.8303 19.0057 23.288 18.4479 23.5584 17.7953C23.8287 17.1427 23.8994 16.4246 23.7616 15.7318C23.6238 15.039 23.2836 14.4027 22.7842 13.9032C22.2847 13.4037 21.6483 13.0636 20.9555 12.9258C20.2628 12.788 19.5447 12.8587 18.8921 13.129C18.2395 13.3993 17.6817 13.8571 17.2893 14.4444C16.8968 15.0317 16.6874 15.7222 16.6874 16.4286C16.6874 16.8075 16.5368 17.1708 16.2689 17.4387C16.001 17.7066 15.6377 17.8571 15.2588 17.8571C14.8799 17.8571 14.5165 17.7066 14.2486 17.4387C13.9807 17.1708 13.8302 16.8075 13.8302 16.4286C13.8302 14.7236 14.5075 13.0885 15.7131 11.8829C16.9187 10.6773 18.5538 10 20.2588 10C21.9638 10 23.5989 10.6773 24.8045 11.8829C26.0101 13.0885 26.6874 14.7236 26.6874 16.4286Z" fill="#15121D"/>
</svg>
