<svg width="49" height="49" viewBox="0 0 49 49" fill="currentColor" xmlns="http://www.w3.org/2000/svg">
<g clip-path="url(#clip0_305_39)">
<path d="M26.5859 2.38503C26.5859 1.8546 26.7966 1.34589 27.1717 0.970816C27.5468 0.595744 28.0555 0.38503 28.5859 0.38503C33.8885 0.390853 38.9721 2.49986 42.7216 6.24933C46.4711 9.99879 48.5801 15.0825 48.5859 20.385C48.5859 20.9155 48.3752 21.4242 48.0001 21.7992C47.625 22.1743 47.1163 22.385 46.5859 22.385C46.0555 22.385 45.5468 22.1743 45.1717 21.7992C44.7966 21.4242 44.5859 20.9155 44.5859 20.385C44.5811 16.143 42.8939 12.0761 39.8944 9.07658C36.8948 6.07703 32.8279 4.38979 28.5859 4.38503C28.0555 4.38503 27.5468 4.17432 27.1717 3.79924C26.7966 3.42417 26.5859 2.91546 26.5859 2.38503ZM28.5859 12.385C30.7076 12.385 32.7425 13.2279 34.2428 14.7282C35.743 16.2285 36.5859 18.2633 36.5859 20.385C36.5859 20.9155 36.7966 21.4242 37.1717 21.7992C37.5468 22.1743 38.0555 22.385 38.5859 22.385C39.1163 22.385 39.625 22.1743 40.0001 21.7992C40.3752 21.4242 40.5859 20.9155 40.5859 20.385C40.5827 17.2034 39.3174 14.153 37.0677 11.9033C34.8179 9.65351 31.7675 8.38821 28.5859 8.38503C28.0555 8.38503 27.5468 8.59575 27.1717 8.97082C26.7966 9.34589 26.5859 9.8546 26.5859 10.385C26.5859 10.9155 26.7966 11.4242 27.1717 11.7992C27.5468 12.1743 28.0555 12.385 28.5859 12.385ZM46.7719 33.863C47.9309 35.0253 48.5818 36.5997 48.5818 38.241C48.5818 39.8824 47.9309 41.4568 46.7719 42.619L44.9519 44.717C28.5719 60.399 -11.2881 20.549 4.15191 4.11703L6.45191 2.11703C7.61545 0.990384 9.17577 0.367128 10.7953 0.3821C12.4149 0.397071 13.9634 1.04907 15.1059 2.19703C15.1679 2.25903 18.8739 7.07303 18.8739 7.07303C19.9736 8.22829 20.5857 9.76289 20.5831 11.3578C20.5805 12.9528 19.9633 14.4854 18.8599 15.637L16.5439 18.549C17.8256 21.6633 19.71 24.4935 22.0889 26.8772C24.4678 29.2609 27.2943 31.1511 30.4059 32.439L33.3359 30.109C34.4877 29.0065 36.02 28.39 37.6145 28.3878C39.209 28.3856 40.743 28.9977 41.8979 30.097C41.8979 30.097 46.7099 33.801 46.7719 33.863ZM44.0199 36.771C44.0199 36.771 39.2339 33.089 39.1719 33.027C38.7599 32.6185 38.2031 32.3893 37.6229 32.3893C37.0427 32.3893 36.4859 32.6185 36.0739 33.027C36.0199 33.083 31.9859 36.297 31.9859 36.297C31.7141 36.5134 31.3905 36.6552 31.0472 36.7086C30.7039 36.7619 30.3526 36.7248 30.0279 36.601C25.9968 35.1002 22.3354 32.7505 19.2916 29.7112C16.2478 26.6719 13.8927 23.0139 12.3859 18.985C12.2523 18.6559 12.2087 18.2972 12.2597 17.9457C12.3107 17.5942 12.4543 17.2626 12.6759 16.985C12.6759 16.985 15.8899 12.949 15.9439 12.897C16.3524 12.485 16.5817 11.9283 16.5817 11.348C16.5817 10.7678 16.3524 10.2111 15.9439 9.79903C15.8819 9.73903 12.1999 4.94903 12.1999 4.94903C11.7817 4.57404 11.2359 4.37322 10.6744 4.38772C10.1129 4.40223 9.57819 4.63096 9.17991 5.02703L6.87991 7.02703C-4.40409 20.595 30.1379 53.221 42.0279 41.985L43.8499 39.885C44.2769 39.4896 44.5333 38.9436 44.565 38.3624C44.5968 37.7813 44.4013 37.2106 44.0199 36.771Z" fill="currentColor"/>
</g>
<defs>
<clipPath id="clip0_305_39">
<rect width="48" height="48" fill="" transform="translate(0.585938 0.385254)"/>
</clipPath>
</defs>
</svg>
