<svg width="41" height="40" viewBox="0 0 41 40" fill="none" xmlns="http://www.w3.org/2000/svg">
<g clip-path="url(#clip0_1253_17272)">
<path d="M18.752 1.66689C18.752 1.22486 18.5764 0.800936 18.2638 0.488376C17.9513 0.175815 17.5273 0.000220207 17.0853 0.000220207C12.6665 0.00507287 8.43011 1.76258 5.30556 4.88713C2.181 8.01169 0.423496 12.2481 0.418644 16.6669C0.418644 17.1089 0.594238 17.5328 0.906799 17.8454C1.21936 18.158 1.64328 18.3336 2.08531 18.3336C2.52734 18.3336 2.95126 18.158 3.26382 17.8454C3.57638 17.5328 3.75198 17.1089 3.75198 16.6669C3.75595 13.1319 5.16198 9.74281 7.66161 7.24318C10.1612 4.74356 13.5503 3.33752 17.0853 3.33355C17.5273 3.33355 17.9513 3.15796 18.2638 2.8454C18.5764 2.53284 18.752 2.10891 18.752 1.66689ZM17.0853 10.0002C15.3172 10.0002 13.6215 10.7026 12.3713 11.9528C11.121 13.2031 10.4186 14.8988 10.4186 16.6669C10.4186 17.1089 10.243 17.5328 9.93049 17.8454C9.61793 18.158 9.194 18.3336 8.75198 18.3336C8.30995 18.3336 7.88602 18.158 7.57346 17.8454C7.2609 17.5328 7.08531 17.1089 7.08531 16.6669C7.08796 14.0155 8.14238 11.4735 10.0172 9.59874C11.892 7.72395 14.434 6.66954 17.0853 6.66689C17.5273 6.66689 17.9513 6.84248 18.2638 7.15504C18.5764 7.4676 18.752 7.89153 18.752 8.33355C18.752 8.77558 18.5764 9.1995 18.2638 9.51207C17.9513 9.82463 17.5273 10.0002 17.0853 10.0002ZM1.93031 27.8986C0.964458 28.8671 0.422073 30.1791 0.422073 31.5469C0.422073 32.9147 0.964458 34.2267 1.93031 35.1952L3.44698 36.9436C17.097 50.0119 50.3136 16.8036 37.447 3.11022L35.5303 1.44355C34.5607 0.504682 33.2604 -0.014698 31.9108 -0.00222172C30.5612 0.0102545 29.2707 0.553584 28.3186 1.51022C28.267 1.56189 25.1786 5.57355 25.1786 5.57355C24.2623 6.53627 23.7521 7.8151 23.7543 9.14423C23.7565 10.4733 24.2708 11.7505 25.1903 12.7102L27.1203 15.1369C26.0522 17.7321 24.4819 20.0906 22.4995 22.077C20.5171 24.0635 18.1617 25.6386 15.5686 26.7119L13.127 24.7702C12.1671 23.8514 10.8902 23.3377 9.56148 23.3359C8.23276 23.334 6.95439 23.8441 5.99198 24.7602C5.99198 24.7602 1.98198 27.8469 1.93031 27.8986ZM4.22364 30.3219C4.22364 30.3219 8.21198 27.2536 8.26365 27.2019C8.607 26.8614 9.07095 26.6704 9.55448 26.6704C10.038 26.6704 10.502 26.8614 10.8453 27.2019C10.8903 27.2486 14.252 29.9269 14.252 29.9269C14.4785 30.1072 14.7481 30.2254 15.0342 30.2698C15.3203 30.3142 15.6131 30.2834 15.8836 30.1802C19.2429 28.9295 22.2941 26.9715 24.8306 24.4387C27.3671 21.9059 29.3296 18.8576 30.5853 15.5002C30.6966 15.226 30.7329 14.927 30.6905 14.6341C30.648 14.3412 30.5283 14.0649 30.3436 13.8336C30.3436 13.8336 27.6653 10.4702 27.6203 10.4269C27.2799 10.0835 27.0888 9.61958 27.0888 9.13605C27.0888 8.65253 27.2799 8.18858 27.6203 7.84522C27.672 7.79522 30.7403 3.80355 30.7403 3.80355C31.0888 3.49107 31.5436 3.32371 32.0116 3.3358C32.4795 3.34788 32.9251 3.53849 33.257 3.86855L35.1736 5.53522C44.577 16.8419 15.792 44.0302 5.88364 34.6669L4.36531 32.9169C4.00951 32.5873 3.7958 32.1323 3.76937 31.6481C3.74293 31.1638 3.90583 30.6882 4.22364 30.3219Z" fill="#15121D"/>
</g>
<defs>
<clipPath id="clip0_1253_17272">
<rect width="40" height="40" fill="white" transform="matrix(-1 0 0 1 40.4189 0)"/>
</clipPath>
</defs>
</svg>
