<svg width="37" height="41" viewBox="0 0 37 41" fill="none" xmlns="http://www.w3.org/2000/svg">
<path d="M30.2246 40.1157C28.5579 40.1157 27.1413 39.5324 25.9746 38.3657C24.8079 37.1991 24.2246 35.7824 24.2246 34.1157C24.2246 33.8824 24.2413 33.6404 24.2746 33.3897C24.3079 33.1404 24.3579 32.9157 24.4246 32.7157L10.3246 24.5157C9.75794 25.0157 9.12461 25.4071 8.42461 25.6897C7.72461 25.9737 6.99128 26.1157 6.22461 26.1157C4.55794 26.1157 3.14128 25.5324 1.97461 24.3657C0.807943 23.1991 0.224609 21.7824 0.224609 20.1157C0.224609 18.4491 0.807943 17.0324 1.97461 15.8657C3.14128 14.6991 4.55794 14.1157 6.22461 14.1157C6.99128 14.1157 7.72461 14.2571 8.42461 14.5397C9.12461 14.8237 9.75794 15.2157 10.3246 15.7157L24.4246 7.51572C24.3579 7.31572 24.3079 7.09106 24.2746 6.84172C24.2413 6.59106 24.2246 6.34906 24.2246 6.11572C24.2246 4.44906 24.8079 3.03239 25.9746 1.86572C27.1413 0.699056 28.5579 0.115723 30.2246 0.115723C31.8913 0.115723 33.3079 0.699056 34.4746 1.86572C35.6413 3.03239 36.2246 4.44906 36.2246 6.11572C36.2246 7.78239 35.6413 9.19906 34.4746 10.3657C33.3079 11.5324 31.8913 12.1157 30.2246 12.1157C29.4579 12.1157 28.7246 11.9737 28.0246 11.6897C27.3246 11.4071 26.6913 11.0157 26.1246 10.5157L12.0246 18.7157C12.0913 18.9157 12.1413 19.1404 12.1746 19.3897C12.2079 19.6404 12.2246 19.8824 12.2246 20.1157C12.2246 20.3491 12.2079 20.5904 12.1746 20.8397C12.1413 21.0904 12.0913 21.3157 12.0246 21.5157L26.1246 29.7157C26.6913 29.2157 27.3246 28.8237 28.0246 28.5397C28.7246 28.2571 29.4579 28.1157 30.2246 28.1157C31.8913 28.1157 33.3079 28.6991 34.4746 29.8657C35.6413 31.0324 36.2246 32.4491 36.2246 34.1157C36.2246 35.7824 35.6413 37.1991 34.4746 38.3657C33.3079 39.5324 31.8913 40.1157 30.2246 40.1157ZM30.2246 8.11572C30.7913 8.11572 31.2659 7.92439 31.6486 7.54172C32.0326 7.15772 32.2246 6.68239 32.2246 6.11572C32.2246 5.54906 32.0326 5.07372 31.6486 4.68972C31.2659 4.30706 30.7913 4.11572 30.2246 4.11572C29.6579 4.11572 29.1833 4.30706 28.8006 4.68972C28.4166 5.07372 28.2246 5.54906 28.2246 6.11572C28.2246 6.68239 28.4166 7.15772 28.8006 7.54172C29.1833 7.92439 29.6579 8.11572 30.2246 8.11572ZM6.22461 22.1157C6.79128 22.1157 7.26661 21.9237 7.65061 21.5397C8.03328 21.1571 8.22461 20.6824 8.22461 20.1157C8.22461 19.5491 8.03328 19.0737 7.65061 18.6897C7.26661 18.3071 6.79128 18.1157 6.22461 18.1157C5.65794 18.1157 5.18261 18.3071 4.79861 18.6897C4.41594 19.0737 4.22461 19.5491 4.22461 20.1157C4.22461 20.6824 4.41594 21.1571 4.79861 21.5397C5.18261 21.9237 5.65794 22.1157 6.22461 22.1157ZM30.2246 36.1157C30.7913 36.1157 31.2659 35.9237 31.6486 35.5397C32.0326 35.1571 32.2246 34.6824 32.2246 34.1157C32.2246 33.5491 32.0326 33.0744 31.6486 32.6917C31.2659 32.3077 30.7913 32.1157 30.2246 32.1157C29.6579 32.1157 29.1833 32.3077 28.8006 32.6917C28.4166 33.0744 28.2246 33.5491 28.2246 34.1157C28.2246 34.6824 28.4166 35.1571 28.8006 35.5397C29.1833 35.9237 29.6579 36.1157 30.2246 36.1157Z" fill="#15121D"/>
</svg>
