<svg width="33" height="32" viewBox="0 0 33 32" fill="none" xmlns="http://www.w3.org/2000/svg">
<g clip-path="url(#clip0_1253_17239)">
<path d="M31.1468 25.3335H28.4801V22.6668C28.4801 22.3132 28.3397 21.9741 28.0896 21.724C27.8396 21.474 27.5004 21.3335 27.1468 21.3335C26.7932 21.3335 26.454 21.474 26.204 21.724C25.954 21.9741 25.8135 22.3132 25.8135 22.6668V25.3335H23.1468C22.7932 25.3335 22.454 25.474 22.204 25.724C21.954 25.9741 21.8135 26.3132 21.8135 26.6668C21.8135 27.0205 21.954 27.3596 22.204 27.6096C22.454 27.8597 22.7932 28.0002 23.1468 28.0002H25.8135V30.6668C25.8135 31.0205 25.954 31.3596 26.204 31.6096C26.454 31.8597 26.7932 32.0002 27.1468 32.0002C27.5004 32.0002 27.8396 31.8597 28.0896 31.6096C28.3397 31.3596 28.4801 31.0205 28.4801 30.6668V28.0002H31.1468C31.5004 28.0002 31.8396 27.8597 32.0896 27.6096C32.3397 27.3596 32.4801 27.0205 32.4801 26.6668C32.4801 26.3132 32.3397 25.9741 32.0896 25.724C31.8396 25.474 31.5004 25.3335 31.1468 25.3335Z" fill="#15121D"/>
<path d="M28.4805 8H24.4805C24.4805 5.87827 23.6376 3.84344 22.1373 2.34315C20.637 0.842855 18.6022 0 16.4805 0C14.3587 0 12.3239 0.842855 10.8236 2.34315C9.32332 3.84344 8.48047 5.87827 8.48047 8H4.48047C3.4196 8 2.40219 8.42143 1.65204 9.17157C0.901896 9.92172 0.480469 10.9391 0.480469 12L0.480469 25.3333C0.482586 27.1008 1.18564 28.7953 2.43543 30.045C3.68521 31.2948 5.37968 31.9979 7.14714 32H19.1471C19.5008 32 19.8399 31.8595 20.0899 31.6095C20.34 31.3594 20.4805 31.0203 20.4805 30.6667C20.4805 30.313 20.34 29.9739 20.0899 29.7239C19.8399 29.4738 19.5008 29.3333 19.1471 29.3333H7.14714C6.08627 29.3333 5.06885 28.9119 4.31871 28.1618C3.56856 27.4116 3.14714 26.3942 3.14714 25.3333V12C3.14714 11.6464 3.28761 11.3072 3.53766 11.0572C3.78771 10.8071 4.12685 10.6667 4.48047 10.6667H8.48047V13.3333C8.48047 13.687 8.62094 14.0261 8.87099 14.2761C9.12104 14.5262 9.46018 14.6667 9.8138 14.6667C10.1674 14.6667 10.5066 14.5262 10.7566 14.2761C11.0067 14.0261 11.1471 13.687 11.1471 13.3333V10.6667H21.8138V13.3333C21.8138 13.687 21.9543 14.0261 22.2043 14.2761C22.4544 14.5262 22.7935 14.6667 23.1471 14.6667C23.5008 14.6667 23.8399 14.5262 24.0899 14.2761C24.34 14.0261 24.4805 13.687 24.4805 13.3333V10.6667H28.4805C28.8341 10.6667 29.1732 10.8071 29.4233 11.0572C29.6733 11.3072 29.8138 11.6464 29.8138 12V18.6667C29.8138 19.0203 29.9543 19.3594 30.2043 19.6095C30.4544 19.8595 30.7935 20 31.1471 20C31.5008 20 31.8399 19.8595 32.0899 19.6095C32.34 19.3594 32.4805 19.0203 32.4805 18.6667V12C32.4805 10.9391 32.059 9.92172 31.3089 9.17157C30.5588 8.42143 29.5413 8 28.4805 8ZM11.1471 8C11.1471 6.58551 11.709 5.22896 12.7092 4.22876C13.7094 3.22857 15.066 2.66667 16.4805 2.66667C17.895 2.66667 19.2515 3.22857 20.2517 4.22876C21.2519 5.22896 21.8138 6.58551 21.8138 8H11.1471Z" fill="#15121D"/>
</g>
<defs>
<clipPath id="clip0_1253_17239">
<rect width="32" height="32" fill="white" transform="translate(0.480469)"/>
</clipPath>
</defs>
</svg>
