<svg width="49" height="49" viewBox="0 0 49 49" fill="currentColor" xmlns="http://www.w3.org/2000/svg">
<g clip-path="url(#clip0_305_28)">
<path d="M42.0781 12.3853H36.0781C36.0781 9.20266 34.8138 6.15041 32.5634 3.89997C30.313 1.64954 27.2607 0.385254 24.0781 0.385254C20.8955 0.385254 17.8433 1.64954 15.5928 3.89997C13.3424 6.15041 12.0781 9.20266 12.0781 12.3853H6.07812C4.48683 12.3853 2.9607 13.0174 1.83548 14.1426C0.710266 15.2678 0.078125 16.794 0.078125 18.3853L0.078125 38.3853C0.0813007 41.0364 1.13589 43.5781 3.01056 45.4528C4.88524 47.3275 7.42694 48.3821 10.0781 48.3853H38.0781C40.7293 48.3821 43.271 47.3275 45.1457 45.4528C47.0204 43.5781 48.075 41.0364 48.0781 38.3853V18.3853C48.0781 16.794 47.446 15.2678 46.3208 14.1426C45.1955 13.0174 43.6694 12.3853 42.0781 12.3853ZM24.0781 4.38525C26.1999 4.38525 28.2347 5.22811 29.735 6.7284C31.2353 8.22869 32.0781 10.2635 32.0781 12.3853H16.0781C16.0781 10.2635 16.921 8.22869 18.4213 6.7284C19.9216 5.22811 21.9564 4.38525 24.0781 4.38525ZM44.0781 38.3853C44.0781 39.9766 43.446 41.5027 42.3208 42.6279C41.1955 43.7531 39.6694 44.3853 38.0781 44.3853H10.0781C8.48683 44.3853 6.9607 43.7531 5.83548 42.6279C4.71027 41.5027 4.07812 39.9766 4.07812 38.3853V18.3853C4.07812 17.8548 4.28884 17.3461 4.66391 16.971C5.03898 16.596 5.54769 16.3853 6.07812 16.3853H12.0781V20.3853C12.0781 20.9157 12.2888 21.4244 12.6639 21.7995C13.039 22.1745 13.5477 22.3853 14.0781 22.3853C14.6086 22.3853 15.1173 22.1745 15.4923 21.7995C15.8674 21.4244 16.0781 20.9157 16.0781 20.3853V16.3853H32.0781V20.3853C32.0781 20.9157 32.2888 21.4244 32.6639 21.7995C33.039 22.1745 33.5477 22.3853 34.0781 22.3853C34.6086 22.3853 35.1173 22.1745 35.4923 21.7995C35.8674 21.4244 36.0781 20.9157 36.0781 20.3853V16.3853H42.0781C42.6086 16.3853 43.1173 16.596 43.4923 16.971C43.8674 17.3461 44.0781 17.8548 44.0781 18.3853V38.3853Z" fill="#15121D"/>
</g>
<defs>
<clipPath id="clip0_305_28">
<rect width="48" height="48" fill="white" transform="translate(0.078125 0.385254)"/>
</clipPath>
</defs>
</svg>
