<svg width="49" height="49" viewBox="0 0 49 49" fill="none" xmlns="http://www.w3.org/2000/svg">
<g clip-path="url(#clip0_305_50)">
<path d="M46.3937 32.9435C45.4558 34.0243 44.2967 34.8909 42.9948 35.4848C41.6929 36.0786 40.2786 36.3858 38.8477 36.3855H30.8697L31.5417 40.4675C31.7794 41.905 31.4926 43.38 30.7334 44.6236C29.9742 45.8672 28.7933 46.7964 27.406 47.2419C26.0188 47.6873 24.5177 47.6193 23.1764 47.0501C21.8352 46.481 20.7432 45.4487 20.0997 44.1415L16.2717 36.3855H10.8477C8.19647 36.3823 5.65477 35.3277 3.7801 33.453C1.90542 31.5784 0.850832 29.0367 0.847656 26.3855L0.847656 16.3855C0.850832 13.7343 1.90542 11.1926 3.7801 9.31791C5.65477 7.44324 8.19647 6.38865 10.8477 6.38548H37.4477C39.8546 6.39533 42.178 7.26886 43.9953 8.84716C45.8125 10.4255 47.0028 12.6036 47.3497 14.9855L48.7597 24.9855C48.9582 26.404 48.8497 27.8486 48.4415 29.2216C48.0333 30.5946 47.335 31.8638 46.3937 32.9435ZM4.84766 16.3855V26.3855C4.84766 27.9768 5.4798 29.5029 6.60502 30.6281C7.73023 31.7533 9.25636 32.3855 10.8477 32.3855H14.8477V10.3855H10.8477C9.25636 10.3855 7.73023 11.0176 6.60502 12.1428C5.4798 13.2681 4.84766 14.7942 4.84766 16.3855ZM44.7897 25.5475L43.3777 15.5475C43.1712 14.1195 42.4591 12.813 41.3708 11.8657C40.2826 10.9184 38.8905 10.3931 37.4477 10.3855H18.8477V32.9175C19.0361 33.0817 19.1922 33.2798 19.3077 33.5015L23.6857 42.3715C23.8498 42.6676 24.0819 42.9206 24.3629 43.1096C24.6439 43.2985 24.9657 43.4181 25.3019 43.4586C25.6381 43.499 25.979 43.459 26.2968 43.342C26.6145 43.225 26.9 43.0343 27.1297 42.7855C27.3262 42.557 27.4698 42.2879 27.5504 41.9975C27.6309 41.7071 27.6464 41.4025 27.5957 41.1055L26.5397 34.7055C26.4933 34.4195 26.5096 34.1269 26.5875 33.8479C26.6654 33.5688 26.8029 33.3101 26.9907 33.0894C27.1784 32.8688 27.4118 32.6916 27.6748 32.57C27.9377 32.4485 28.224 32.3855 28.5137 32.3855H38.8477C39.7065 32.3856 40.5553 32.2013 41.3368 31.8452C42.1182 31.489 42.8141 30.9693 43.3774 30.321C43.9407 29.6728 44.3583 28.9111 44.602 28.0876C44.8456 27.2641 44.9096 26.3979 44.7897 25.5475Z" fill="#15121D"/>
</g>
<defs>
<clipPath id="clip0_305_50">
<rect width="48" height="48" fill="white" transform="matrix(1 0 0 -1 0.847656 48.3853)"/>
</clipPath>
</defs>
</svg>
