<svg width="49" height="49" viewBox="0 0 49 49" fill="none" xmlns="http://www.w3.org/2000/svg">
<g clip-path="url(#clip0_305_47)">
<path d="M46.1476 15.827C45.2097 14.7462 44.0506 13.8796 42.7487 13.2857C41.4468 12.6919 40.0325 12.3847 38.6016 12.385H30.6236L31.2956 8.30303C31.5333 6.86556 31.2465 5.3905 30.4873 4.14691C29.7281 2.90332 28.5472 1.97406 27.16 1.52862C25.7727 1.08317 24.2716 1.15123 22.9303 1.72038C21.5891 2.28953 20.4971 3.32184 19.8536 4.62903L16.0256 12.385H10.6016C7.95037 12.3882 5.40868 13.4428 3.534 15.3175C1.65933 17.1921 0.604738 19.7338 0.601563 22.385L0.601562 32.385C0.604738 35.0362 1.65933 37.5779 3.534 39.4526C5.40868 41.3273 7.95037 42.3819 10.6016 42.385H37.2016C39.6085 42.3752 41.9319 41.5016 43.7492 39.9234C45.5664 38.3451 46.7567 36.1669 47.1036 33.785L48.5136 23.785C48.7121 22.3665 48.6036 20.9219 48.1954 19.5489C47.7873 18.1759 47.0889 16.9067 46.1476 15.827ZM4.60156 32.385V22.385C4.60156 20.7937 5.2337 19.2676 6.35892 18.1424C7.48414 17.0172 9.01026 16.385 10.6016 16.385H14.6016V38.385H10.6016C9.01026 38.385 7.48414 37.7529 6.35892 36.6277C5.2337 35.5025 4.60156 33.9763 4.60156 32.385ZM44.5436 23.223L43.1316 33.223C42.9251 34.651 42.213 35.9575 41.1248 36.9048C40.0365 37.8521 38.6444 38.3774 37.2016 38.385H18.6016V15.853C18.79 15.6888 18.9461 15.4907 19.0616 15.269L23.4396 6.39903C23.6037 6.10289 23.8359 5.84994 24.1168 5.66095C24.3978 5.47197 24.7196 5.35236 25.0558 5.31195C25.392 5.27154 25.7329 5.31148 26.0507 5.42849C26.3684 5.5455 26.6539 5.73624 26.8836 5.98503C27.0801 6.21353 27.2237 6.48257 27.3043 6.77297C27.3848 7.06337 27.4003 7.36797 27.3496 7.66503L26.2936 14.065C26.2472 14.351 26.2635 14.6436 26.3414 14.9226C26.4193 15.2017 26.5568 15.4605 26.7446 15.6811C26.9323 15.9017 27.1657 16.0789 27.4287 16.2005C27.6916 16.322 27.9779 16.385 28.2676 16.385H38.6016C39.4604 16.3849 40.3092 16.5692 41.0907 16.9253C41.8721 17.2815 42.568 17.8013 43.1313 18.4495C43.6947 19.0978 44.1122 19.8594 44.3559 20.6829C44.5995 21.5064 44.6635 22.3726 44.5436 23.223Z" fill="#15121D"/>
</g>
<defs>
<clipPath id="clip0_305_47">
<rect width="48" height="48" fill="white" transform="translate(0.601562 0.385254)"/>
</clipPath>
</defs>
</svg>
