<svg width="49" height="49" viewBox="0 0 49 49" fill="#fff" xmlns="http://www.w3.org/2000/svg">
<g clip-path="url(#clip0_305_111)">
<path d="M3.09579 25.1852L10.2158 30.3852L7.51179 38.7592C7.07482 40.0579 7.06928 41.4632 7.49601 42.7653C7.92274 44.0675 8.75889 45.1969 9.87979 45.9852C10.9815 46.7987 12.3166 47.2346 13.6861 47.2277C15.0556 47.2209 16.3863 46.7717 17.4798 45.9472L24.4418 40.8232L31.4058 45.9412C32.5055 46.7501 33.8334 47.1894 35.1985 47.1961C36.5637 47.2027 37.8958 46.7763 39.0033 45.9782C40.1109 45.18 40.9368 44.0513 41.3624 42.7541C41.7879 41.457 41.7912 40.0583 41.3718 38.7592L38.6678 30.3852L45.7878 25.1852C46.8861 24.3822 47.7025 23.2527 48.1205 21.9579C48.5385 20.6632 48.5366 19.2695 48.1152 17.9759C47.6937 16.6823 46.8743 15.555 45.7738 14.755C44.6734 13.9549 43.3483 13.5231 41.9878 13.5212H33.2418L30.5878 5.24916C30.1704 3.94708 29.3503 2.81119 28.2457 2.00529C27.1411 1.1994 25.8091 0.765137 24.4418 0.765137C23.0745 0.765137 21.7425 1.1994 20.6379 2.00529C19.5333 2.81119 18.7132 3.94708 18.2958 5.24916L15.6418 13.5212H6.90379C5.54328 13.5231 4.21818 13.9549 3.11775 14.755C2.01733 15.555 1.19787 16.6823 0.776435 17.9759C0.354996 19.2695 0.353131 20.6632 0.771105 21.9579C1.18908 23.2527 2.00551 24.3822 3.10379 25.1852H3.09579Z"/>
</g>
<defs>
<clipPath id="clip0_305_111">
<rect width="48" height="48" transform="translate(0.441406 0.385254)"/>
</clipPath>
</defs>
</svg>
