<svg width="58" height="57" viewBox="0 0 58 57" fill="none" xmlns="http://www.w3.org/2000/svg">
<path fill-rule="evenodd" clip-rule="evenodd" d="M41.1953 38.1174C44.1014 38.1174 46.4572 35.7616 46.4572 32.8555C46.4572 29.9491 44.1014 27.5933 41.1953 27.5933V38.1174Z" fill="#FFA826"/>
<path fill-rule="evenodd" clip-rule="evenodd" d="M42.0322 37.2017V28.5095C44.0739 28.9019 45.6212 30.7016 45.6212 32.8558C45.6212 35.01 44.0739 36.8097 42.0322 37.2017ZM42.453 12.2264C39.3313 9.1048 35.1968 7.38525 30.8113 7.38525C26.4258 7.38525 22.2912 9.1048 19.1692 12.2264C17.9824 13.4136 16.9982 14.7468 16.2341 16.1846C15.743 17.5265 17.3283 17.8541 17.7129 16.962C20.1989 12.2656 25.1378 9.0586 30.8113 9.0586C38.9774 9.0586 45.6212 15.7023 45.6212 23.8685V28.666C44.5089 27.4917 42.9371 26.7571 41.1958 26.7571C40.7335 26.7571 40.3589 27.1316 40.3589 27.5936V38.1177C40.3589 38.58 40.7335 38.9545 41.1958 38.9545C44.527 38.9545 47.2417 36.269 47.2921 32.9492C47.2924 32.9391 47.2934 29.912 47.2942 23.8685C47.2942 19.483 45.575 15.3484 42.453 12.2264Z" fill="#424750"/>
<path fill-rule="evenodd" clip-rule="evenodd" d="M45.7687 38.0332C45.5566 38.0332 45.3483 38.1197 45.1981 38.2694C45.0481 38.4196 44.9619 38.6278 44.9619 38.8411C44.9619 39.0524 45.0481 39.2603 45.1981 39.4115C45.3483 39.5614 45.5566 39.647 45.7687 39.647C45.9808 39.647 46.189 39.5614 46.3392 39.4115C46.4894 39.2603 46.5754 39.0531 46.5754 38.8411C46.5754 38.6278 46.4894 38.4196 46.3392 38.2694C46.189 38.1197 45.9808 38.0332 45.7687 38.0332Z" fill="#424750"/>
<path fill-rule="evenodd" clip-rule="evenodd" d="M33.6845 46.0359L34.8717 45.7836L35.1242 46.9708L33.937 47.2231L33.6845 46.0359ZM45.3106 40.663C44.9105 40.4321 44.3984 40.569 44.1674 40.9689C42.5437 43.7798 39.9919 45.7132 36.7558 46.5987L36.3348 44.6173C36.2385 44.1652 35.7944 43.8768 35.3421 43.9726L32.5184 44.573C32.0661 44.6692 31.7777 45.1134 31.874 45.5655L32.4742 48.3894C32.5701 48.8415 33.0143 49.1299 33.4665 49.034L36.2906 48.4337C40.3902 47.5623 43.6151 45.2705 45.6164 41.8061C45.8477 41.4062 45.7105 40.8944 45.3106 40.663Z" fill="#424750"/>
<path fill-rule="evenodd" clip-rule="evenodd" d="M12.5238 39.2341C10.9551 39.2341 9.68359 37.9625 9.68359 36.3937V21.4999C9.68359 19.9312 10.9551 18.6597 12.5238 18.6597H32.9834C34.5521 18.6597 35.8237 19.9312 35.8237 21.4999V40.221C35.8237 41.2193 35.0145 42.0285 34.0163 42.0285C33.4717 42.0285 32.9562 41.7831 32.6131 41.3603L30.8873 39.2341H12.5238ZM12.5238 20.2087C11.8109 20.2087 11.2327 20.7869 11.2327 21.4999V36.3937C11.2327 37.1067 11.8109 37.6849 12.5238 37.6849H31.6251L33.8157 40.3837C33.8647 40.4443 33.9386 40.4793 34.0163 40.4793C34.1591 40.4793 34.2746 40.3638 34.2746 40.221V21.4999C34.2746 20.7869 33.6964 20.2087 32.9834 20.2087H12.5238Z" fill="#9773FF"/>
<path fill-rule="evenodd" clip-rule="evenodd" d="M27.5117 28.1413H32.7194V29.4962L29.9891 36.247H28.3066L30.9569 29.6698H27.5117V28.1413ZM25.459 27.9968V29.479H24.5949V30.857H22.9933V29.479H19.1797V27.9968L21.9573 22.5894H23.6625L20.8965 27.9968H22.9933V26.0746H24.5949V27.9968H25.459ZM12.9259 30.857V29.6642L15.6794 26.8159C16.1981 26.2717 16.6013 25.7389 16.6013 25.1947C16.6013 24.5461 16.1633 24.1409 15.5526 24.1409C14.9307 24.1409 14.4698 24.5115 14.2048 25.0904L12.8682 24.303C13.3869 23.1451 14.4351 22.5894 15.5299 22.5894C16.9124 22.5894 18.1913 23.5154 18.1913 25.1366C18.1913 26.1208 17.6267 26.9664 16.8661 27.7305L15.2877 29.317H18.318V30.857H12.9259Z" fill="#424750"/>
<path fill-rule="evenodd" clip-rule="evenodd" d="M29.2772 22.876L22.083 36.247H22.7802L29.9696 22.876H29.2772Z" fill="#FFA826"/>
</svg>
