<svg width="68" height="50" viewBox="0 0 68 50" fill="none" xmlns="http://www.w3.org/2000/svg">
<g filter="url(#filter0_d_1253_17292)">
<path d="M48.4668 37H54.6275V31M48.4668 13H54.6275V19M19.7168 13H13.5561V19M13.5561 31V37H19.7168M34.0918 33C31.9132 33 29.8239 32.1571 28.2834 30.6569C26.7429 29.1566 25.8775 27.1217 25.8775 25C25.8775 22.8783 26.7429 20.8434 28.2834 19.3431C29.8239 17.8429 31.9132 17 34.0918 17C36.2704 17 38.3597 17.8429 39.9002 19.3431C41.4407 20.8434 42.3061 22.8783 42.3061 25C42.3061 27.1217 41.4407 29.1566 39.9002 30.6569C38.3597 32.1571 36.2704 33 34.0918 33ZM9.44894 5H58.7347C59.8239 5 60.8686 5.42143 61.6388 6.17157C62.4091 6.92172 62.8418 7.93913 62.8418 9V41C62.8418 42.0609 62.4091 43.0783 61.6388 43.8284C60.8686 44.5786 59.8239 45 58.7347 45H9.44894C8.35966 45 7.31499 44.5786 6.54475 43.8284C5.77451 43.0783 5.3418 42.0609 5.3418 41V9C5.3418 7.93913 5.77451 6.92172 6.54475 6.17157C7.31499 5.42143 8.35966 5 9.44894 5Z" stroke="#15121D" stroke-width="2"/>
</g>
<defs>
<filter id="filter0_d_1253_17292" x="0.341797" y="0" width="67.5" height="50" filterUnits="userSpaceOnUse" color-interpolation-filters="sRGB">
<feFlood flood-opacity="0" result="BackgroundImageFix"/>
<feColorMatrix in="SourceAlpha" type="matrix" values="0 0 0 0 0 0 0 0 0 0 0 0 0 0 0 0 0 0 127 0" result="hardAlpha"/>
<feOffset/>
<feGaussianBlur stdDeviation="2"/>
<feComposite in2="hardAlpha" operator="out"/>
<feColorMatrix type="matrix" values="0 0 0 0 0.0823529 0 0 0 0 0.0705882 0 0 0 0 0.113725 0 0 0 0.24 0"/>
<feBlend mode="normal" in2="BackgroundImageFix" result="effect1_dropShadow_1253_17292"/>
<feBlend mode="normal" in="SourceGraphic" in2="effect1_dropShadow_1253_17292" result="shape"/>
</filter>
</defs>
</svg>
