<svg width="49" height="49" viewBox="0 0 49 49" fill="none" xmlns="http://www.w3.org/2000/svg">
<g clip-path="url(#clip0_305_113)">
<path d="M48.1973 24.3853C48.1973 30.7505 45.6687 36.8549 41.1678 41.3558C36.667 45.8567 30.5625 48.3853 24.1973 48.3853C17.8321 48.3853 11.7276 45.8567 7.2267 41.3558C2.72583 36.8549 0.197266 30.7505 0.197266 24.3853C0.197266 23.8548 0.407979 23.3461 0.783052 22.971C1.15812 22.596 1.66683 22.3853 2.19727 22.3853C2.7277 22.3853 3.23641 22.596 3.61148 22.971C3.98655 23.3461 4.19727 23.8548 4.19727 24.3853C4.19727 28.3409 5.37024 32.2077 7.56787 35.4967C9.7655 38.7856 12.8891 41.3491 16.5436 42.8628C20.1981 44.3766 24.2195 44.7727 28.0991 44.001C31.9787 43.2293 35.5424 41.3244 38.3394 38.5274C41.1365 35.7303 43.0413 32.1667 43.813 28.2871C44.5847 24.4074 44.1886 20.3861 42.6749 16.7316C41.1611 13.0771 38.5977 9.95349 35.3087 7.75586C32.0197 5.55823 28.1529 4.38525 24.1973 4.38525C23.6668 4.38525 23.1581 4.17454 22.7831 3.79947C22.408 3.42439 22.1973 2.91569 22.1973 2.38525C22.1973 1.85482 22.408 1.34611 22.7831 0.97104C23.1581 0.595968 23.6668 0.385254 24.1973 0.385254C30.5603 0.392136 36.6608 2.92291 41.1602 7.42229C45.6596 11.9217 48.1904 18.0222 48.1973 24.3853ZM20.7513 22.3853H16.1973C15.6668 22.3853 15.1581 22.596 14.7831 22.971C14.408 23.3461 14.1973 23.8548 14.1973 24.3853C14.1973 24.9157 14.408 25.4244 14.7831 25.7995C15.1581 26.1745 15.6668 26.3853 16.1973 26.3853H20.7513C21.0567 26.9157 21.4801 27.3687 21.9888 27.7092C22.4974 28.0498 23.0776 28.2686 23.6845 28.3489C24.2913 28.4291 24.9084 28.3686 25.4881 28.172C26.0678 27.9754 26.5944 27.6481 27.0272 27.2152C27.4601 26.7824 27.7874 26.2558 27.984 25.6761C28.1806 25.0964 28.2411 24.4793 28.1609 23.8724C28.0806 23.2656 27.8618 22.6854 27.5213 22.1768C27.1807 21.6681 26.7277 21.2447 26.1973 20.9393V14.3853C26.1973 13.8548 25.9866 13.3461 25.6115 12.971C25.2364 12.596 24.7277 12.3853 24.1973 12.3853C23.6668 12.3853 23.1581 12.596 22.7831 12.971C22.408 13.3461 22.1973 13.8548 22.1973 14.3853V20.9393C21.5981 21.2878 21.0998 21.7861 20.7513 22.3853ZM3.85127 17.9533C4.24683 17.9533 4.63351 17.836 4.96241 17.6162C5.2913 17.3964 5.54765 17.0841 5.69902 16.7186C5.8504 16.3532 5.89001 15.951 5.81284 15.5631C5.73567 15.1751 5.54518 14.8187 5.26548 14.539C4.98577 14.2593 4.62941 14.0689 4.24145 13.9917C3.85348 13.9145 3.45135 13.9541 3.0859 14.1055C2.72045 14.2569 2.40809 14.5132 2.18833 14.8421C1.96856 15.171 1.85127 15.5577 1.85127 15.9533C1.85127 16.4837 2.06198 16.9924 2.43705 17.3675C2.81212 17.7425 3.32083 17.9533 3.85127 17.9533ZM8.63927 10.7993C9.03483 10.7993 9.42151 10.682 9.75041 10.4622C10.0793 10.2424 10.3356 9.93007 10.487 9.56462C10.6384 9.19917 10.678 8.79704 10.6008 8.40907C10.5237 8.02111 10.3332 7.66475 10.0535 7.38504C9.77377 7.10534 9.41741 6.91485 9.02945 6.83768C8.64148 6.76051 8.23935 6.80012 7.8739 6.95149C7.50845 7.10287 7.19609 7.35921 6.97633 7.68811C6.75656 8.01701 6.63927 8.40369 6.63927 8.79925C6.63927 9.32969 6.84998 9.8384 7.22505 10.2135C7.60012 10.5885 8.10883 10.7993 8.63927 10.7993ZM15.7553 6.06725C16.1508 6.06725 16.5375 5.94996 16.8664 5.73019C17.1953 5.51043 17.4517 5.19807 17.603 4.83262C17.7544 4.46717 17.794 4.06504 17.7168 3.67707C17.6397 3.28911 17.4492 2.93275 17.1695 2.65304C16.8898 2.37334 16.5334 2.18285 16.1454 2.10568C15.7575 2.02851 15.3554 2.06812 14.9899 2.21949C14.6244 2.37087 14.3121 2.62721 14.0923 2.95611C13.8726 3.28501 13.7553 3.67169 13.7553 4.06725C13.7553 4.59769 13.966 5.10639 14.3411 5.48147C14.7161 5.85654 15.2248 6.06725 15.7553 6.06725Z" fill="#ADADAD"/>
</g>
<defs>
<clipPath id="clip0_305_113">
<rect width="48" height="48" fill="white" transform="translate(0.197266 0.385254)"/>
</clipPath>
</defs>
</svg>
