<svg width="49" height="49" viewBox="0 0 49 49" fill="none" xmlns="http://www.w3.org/2000/svg">
<g clip-path="url(#clip0_305_43)">
<path d="M42.0938 8.38525H35.8937C35.4296 6.12808 34.2014 4.09995 32.4163 2.64269C30.6311 1.18543 28.3982 0.388163 26.0938 0.385254L22.0938 0.385254C19.7893 0.388163 17.5564 1.18543 15.7712 2.64269C13.9861 4.09995 12.7579 6.12808 12.2937 8.38525H6.09375C5.56332 8.38525 5.05461 8.59597 4.67954 8.97104C4.30446 9.34611 4.09375 9.85482 4.09375 10.3853C4.09375 10.9157 4.30446 11.4244 4.67954 11.7995C5.05461 12.1745 5.56332 12.3853 6.09375 12.3853H8.09375V38.3853C8.09693 41.0364 9.15151 43.5781 11.0262 45.4528C12.9009 47.3275 15.4426 48.3821 18.0938 48.3853H30.0938C32.7449 48.3821 35.2866 47.3275 37.1613 45.4528C39.036 43.5781 40.0906 41.0364 40.0938 38.3853V12.3853H42.0938C42.6242 12.3853 43.1329 12.1745 43.508 11.7995C43.883 11.4244 44.0938 10.9157 44.0938 10.3853C44.0938 9.85482 43.883 9.34611 43.508 8.97104C43.1329 8.59597 42.6242 8.38525 42.0938 8.38525ZM22.0938 4.38525H26.0938C27.3343 4.38677 28.544 4.77201 29.557 5.48814C30.5699 6.20428 31.3366 7.21624 31.7518 8.38525H16.4357C16.8509 7.21624 17.6176 6.20428 18.6305 5.48814C19.6435 4.77201 20.8532 4.38677 22.0938 4.38525ZM36.0938 38.3853C36.0938 39.9766 35.4616 41.5027 34.3364 42.6279C33.2112 43.7531 31.685 44.3853 30.0938 44.3853H18.0938C16.5025 44.3853 14.9763 43.7531 13.8511 42.6279C12.7259 41.5027 12.0938 39.9766 12.0938 38.3853V12.3853H36.0938V38.3853Z" fill="#15121D"/>
<path d="M20.0938 36.3853C20.6242 36.3853 21.1329 36.1745 21.508 35.7995C21.883 35.4244 22.0938 34.9157 22.0938 34.3853V22.3853C22.0938 21.8548 21.883 21.3461 21.508 20.971C21.1329 20.596 20.6242 20.3853 20.0938 20.3853C19.5633 20.3853 19.0546 20.596 18.6795 20.971C18.3045 21.3461 18.0938 21.8548 18.0938 22.3853V34.3853C18.0938 34.9157 18.3045 35.4244 18.6795 35.7995C19.0546 36.1745 19.5633 36.3853 20.0938 36.3853Z" fill="#15121D"/>
<path d="M28.0938 36.3853C28.6242 36.3853 29.1329 36.1745 29.508 35.7995C29.883 35.4244 30.0938 34.9157 30.0938 34.3853V22.3853C30.0938 21.8548 29.883 21.3461 29.508 20.971C29.1329 20.596 28.6242 20.3853 28.0938 20.3853C27.5633 20.3853 27.0546 20.596 26.6795 20.971C26.3045 21.3461 26.0938 21.8548 26.0938 22.3853V34.3853C26.0938 34.9157 26.3045 35.4244 26.6795 35.7995C27.0546 36.1745 27.5633 36.3853 28.0938 36.3853Z" fill="#15121D"/>
</g>
<defs>
<clipPath id="clip0_305_43">
<rect width="48" height="48" fill="white" transform="translate(0.09375 0.385254)"/>
</clipPath>
</defs>
</svg>
