<svg width="49" height="45" viewBox="0 0 49 45" fill="none" xmlns="http://www.w3.org/2000/svg">
<path d="M47.575 19.9053L45.557 13.8553C45.0276 12.2616 44.0096 10.8754 42.6474 9.8934C41.2852 8.91144 39.6482 8.38373 37.969 8.38525H34.093C33.6288 6.12808 32.4006 4.09995 30.6155 2.64269C28.8303 1.18543 26.5974 0.388163 24.293 0.385254H10.293C7.64178 0.38843 5.10008 1.44302 3.22541 3.31769C1.35073 5.19237 0.296144 7.73406 0.292969 10.3853L0.292969 37.3853C0.310079 38.7681 0.734422 40.1151 1.51295 41.2581C2.29147 42.401 3.38963 43.2892 4.67015 43.8114C5.95066 44.3336 7.3567 44.4668 8.7125 44.1943C10.0683 43.9218 11.3137 43.2557 12.293 42.2793C13.2723 43.2557 14.5176 43.9218 15.8734 44.1943C17.2292 44.4668 18.6353 44.3336 19.9158 43.8114C21.1963 43.2892 22.2945 42.401 23.073 41.2581C23.8515 40.1151 24.2759 38.7681 24.293 37.3853V36.3853H30.293V37.3853C30.293 39.2418 31.0305 41.0222 32.3432 42.335C33.656 43.6478 35.4365 44.3853 37.293 44.3853C39.1495 44.3853 40.93 43.6478 42.2427 42.335C43.5555 41.0222 44.293 39.2418 44.293 37.3853V35.3113C45.5088 34.6093 46.5185 33.5997 47.2206 32.384C47.9227 31.1683 48.2926 29.7892 48.293 28.3853V24.3333C48.2932 22.8283 48.0508 21.3331 47.575 19.9053ZM41.763 15.1213L43.517 20.3853H34.293V12.3853H37.969C38.8085 12.3855 39.6267 12.6498 40.3076 13.1409C40.9885 13.6319 41.4977 14.3248 41.763 15.1213ZM4.29297 10.3853C4.29297 8.79395 4.92511 7.26783 6.05033 6.14261C7.17555 5.0174 8.70167 4.38525 10.293 4.38525H24.293C25.8843 4.38525 27.4104 5.0174 28.5356 6.14261C29.6608 7.26783 30.293 8.79395 30.293 10.3853V32.3853H4.29297V10.3853ZM7.29297 40.3853C6.49732 40.3853 5.73426 40.0692 5.17165 39.5066C4.60904 38.944 4.29297 38.1809 4.29297 37.3853V36.3853H10.293V37.3853C10.293 38.1809 9.9769 38.944 9.41429 39.5066C8.85168 40.0692 8.08862 40.3853 7.29297 40.3853ZM20.293 37.3853C20.293 38.1809 19.9769 38.944 19.4143 39.5066C18.8517 40.0692 18.0886 40.3853 17.293 40.3853C16.4973 40.3853 15.7343 40.0692 15.1716 39.5066C14.609 38.944 14.293 38.1809 14.293 37.3853V36.3853H20.293V37.3853ZM40.293 37.3853C40.293 38.1809 39.9769 38.944 39.4143 39.5066C38.8517 40.0692 38.0886 40.3853 37.293 40.3853C36.4973 40.3853 35.7343 40.0692 35.1716 39.5066C34.609 38.944 34.293 38.1809 34.293 37.3853V36.3853H40.293V37.3853ZM40.293 32.3853H34.293V24.3853H44.293V28.3853C44.293 29.4461 43.8715 30.4635 43.1214 31.2137C42.3713 31.9638 41.3538 32.3853 40.293 32.3853Z" fill="#15121D"/>
</svg>
