<svg width="34" height="40" viewBox="0 0 34 40" fill="none" xmlns="http://www.w3.org/2000/svg">
<path fill-rule="evenodd" clip-rule="evenodd" d="M17.0681 0C21.58 0 25.6079 2.8659 27.0858 7.13375C27.3578 7.91572 26.9418 8.76969 26.1578 9.04168C25.3759 9.31567 24.5219 8.89769 24.2499 8.11372C23.1919 5.05582 20.302 2.9999 17.0622 2.9999H17.0342C12.8503 2.9999 9.44242 6.38778 9.42442 10.5676L9.42302 13.2515L24.6865 13.2529C29.6943 13.2529 33.7702 17.3288 33.7702 22.3386V30.9143C33.7702 35.9241 29.6943 40 24.6865 40H9.40302C4.39319 40 0.319336 35.9241 0.319336 30.9143V22.3386C0.319336 18.372 2.87325 14.9908 6.42355 13.7547L6.42452 10.6016C6.45052 4.72583 11.2024 0 17.0282 0H17.0681ZM24.6865 16.2528H9.40302C6.04714 16.2528 3.31923 18.9827 3.31923 22.3386V30.9143C3.31923 34.2702 6.04714 37.0001 9.40302 37.0001H24.6865C28.0404 37.0001 30.7703 34.2702 30.7703 30.9143V22.3386C30.7703 18.9827 28.0404 16.2528 24.6865 16.2528ZM17.0454 22.9042C17.8733 22.9042 18.5453 23.5762 18.5453 24.4041V28.848C18.5453 29.676 17.8733 30.3479 17.0454 30.3479C16.2174 30.3479 15.5454 29.676 15.5454 28.848V24.4041C15.5454 23.5762 16.2174 22.9042 17.0454 22.9042Z" fill="black"/>
</svg>
