<svg width="49" height="49" viewBox="0 0 49 49" fill="none" xmlns="http://www.w3.org/2000/svg">
<g clip-path="url(#clip0_304_4622)">
<path d="M24.0703 0.385254C10.8363 0.385254 0.0703125 11.1513 0.0703125 24.3853C0.0703125 37.6193 10.8363 48.3853 24.0703 48.3853C37.3043 48.3853 48.0703 37.6193 48.0703 24.3853C48.0703 11.1513 37.3043 0.385254 24.0703 0.385254ZM24.0703 44.3853C13.0423 44.3853 4.07031 35.4133 4.07031 24.3853C4.07031 13.3573 13.0423 4.38525 24.0703 4.38525C35.0983 4.38525 44.0703 13.3573 44.0703 24.3853C44.0703 35.4133 35.0983 44.3853 24.0703 44.3853ZM32.0703 28.3853C32.0703 31.6933 29.3783 34.3853 26.0703 34.3853V36.3853C26.0703 37.4913 25.1763 38.3853 24.0703 38.3853C22.9643 38.3853 22.0703 37.4913 22.0703 36.3853V34.3853H21.5343C19.4003 34.3853 17.4083 33.2373 16.3383 31.3873C15.7843 30.4293 16.1123 29.2073 17.0663 28.6553C18.0243 28.0973 19.2483 28.4293 19.7983 29.3833C20.1563 30.0033 20.8203 30.3853 21.5323 30.3853H26.0683C27.1723 30.3853 28.0683 29.4893 28.0683 28.3853C28.0683 27.6293 27.5263 26.9893 26.7803 26.8653L20.6983 25.8513C18.0143 25.4053 16.0683 23.1053 16.0683 20.3853C16.0683 17.0773 18.7603 14.3853 22.0683 14.3853V12.3853C22.0683 11.2813 22.9623 10.3853 24.0683 10.3853C25.1743 10.3853 26.0683 11.2813 26.0683 12.3853V14.3853H26.6043C28.7383 14.3853 30.7303 15.5353 31.8003 17.3853C32.3543 18.3413 32.0263 19.5633 31.0723 20.1173C30.1123 20.6713 28.8903 20.3433 28.3403 19.3873C27.9823 18.7693 27.3183 18.3873 26.6063 18.3873H22.0703C20.9663 18.3873 20.0703 19.2853 20.0703 20.3873C20.0703 21.1433 20.6123 21.7833 21.3583 21.9073L27.4403 22.9213C30.1243 23.3673 32.0703 25.6673 32.0703 28.3873V28.3853Z" fill="#15121D"/>
</g>
<defs>
<clipPath id="clip0_304_4622">
<rect width="48" height="48" fill="white" transform="translate(0.0703125 0.385254)"/>
</clipPath>
</defs>
</svg>
