<svg width="29" height="29" viewBox="0 0 29 29" fill="none" xmlns="http://www.w3.org/2000/svg">
<g clip-path="url(#clip0_1253_17234)">
<path d="M14.5391 14.0381C15.9235 14.0381 17.2769 13.6275 18.4281 12.8584C19.5792 12.0892 20.4764 10.996 21.0062 9.71687C21.536 8.43779 21.6747 7.03032 21.4046 5.67246C21.1345 4.31459 20.4678 3.06731 19.4888 2.08834C18.5098 1.10937 17.2626 0.442689 15.9047 0.172592C14.5468 -0.0975044 13.1394 0.0411189 11.8603 0.570932C10.5812 1.10075 9.48795 1.99795 8.71878 3.1491C7.94961 4.30024 7.53906 5.65362 7.53906 7.03809C7.54092 8.89404 8.27901 10.6734 9.59136 11.9858C10.9037 13.2981 12.6831 14.0362 14.5391 14.0381ZM14.5391 2.37142C15.462 2.37142 16.3643 2.64512 17.1317 3.1579C17.8992 3.67068 18.4973 4.39951 18.8505 5.25223C19.2037 6.10496 19.2961 7.04327 19.1161 7.94851C18.936 8.85376 18.4915 9.68528 17.8389 10.3379C17.1862 10.9906 16.3547 11.435 15.4495 11.6151C14.5442 11.7952 13.6059 11.7027 12.7532 11.3495C11.9005 10.9963 11.1717 10.3982 10.6589 9.63075C10.1461 8.86332 9.8724 7.96107 9.8724 7.03809C9.8724 5.80041 10.3641 4.61343 11.2392 3.73826C12.1144 2.86309 13.3014 2.37142 14.5391 2.37142Z" fill="#15121D"/>
<path d="M14.5391 16.3716C11.7552 16.3747 9.08631 17.4819 7.11785 19.4504C5.14939 21.4188 4.04215 24.0878 4.03906 26.8716C4.03906 27.181 4.16198 27.4777 4.38077 27.6965C4.59956 27.9153 4.89631 28.0382 5.20573 28.0382C5.51515 28.0382 5.81189 27.9153 6.03069 27.6965C6.24948 27.4777 6.3724 27.181 6.3724 26.8716C6.3724 24.7056 7.23281 22.6284 8.76436 21.0969C10.2959 19.5653 12.3731 18.7049 14.5391 18.7049C16.705 18.7049 18.7822 19.5653 20.3138 21.0969C21.8453 22.6284 22.7057 24.7056 22.7057 26.8716C22.7057 27.181 22.8286 27.4777 23.0474 27.6965C23.2662 27.9153 23.563 28.0382 23.8724 28.0382C24.1818 28.0382 24.4786 27.9153 24.6974 27.6965C24.9161 27.4777 25.0391 27.181 25.0391 26.8716C25.036 24.0878 23.9287 21.4188 21.9603 19.4504C19.9918 17.4819 17.3229 16.3747 14.5391 16.3716Z" fill="#15121D"/>
</g>
<defs>
<clipPath id="clip0_1253_17234">
<rect width="28" height="28" fill="white" transform="translate(0.539062 0.0380859)"/>
</clipPath>
</defs>
</svg>
