<svg width="49" height="49" viewBox="0 0 49 49" fill="currentColor" xmlns="http://www.w3.org/2000/svg">
<g clip-path="url(#clip0_305_34)">
<path d="M24.832 24.3853C27.2054 24.3853 29.5255 23.6815 31.4989 22.3629C33.4723 21.0443 35.0103 19.1702 35.9186 16.9775C36.8268 14.7847 37.0645 12.3719 36.6015 10.0442C36.1384 7.7164 34.9955 5.57821 33.3173 3.89998C31.6391 2.22175 29.5009 1.07886 27.1731 0.615836C24.8453 0.152813 22.4325 0.390453 20.2398 1.2987C18.0471 2.20696 16.173 3.74503 14.8544 5.71842C13.5358 7.69181 12.832 10.0119 12.832 12.3853C12.8352 15.5669 14.1005 18.6173 16.3503 20.867C18.6 23.1168 21.6504 24.3821 24.832 24.3853ZM24.832 4.38526C26.4143 4.38526 27.961 4.85445 29.2766 5.7335C30.5922 6.61255 31.6176 7.86198 32.2231 9.32379C32.8286 10.7856 32.987 12.3941 32.6783 13.946C32.3696 15.4978 31.6077 16.9233 30.4889 18.0421C29.3701 19.1609 27.9446 19.9229 26.3928 20.2315C24.8409 20.5402 23.2324 20.3818 21.7706 19.7763C20.3088 19.1708 19.0593 18.1454 18.1803 16.8298C17.3012 15.5142 16.832 13.9675 16.832 12.3853C16.832 10.2635 17.6749 8.2287 19.1752 6.7284C20.6755 5.22811 22.7103 4.38526 24.832 4.38526Z" fill="#15121D"/>
<path d="M24.832 28.3853C20.0598 28.3905 15.4845 30.2887 12.11 33.6632C8.73545 37.0377 6.83732 41.613 6.83203 46.3853C6.83203 46.9157 7.04274 47.4244 7.41782 47.7995C7.79289 48.1745 8.3016 48.3853 8.83203 48.3853C9.36246 48.3853 9.87117 48.1745 10.2462 47.7995C10.6213 47.4244 10.832 46.9157 10.832 46.3853C10.832 42.6722 12.307 39.1113 14.9325 36.4858C17.558 33.8603 21.119 32.3853 24.832 32.3853C28.5451 32.3853 32.106 33.8603 34.7315 36.4858C37.357 39.1113 38.832 42.6722 38.832 46.3853C38.832 46.9157 39.0427 47.4244 39.4178 47.7995C39.7929 48.1745 40.3016 48.3853 40.832 48.3853C41.3625 48.3853 41.8712 48.1745 42.2462 47.7995C42.6213 47.4244 42.832 46.9157 42.832 46.3853C42.8267 41.613 40.9286 37.0377 37.5541 33.6632C34.1796 30.2887 29.6043 28.3905 24.832 28.3853Z" fill="#15121D"/>
</g>
<defs>
<clipPath id="clip0_305_34">
<rect width="48" height="48" fill="white" transform="translate(0.832031 0.385254)"/>
</clipPath>
</defs>
</svg>
