<svg width="49" height="49" viewBox="0 0 49 49" fill="#fff" xmlns="http://www.w3.org/2000/svg">
<path d="M39.457 32.3853C39.457 33.4913 38.563 34.3853 37.457 34.3853H33.457C32.351 34.3853 31.457 33.4913 31.457 32.3853C31.457 31.2793 32.351 30.3853 33.457 30.3853H37.457C38.563 30.3853 39.457 31.2793 39.457 32.3853ZM48.457 30.3853V40.3853C48.457 44.7973 44.869 48.3853 40.457 48.3853H8.45703C4.04503 48.3853 0.457031 44.7973 0.457031 40.3853V30.3853C0.457031 25.9733 4.04503 22.3853 8.45703 22.3853H10.457V8.38525C10.457 3.97325 14.045 0.385254 18.457 0.385254H30.457C34.869 0.385254 38.457 3.97325 38.457 8.38525V22.3853H40.457C44.869 22.3853 48.457 25.9733 48.457 30.3853ZM14.457 22.3853H34.457V8.38525C34.457 6.17925 32.663 4.38525 30.457 4.38525H18.457C16.251 4.38525 14.457 6.17925 14.457 8.38525V22.3853ZM8.45703 44.3853H22.457V26.3853H8.45703C6.25103 26.3853 4.45703 28.1793 4.45703 30.3853V40.3853C4.45703 42.5913 6.25103 44.3853 8.45703 44.3853ZM44.457 30.3853C44.457 28.1793 42.663 26.3853 40.457 26.3853H26.457V44.3853H40.457C42.663 44.3853 44.457 42.5913 44.457 40.3853V30.3853ZM15.457 30.3853H11.457C10.351 30.3853 9.45703 31.2793 9.45703 32.3853C9.45703 33.4913 10.351 34.3853 11.457 34.3853H15.457C16.563 34.3853 17.457 33.4913 17.457 32.3853C17.457 31.2793 16.563 30.3853 15.457 30.3853ZM28.457 10.3853C28.457 9.27925 27.563 8.38525 26.457 8.38525H22.457C21.351 8.38525 20.457 9.27925 20.457 10.3853C20.457 11.4913 21.351 12.3853 22.457 12.3853H26.457C27.563 12.3853 28.457 11.4913 28.457 10.3853Z"/>
</svg>
