<svg width="49" height="43" viewBox="0 0 49 43" fill="none" xmlns="http://www.w3.org/2000/svg">
<path d="M46.6016 26.3853H45.2676C44.7676 26.3853 44.2716 26.4233 43.7776 26.4993L29.6856 15.9313L33.0616 12.6993C33.8596 11.9353 33.8876 10.6673 33.1236 9.8713C32.3576 9.0733 31.0896 9.0473 30.2956 9.8093L21.9496 17.7993C21.5336 18.2153 20.9676 18.4293 20.3736 18.3793C19.7776 18.3313 19.2536 18.0293 18.8956 17.5293C18.3476 16.7693 18.5156 15.5793 19.2316 14.8613L28.6376 6.0033C30.4196 4.3293 33.2056 3.9193 35.3856 5.0133L40.0176 7.3293C41.3976 8.0193 42.9456 8.3833 44.4876 8.3833H46.5996C47.7056 8.3833 48.5996 7.4893 48.5996 6.3833C48.5996 5.2773 47.7056 4.3833 46.5996 4.3833H44.4876C43.5616 4.3833 42.6316 4.1653 41.8036 3.7513L37.1756 1.4353C33.5276 -0.390699 28.8696 0.287301 25.8936 3.0913L24.6576 4.2553L23.2576 2.9793C21.4196 1.3053 19.0396 0.383301 16.4776 0.383301C14.9356 0.383301 13.3976 0.747301 12.0236 1.4333L7.39561 3.7493C6.56561 4.1633 5.63561 4.3813 4.70961 4.3813H2.60161C1.49561 4.3813 0.601609 5.2753 0.601609 6.3813C0.601609 7.4873 1.49561 8.3813 2.60161 8.3813H4.71361C6.25561 8.3813 7.80361 8.0153 9.18561 7.3273L13.8176 5.0113C15.8616 3.9833 18.7336 4.2613 20.5656 5.9353L21.7396 7.0053L16.4476 11.9893C14.3016 14.1333 13.9596 17.5233 15.6516 19.8653C16.6916 21.3113 18.7576 22.3833 20.5396 22.3833C22.1256 22.3833 23.6476 21.7593 24.7476 20.6573L26.7596 18.7313L39.4516 28.2493C39.3896 28.2933 27.0556 37.5413 27.0556 37.5413C25.6096 38.6653 23.5916 38.6653 22.1156 37.5193L9.93361 28.3833C8.21561 27.0933 6.08361 26.3833 3.93361 26.3833H2.59961C1.49361 26.3833 0.599609 27.2773 0.599609 28.3833C0.599609 29.4893 1.49361 30.3833 2.59961 30.3833H3.93361C5.22361 30.3833 6.50161 30.8093 7.53361 31.5833L19.6876 40.6993C21.1376 41.8273 22.8756 42.3913 24.6096 42.3913C26.3336 42.3913 28.0556 41.8333 29.4836 40.7213L41.6696 31.5853C42.6996 30.8113 43.9776 30.3853 45.2676 30.3853H46.6016C47.7076 30.3853 48.6016 29.4913 48.6016 28.3853C48.6016 27.2793 47.7076 26.3853 46.6016 26.3853Z" fill="#15121D"/>
</svg>
