<svg width="49" height="49" viewBox="0 0 49 49" fill="none" xmlns="http://www.w3.org/2000/svg">
<path d="M29.8812 42.9854C29.2812 43.4374 28.6432 43.9134 28.1012 44.3854H32.6812C33.2117 44.3854 33.7204 44.5961 34.0955 44.9711C34.4705 45.3462 34.6812 45.8549 34.6812 46.3854C34.6812 46.9158 34.4705 47.4245 34.0955 47.7996C33.7204 48.1746 33.2117 48.3854 32.6812 48.3854H24.6812C24.1508 48.3854 23.6421 48.1746 23.267 47.7996C22.892 47.4245 22.6812 46.9158 22.6812 46.3854C22.6812 43.3854 25.2312 41.4734 27.4812 39.7854C28.9812 38.6614 30.6812 37.3854 30.6812 36.3854C30.6812 35.8549 30.4705 35.3462 30.0955 34.9711C29.7204 34.5961 29.2117 34.3854 28.6812 34.3854C28.1508 34.3854 27.6421 34.5961 27.267 34.9711C26.892 35.3462 26.6812 35.8549 26.6812 36.3854C26.6812 36.9158 26.4705 37.4245 26.0955 37.7996C25.7204 38.1746 25.2117 38.3854 24.6812 38.3854C24.1508 38.3854 23.6421 38.1746 23.267 37.7996C22.892 37.4245 22.6812 36.9158 22.6812 36.3854C22.6812 34.7941 23.3134 33.2679 24.4386 32.1427C25.5638 31.0175 27.0899 30.3854 28.6812 30.3854C30.2725 30.3854 31.7987 31.0175 32.9239 32.1427C34.0491 33.2679 34.6812 34.7941 34.6812 36.3854C34.6812 39.3854 32.1312 41.2974 29.8812 42.9854ZM46.6812 30.3854C46.1508 30.3854 45.6421 30.5961 45.267 30.9711C44.892 31.3462 44.6812 31.8549 44.6812 32.3854V38.3854H42.6812C42.1508 38.3854 41.6421 38.1746 41.267 37.7996C40.892 37.4245 40.6812 36.9158 40.6812 36.3854V32.3854C40.6812 31.8549 40.4705 31.3462 40.0955 30.9711C39.7204 30.5961 39.2117 30.3854 38.6812 30.3854C38.1508 30.3854 37.6421 30.5961 37.267 30.9711C36.892 31.3462 36.6812 31.8549 36.6812 32.3854V36.3854C36.6812 37.9767 37.3134 39.5028 38.4386 40.628C39.5638 41.7532 41.09 42.3854 42.6812 42.3854H44.6812V46.3854C44.6812 46.9158 44.892 47.4245 45.267 47.7996C45.6421 48.1746 46.1508 48.3854 46.6812 48.3854C47.2117 48.3854 47.7204 48.1746 48.0955 47.7996C48.4705 47.4245 48.6813 46.9158 48.6813 46.3854V32.3854C48.6813 31.8549 48.4705 31.3462 48.0955 30.9711C47.7204 30.5961 47.2117 30.3854 46.6812 30.3854ZM26.6812 24.3854V14.3854C26.6812 13.8549 26.4705 13.3462 26.0955 12.9711C25.7204 12.5961 25.2117 12.3854 24.6812 12.3854C24.1508 12.3854 23.6421 12.5961 23.267 12.9711C22.892 13.3462 22.6812 13.8549 22.6812 14.3854V22.3854H16.6812C16.1508 22.3854 15.6421 22.5961 15.267 22.9711C14.892 23.3462 14.6812 23.8549 14.6812 24.3854C14.6812 24.9158 14.892 25.4245 15.267 25.7996C15.6421 26.1746 16.1508 26.3854 16.6812 26.3854H24.6812C25.2117 26.3854 25.7204 26.1746 26.0955 25.7996C26.4705 25.4245 26.6812 24.9158 26.6812 24.3854ZM46.6812 4.38535C46.1508 4.38535 45.6421 4.59606 45.267 4.97114C44.892 5.34621 44.6812 5.85492 44.6812 6.38535V11.1334C42.5974 7.9885 39.8015 5.37919 36.5204 3.51716C33.2394 1.65512 29.5655 0.5928 25.7971 0.416392C22.0286 0.239984 18.2716 0.954457 14.8309 2.50184C11.3902 4.04922 8.36282 6.38593 5.99428 9.32236C3.62575 12.2588 1.98281 15.7122 1.19879 19.4025C0.41477 23.0927 0.511743 26.9158 1.48184 30.5616C2.45194 34.2073 4.26784 37.573 6.7822 40.3856C9.29656 43.1982 12.4386 45.3784 15.9532 46.7494C16.1855 46.8389 16.4323 46.885 16.6812 46.8854C17.148 46.8861 17.6002 46.7235 17.9597 46.4259C18.3192 46.1283 18.5633 45.7143 18.6498 45.2557C18.7362 44.797 18.6595 44.3226 18.4329 43.9145C18.2064 43.5065 17.8442 43.1905 17.4092 43.0214C14.4253 41.8675 11.7617 40.0147 9.64201 37.6184C7.52234 35.2221 6.00846 32.3522 5.22746 29.2498C4.44646 26.1473 4.42113 22.9027 5.15359 19.7884C5.88606 16.6741 7.35494 13.781 9.43694 11.3519C11.5189 8.92279 14.1533 7.02858 17.1189 5.8283C20.0844 4.62801 23.2947 4.15667 26.4801 4.45384C29.6655 4.75101 32.7332 5.80802 35.4256 7.53614C38.118 9.26425 40.3565 11.613 41.9532 14.3854H36.6812C36.1508 14.3854 35.6421 14.5961 35.267 14.9711C34.892 15.3462 34.6812 15.8549 34.6812 16.3854C34.6812 16.9158 34.892 17.4245 35.267 17.7996C35.6421 18.1746 36.1508 18.3854 36.6812 18.3854H42.6812C44.2725 18.3854 45.7987 17.7532 46.9239 16.628C48.0491 15.5028 48.6813 13.9767 48.6813 12.3854V6.38535C48.6813 5.85492 48.4705 5.34621 48.0955 4.97114C47.7204 4.59606 47.2117 4.38535 46.6812 4.38535Z" fill="#15121D"/>
</svg>
