<svg width="37" height="37" viewBox="0 0 37 37" fill="none" xmlns="http://www.w3.org/2000/svg">
<path fill-rule="evenodd" clip-rule="evenodd" d="M31.3607 5.65131C29.6974 3.97708 27.7184 2.64954 25.5384 1.74561C23.3584 0.841675 21.0207 0.379313 18.6607 0.385312C8.76469 0.385312 0.708688 8.43931 0.704688 18.3393C0.704688 21.5033 1.53069 24.5913 3.10069 27.3153L0.554688 36.6173L10.0727 34.1193C12.7055 35.5525 15.6551 36.304 18.6527 36.3053H18.6607C28.5547 36.3053 36.6107 28.2513 36.6147 18.3513C36.6215 15.9923 36.1607 13.6553 35.2588 11.4754C34.357 9.29557 33.0321 7.31606 31.3607 5.65131ZM18.6607 33.2753H18.6547C15.9817 33.2756 13.358 32.5564 11.0587 31.1933L10.5147 30.8693L4.86669 32.3513L6.37269 26.8453L6.01869 26.2813C4.52426 23.9022 3.73315 21.1489 3.73669 18.3393C3.74069 10.1113 10.4347 3.41731 18.6667 3.41731C20.6272 3.41296 22.5691 3.79747 24.38 4.54861C26.1909 5.29975 27.8348 6.4026 29.2167 7.79331C30.6059 9.1774 31.7071 10.8231 32.4565 12.6353C33.2059 14.4475 33.5886 16.3903 33.5827 18.3513C33.5787 26.5793 26.8847 33.2753 18.6607 33.2753ZM26.8467 22.0973C26.3967 21.8713 24.1927 20.7873 23.7807 20.6373C23.3707 20.4873 23.0727 20.4133 22.7727 20.8613C22.4727 21.3093 21.6127 22.3193 21.3507 22.6193C21.0887 22.9193 20.8267 22.9553 20.3787 22.7313C19.9307 22.5073 18.4847 22.0333 16.7707 20.5053C15.4367 19.3153 14.5367 17.8473 14.2747 17.3973C14.0127 16.9473 14.2467 16.7053 14.4727 16.4813C14.6747 16.2813 14.9207 15.9573 15.1447 15.6953C15.3687 15.4333 15.4427 15.2473 15.5927 14.9473C15.7427 14.6473 15.6687 14.3853 15.5547 14.1613C15.4427 13.9353 14.5447 11.7273 14.1707 10.8293C13.8087 9.95931 13.4387 10.0753 13.1627 10.0633C12.8768 10.0516 12.5908 10.0463 12.3047 10.0473C12.0772 10.0531 11.8534 10.1058 11.6472 10.2022C11.4411 10.2986 11.257 10.4365 11.1067 10.6073C10.6947 11.0573 9.53669 12.1413 9.53669 14.3493C9.53669 16.5573 11.1447 18.6913 11.3687 18.9913C11.5927 19.2913 14.5327 23.8213 19.0327 25.7653C20.1047 26.2273 20.9407 26.5033 21.5907 26.7113C22.6647 27.0533 23.6427 27.0033 24.4167 26.8893C25.2787 26.7613 27.0707 25.8053 27.4447 24.7573C27.8187 23.7093 27.8187 22.8113 27.7067 22.6233C27.5947 22.4353 27.2927 22.3213 26.8467 22.0973Z" fill="#15121D"/>
</svg>
