<svg width="49" height="49" viewBox="0 0 49 49" fill="none" xmlns="http://www.w3.org/2000/svg">
<path d="M28.8121 24.3857L47.6913 5.50848C48.8632 4.33656 48.8632 2.43651 47.6913 1.26468C46.5194 0.092762 44.6194 0.092762 43.4475 1.26468L24.5702 20.1438L5.69305 1.26468C4.52113 0.092762 2.62108 0.092762 1.44925 1.26468C0.277426 2.4366 0.277332 4.33665 1.44925 5.50848L20.3284 24.3857L1.44925 43.263C0.277332 44.4349 0.277332 46.3349 1.44925 47.5068C2.62117 48.6786 4.52122 48.6787 5.69305 47.5068L24.5702 28.6275L43.4474 47.5068C44.6194 48.6787 46.5194 48.6787 47.6912 47.5068C48.8632 46.3348 48.8632 44.4348 47.6912 43.263L28.8121 24.3857Z" fill="#15121D"/>
</svg>
