<svg width="323" height="303" viewBox="0 0 323 303" fill="none" xmlns="http://www.w3.org/2000/svg">
<g clip-path="url(#clip0_1250_10222)">
<path d="M177.079 239.48H103.059V296.448H177.079V239.48Z" fill="#EBEBEB"/>
<path d="M158.536 296.043C158.437 296.043 158.352 283.342 158.352 267.684C158.352 252.018 158.437 239.324 158.536 239.324C158.636 239.324 158.721 252.018 158.721 267.684C158.721 283.349 158.643 296.043 158.536 296.043Z" fill="#E0E0E0"/>
<path d="M170.803 283.484H165.132V289.888H170.803V283.484Z" fill="#FAFAFA"/>
<path d="M134.052 239.629H125.645V251.784H134.052V239.629Z" fill="#E0E0E0"/>
<path d="M134.052 284.122H125.645V296.277H134.052V284.122Z" fill="#E0E0E0"/>
<path d="M311.396 225.197H218.059V297.029H311.396V225.197Z" fill="#EBEBEB"/>
<path d="M288.014 296.519C287.914 296.519 287.829 280.506 287.829 260.762C287.829 241.012 287.914 224.999 288.014 224.999C288.113 224.999 288.199 241.005 288.199 260.762C288.199 280.513 288.113 296.519 288.014 296.519Z" fill="#E0E0E0"/>
<path d="M303.486 280.676H296.329V288.746H303.486V280.676Z" fill="#FAFAFA"/>
<path d="M257.14 225.382H246.536V240.707H257.14V225.382Z" fill="#E0E0E0"/>
<path d="M257.14 281.484H246.536V296.809H257.14V281.484Z" fill="#E0E0E0"/>
<path d="M42.2572 227.311C46.0382 225.368 50.4801 225.112 54.6733 225.807C56.9262 226.176 59.2787 226.85 60.8067 228.538C62.3418 230.225 62.6332 233.197 60.8707 234.651C59.8259 235.516 58.3619 235.643 57.0044 235.629C53.7209 235.594 50.0821 235.012 47.4525 236.984C45.9529 238.111 44.9579 239.976 43.1741 240.53C41.4257 241.069 39.45 240.04 38.5189 238.466C37.5879 236.892 37.5595 234.92 37.993 233.14C38.0001 233.14 38.455 229.268 42.2572 227.311Z" fill="#EBEBEB"/>
<path d="M33.608 210.638C35.9178 213.929 40.4095 212.844 42.4919 210.83C44.5742 208.823 45.4555 205.908 46.2515 203.128C48.078 196.781 49.9259 190.129 48.5684 183.661C48.1633 181.732 47.4384 179.803 46.0738 178.371C44.7164 176.938 42.6198 176.087 40.708 176.591C38.4408 177.187 37.0407 179.399 36.0173 181.505C33.0252 187.689 31.4475 194.547 31.419 201.419C31.4119 204.624 31.7957 207.993 33.608 210.638Z" fill="#EBEBEB"/>
<path d="M27.2618 215.361C29.7706 212.39 30.2467 208.057 29.1309 204.341C28.0151 200.618 25.4921 197.455 22.5853 194.873C19.181 191.845 15.1726 189.484 10.8657 187.973C9.17426 187.377 7.38328 186.909 5.59941 187.08C3.80843 187.25 2.01034 188.165 1.17881 189.746C-0.0578185 192.093 1.12906 194.937 2.40833 197.263C4.66128 201.355 7.23403 205.27 10.1053 208.957C12.4151 211.922 15.0518 214.851 18.5698 216.191C22.0878 217.531 25.7337 217.375 27.6029 214.943" fill="#EBEBEB"/>
<path d="M33.4523 260.294C33.4949 260.294 33.566 259.762 33.6584 258.798C33.765 257.706 33.9 256.344 34.0564 254.713C34.2483 252.997 34.497 250.954 34.9732 248.728C35.4494 246.508 36.1956 244.104 37.1551 241.657C38.15 239.232 39.3582 237.026 40.7725 235.26C42.1797 233.488 43.8073 232.204 45.3424 231.466C46.8704 230.715 48.2421 230.403 49.1944 230.268C50.1539 230.169 50.6869 230.098 50.6869 230.055C50.6869 230.013 50.1539 230.005 49.166 230.034C48.1923 230.098 46.7638 230.346 45.1505 231.076C43.5301 231.793 41.8031 233.097 40.3248 234.906C38.8394 236.707 37.5886 238.962 36.5794 241.43C35.6057 243.912 34.8666 246.345 34.4117 248.614C33.9569 250.876 33.7508 252.947 33.6157 254.678C33.4878 256.408 33.4381 257.812 33.4096 258.784C33.3954 259.755 33.4096 260.294 33.4523 260.294Z" fill="#E0E0E0"/>
<path d="M33.729 257.152C33.7504 257.152 33.7646 256.911 33.7717 256.458C33.7717 255.933 33.7717 255.28 33.7646 254.472C33.7575 252.749 33.7575 250.259 33.8499 247.182C33.9991 241.026 34.5321 234.402 35.5627 225.055C36.5363 216.269 37.8369 206.05 39.2157 199.405C39.5142 197.894 39.8056 196.533 40.0899 195.341C40.3599 194.15 40.5874 193.122 40.8077 192.285C40.9996 191.498 41.1488 190.859 41.2696 190.356C41.3691 189.916 41.4118 189.675 41.3905 189.668C41.3691 189.661 41.2838 189.888 41.1488 190.32C40.9996 190.817 40.8077 191.448 40.5731 192.221C40.3173 193.044 40.0543 194.072 39.7558 195.256C39.4431 196.44 39.1162 197.802 38.7893 199.306C37.4247 205.326 35.9891 213.744 34.9514 223.105C33.9209 232.466 33.459 240.991 33.4163 247.16C33.3808 250.245 33.4447 252.741 33.5229 254.465C33.5727 255.273 33.6153 255.926 33.6437 256.45C33.6793 256.918 33.7077 257.16 33.729 257.152Z" fill="#E0E0E0"/>
<path d="M33.772 240.714C33.8146 240.714 33.8075 239.976 33.7578 238.643C33.6796 237.31 33.4948 235.388 33.1182 233.027C32.7202 230.672 32.1658 227.878 31.2845 224.843C30.9079 223.453 30.0124 220.127 27.8518 215.156C25.009 208.418 21.1427 202.915 17.7811 199.504C16.9922 198.596 16.1109 197.944 15.4144 197.306C15.052 197.001 14.7322 196.696 14.4052 196.448C14.0783 196.221 13.7727 196.008 13.4884 195.816C12.3797 195.065 11.7614 194.661 11.7401 194.696C11.6406 194.831 14.2205 196.341 17.4755 199.802C20.7163 203.249 24.476 208.716 27.2975 215.397C28.8681 219.021 29.9697 222.247 30.7444 224.992C31.647 227.999 32.244 230.764 32.6917 233.098C33.1182 235.431 33.3669 237.338 33.5161 238.657C33.6441 239.984 33.7294 240.721 33.772 240.714Z" fill="#E0E0E0"/>
<path d="M16.75 267.216L18.3988 289.781H47.4525L49.1014 267.216H16.75Z" fill="#EBEBEB"/>
<path d="M52.5703 258.323H13.9434V267.216H52.5703V258.323Z" fill="#EBEBEB"/>
<path d="M13.9434 288.923V291.384H15.7557H51.9306V288.923H13.9434Z" fill="#E0E0E0"/>
<path d="M17.5326 295.455L15.7559 291.115H50.545L48.4697 295.455H17.5326Z" fill="#E0E0E0"/>
<path d="M48.562 274.591C48.5691 274.598 48.5193 274.669 48.4269 274.797C48.3132 274.953 48.1711 275.137 47.9934 275.371C47.5812 275.896 47.0126 276.619 46.3019 277.534L46.2237 277.633L46.1527 277.534C45.0866 276.066 43.6652 274.102 41.995 271.797H42.2367C41 273.541 39.6213 275.492 38.143 277.584L38.0151 277.768L37.8729 277.598C36.3591 275.804 34.7245 273.854 33.0188 271.832L33.296 271.825C33.2107 271.932 33.1183 272.045 33.0259 272.159C31.5192 274.045 30.0623 275.868 28.6835 277.591L28.5414 277.775L28.4063 277.584C26.9352 275.506 25.5564 273.556 24.3126 271.804L24.5543 271.818C22.5359 274.116 20.8231 276.059 19.5083 277.555L19.4159 277.655L19.3448 277.541C18.6767 276.428 18.1508 275.534 17.767 274.896C17.6036 274.605 17.4685 274.378 17.3619 274.194C17.2695 274.031 17.234 273.946 17.2411 273.946C17.2482 273.939 17.3051 274.017 17.4117 274.173C17.5325 274.35 17.6746 274.577 17.8594 274.853C18.2645 275.485 18.8189 276.357 19.5154 277.456L19.359 277.442C20.6525 275.931 22.3369 273.96 24.3198 271.641L24.4477 271.492L24.5614 271.648C25.8193 273.4 27.2052 275.336 28.6906 277.406L28.4134 277.399C29.7851 275.676 31.242 273.846 32.7416 271.96C32.834 271.847 32.9264 271.733 33.0117 271.627L33.1467 271.457L33.2889 271.627C34.9875 273.655 36.6221 275.605 38.1288 277.399L37.8587 277.414C39.3512 275.336 40.7442 273.4 41.995 271.655L42.1159 271.485L42.2367 271.655C43.8713 273.988 45.2643 275.974 46.309 277.456L46.1598 277.449C46.8989 276.563 47.4888 275.853 47.9223 275.343C48.1142 275.123 48.2706 274.946 48.3914 274.797C48.498 274.648 48.5549 274.584 48.562 274.591Z" fill="#F5F5F5"/>
<path d="M49.5073 267.067C49.5073 267.166 42.2297 267.244 33.2463 267.244C24.263 267.244 16.9854 267.166 16.9854 267.067C16.9854 266.967 24.263 266.889 33.2463 266.889C42.2297 266.889 49.5073 266.967 49.5073 267.067Z" fill="#F5F5F5"/>
<path d="M253.311 11.1757L247.355 11.2075L247.514 40.7799L253.47 40.7481L253.311 11.1757Z" fill="#E0E0E0"/>
<path d="M211.181 11.2565L195.759 11.3389L195.846 27.664L211.269 27.5816L211.181 11.2565Z" fill="#EBEBEB"/>
<path d="M226.533 11.1715L211.11 11.2539L211.198 27.579L226.62 27.4966L226.533 11.1715Z" fill="#F5F5F5"/>
<path d="M195.785 15.8431C206.033 15.9282 216.31 15.8715 226.559 15.7013C226.772 15.7013 226.765 15.3751 226.559 15.3751C216.31 15.3184 206.033 15.368 195.785 15.5595C195.6 15.5666 195.6 15.8431 195.785 15.8431Z" fill="#E0E0E0"/>
<path d="M214.167 27.3072L186.144 27.457L186.215 40.7611L214.238 40.6112L214.167 27.3072Z" fill="#EBEBEB"/>
<path d="M242.055 27.1583L214.032 27.3081L214.104 40.6121L242.127 40.4624L242.055 27.1583Z" fill="#F5F5F5"/>
<path d="M186.162 31.1542C204.775 31.3669 223.46 31.1755 242.073 30.8776C242.287 30.8705 242.279 30.5514 242.073 30.5514C223.46 30.4521 204.775 30.4663 186.162 30.8705C185.977 30.8776 185.977 31.1542 186.162 31.1542Z" fill="#E0E0E0"/>
<path d="M284.246 40.7637H175.679V45.5293H284.246V40.7637Z" fill="#E0E0E0"/>
<path d="M197.86 43.0542H193.453V59.3155H197.86V43.0542Z" fill="#E0E0E0"/>
<path d="M263.65 43.0542H259.243V59.3155H263.65V43.0542Z" fill="#E0E0E0"/>
<path d="M259.124 0.14786L253.168 0.179688L253.386 40.8506L259.342 40.8188L259.124 0.14786Z" fill="#EBEBEB"/>
<path d="M268.433 7.72004L259.18 7.76953L259.357 40.7317L268.61 40.6823L268.433 7.72004Z" fill="#F5F5F5"/>
<path d="M268.369 14.0703C268.369 14.1554 266.293 14.2334 263.742 14.2334C261.183 14.2334 259.115 14.1625 259.115 14.0703C259.115 13.9781 261.183 13.9072 263.742 13.9072C266.293 13.9072 268.369 13.9852 268.369 14.0703Z" fill="#E0E0E0"/>
<path d="M268.369 12.6875C268.369 12.7726 266.293 12.8506 263.742 12.8506C261.183 12.8506 259.115 12.7797 259.115 12.6875C259.115 12.6024 261.183 12.5244 263.742 12.5244C266.293 12.5244 268.369 12.5953 268.369 12.6875Z" fill="#E0E0E0"/>
<path d="M268.369 35.7212C268.369 35.8063 266.293 35.8843 263.742 35.8843C261.183 35.8843 259.115 35.8134 259.115 35.7212C259.115 35.6361 261.183 35.5581 263.742 35.5581C266.293 35.5581 268.369 35.6361 268.369 35.7212Z" fill="#E0E0E0"/>
<path d="M268.369 34.3384C268.369 34.4235 266.293 34.5015 263.742 34.5015C261.183 34.5015 259.115 34.4306 259.115 34.3384C259.115 34.2533 261.183 34.1753 263.742 34.1753C266.293 34.1753 268.369 34.2462 268.369 34.3384Z" fill="#E0E0E0"/>
<path d="M263.891 31.3173C263.806 31.3173 263.728 27.9913 263.728 23.8923C263.728 19.7933 263.799 16.4673 263.891 16.4673C263.976 16.4673 264.054 19.7933 264.054 23.8923C264.047 27.9913 263.976 31.3173 263.891 31.3173Z" fill="#E0E0E0"/>
<path d="M278.539 15.8149H268.469V40.6926H278.539V15.8149Z" fill="#EBEBEB"/>
<path d="M256.059 8.80101C257.005 8.80101 257.772 8.03582 257.772 7.09191C257.772 6.148 257.005 5.38281 256.059 5.38281C255.114 5.38281 254.347 6.148 254.347 7.09191C254.347 8.03582 255.114 8.80101 256.059 8.80101Z" fill="#E0E0E0"/>
<path d="M256.585 11.7939H255.526V35.9908H256.585V11.7939Z" fill="#E0E0E0"/>
<path d="M314.6 296.639C314.6 296.738 246.294 296.823 162.047 296.823C77.7784 296.823 9.47949 296.738 9.47949 296.639C9.47949 296.54 77.7713 296.455 162.047 296.455C246.294 296.455 314.6 296.54 314.6 296.639Z" fill="#263238"/>
<path d="M90.408 36.374C93.7413 40.4163 95.5962 45.65 95.5394 50.8836C95.5038 53.8763 94.9566 57.174 96.6978 59.6064C98.0197 61.4503 100.436 62.3793 101.509 64.3791C102.803 66.7832 101.701 69.8256 102.497 72.4353C103.627 76.1372 107.97 77.6903 110.549 80.5766C112.788 83.087 113.613 86.7534 112.71 89.9873C111.807 93.2211 109.228 95.9301 106.044 97.0222C104.338 97.6108 102.383 97.7385 100.77 96.9371C99.0289 96.0719 97.9486 94.2919 97.0745 92.5545C95.3546 89.1363 80.3089 70.6624 79.4561 66.9392" fill="#263238"/>
<path d="M79.4632 32.0196C73.3085 31.0338 67.3954 35.1045 64.8013 40.7636C62.2072 46.4157 62.1361 52.8479 61.9443 59.0673C61.7524 65.2797 61.3188 71.7686 58.1349 77.1228C56.1165 80.5197 52.9893 83.4911 52.499 87.4128C52.0583 90.9161 53.8777 94.4478 53.2736 97.9298C52.7477 100.965 50.4308 103.596 50.5232 106.674C50.6369 110.376 54.4463 113.163 58.1562 113.262C61.8661 113.361 65.3272 111.425 68.234 109.121C72.9531 105.39 76.7767 100.54 79.2997 95.0932" fill="#263238"/>
<path d="M69.3429 46.6565C68.5327 40.1818 73.2234 34.2673 79.8117 33.6361C86.0232 33.0475 91.5383 37.6571 92.4693 43.8127C93.2867 49.2095 93.9832 54.6559 93.9618 56.6345C93.8837 62.5986 90.387 64.9247 88.9727 65.6197C88.6457 65.7757 87.7574 65.9601 87.402 66.0097C87.3807 66.0097 87.3665 66.031 87.3665 66.0594L88.6955 72.9099C89.2996 77.399 86.7908 81.3987 82.2991 82.0511C77.7933 82.7036 74.2753 79.257 73.5859 74.768L69.3429 46.6565Z" fill="#FFBE9D"/>
<path d="M91.2472 46.4295C91.1477 46.5713 90.3588 46.1458 89.3496 46.2948C88.3404 46.4295 87.6724 47.0607 87.5444 46.9472C87.4805 46.8976 87.5658 46.6635 87.8572 46.3799C88.1414 46.0962 88.6532 45.7913 89.2786 45.7062C89.9111 45.6211 90.4726 45.77 90.8137 45.9615C91.1619 46.16 91.297 46.3657 91.2472 46.4295Z" fill="#263238"/>
<path d="M82.2492 48.614C82.1497 48.7559 81.3608 48.3304 80.3516 48.4793C79.3424 48.614 78.6743 49.2452 78.5464 49.1317C78.4824 49.0821 78.5677 48.848 78.8591 48.5644C79.1434 48.2807 79.6551 47.9758 80.2805 47.8907C80.9131 47.8056 81.4745 47.9545 81.8157 48.1531C82.1568 48.3445 82.2989 48.5502 82.2492 48.614Z" fill="#263238"/>
<path d="M85.9379 54.0246C85.9237 53.9678 86.5349 53.7693 87.537 53.4927C87.7928 53.4289 88.0273 53.3438 88.0487 53.1594C88.0842 52.9608 87.935 52.7055 87.7644 52.4218C87.4304 51.8332 87.0821 51.2162 86.7125 50.5709C85.2414 47.9328 84.1398 45.7415 84.2464 45.6847C84.353 45.628 85.6323 47.72 87.1034 50.3582C87.4588 51.0106 87.7999 51.6347 88.1268 52.2304C88.269 52.5069 88.4822 52.819 88.4111 53.2232C88.3685 53.4289 88.1979 53.592 88.0416 53.6629C87.8852 53.7409 87.736 53.7622 87.6151 53.7905C86.5846 53.9891 85.9521 54.0813 85.9379 54.0246Z" fill="#263238"/>
<path d="M87.3598 66.0168C87.3598 66.0168 83.5007 66.9033 78.1846 64.6836C78.1846 64.6836 80.4802 69.6123 87.7151 67.8607L87.3598 66.0168Z" fill="#EB996E"/>
<path d="M81.7373 45.9687C81.6804 46.2594 80.6499 46.2736 79.4844 46.5928C78.3117 46.8835 77.402 47.3728 77.2101 47.1459C77.1248 47.0395 77.2527 46.7559 77.601 46.4367C77.9492 46.1176 78.5178 45.7772 79.2214 45.5928C79.925 45.4084 80.5931 45.4297 81.0479 45.5432C81.5099 45.6496 81.7657 45.8339 81.7373 45.9687Z" fill="#263238"/>
<path d="M90.4152 44.1956C90.2731 44.4509 89.5411 44.3161 88.6953 44.4225C87.8496 44.5005 87.1673 44.7984 86.9683 44.5856C86.883 44.4792 86.9612 44.231 87.2384 43.9686C87.5156 43.7063 87.9988 43.458 88.5745 43.3871C89.1502 43.3233 89.6832 43.458 90.0101 43.6495C90.3513 43.8481 90.4792 44.0679 90.4152 44.1956Z" fill="#263238"/>
<path d="M80.0532 49.9191C80.1243 50.3588 80.5507 50.6637 81.0127 50.5999C81.4746 50.5361 81.7873 50.1319 81.7163 49.6922C81.6452 49.2525 81.2188 48.9475 80.7568 49.0114C80.302 49.0752 79.9893 49.4794 80.0532 49.9191Z" fill="#263238"/>
<path d="M89.0158 47.9831C89.0868 48.4228 89.5132 48.7277 89.9752 48.6639C90.4372 48.6001 90.7499 48.1958 90.6788 47.7561C90.6077 47.3165 90.1813 47.0115 89.7194 47.0753C89.2645 47.1392 88.9447 47.5434 89.0158 47.9831Z" fill="#263238"/>
<path d="M87.5304 55.9896C86.8766 55.7981 86.3222 56.1314 86.0521 56.5995C85.7892 57.0676 85.8532 57.7129 86.2298 58.0959C86.6136 58.4788 87.2888 58.5426 87.7081 58.2022C87.9924 57.9682 88.1345 57.5994 88.1701 57.2378C88.2056 56.9044 88.1487 56.5428 87.9426 56.2733C87.7365 56.0038 87.3456 55.862 87.04 55.9967" fill="#EB996E"/>
<path d="M91.6807 38.9906C91.2187 36.7496 89.6694 34.8349 87.786 33.5229C86.1869 32.4095 84.2893 31.679 82.342 31.6152C80.3947 31.5585 78.3976 32.2109 76.9833 33.5583C75.9385 34.5512 75.4055 35.9624 75.3629 37.402L75.4766 36.4092C75.1852 37.2248 75.1852 38.1041 75.4908 38.9055C75.4908 38.9055 75.4908 38.9055 75.4908 38.9126V38.9055C75.6542 39.3381 75.8532 39.7778 76.0309 40.2104C76.5284 41.4514 77.495 42.4939 78.689 43.0967C79.2433 43.3733 79.8474 43.5576 80.4657 43.5293C81.084 43.5009 81.7024 43.2385 82.079 42.7492C82.6121 42.0471 82.5481 41.0826 82.4628 40.2104C82.9887 41.033 83.5502 41.8911 84.403 42.3804C85.2559 42.8697 86.4783 42.8485 87.0753 42.0755C87.651 41.3238 87.4235 40.2458 87.0895 39.3594C87.6297 40.1891 88.4114 40.8557 89.3069 41.2741C89.8044 41.5011 90.3872 41.6571 90.8918 41.4372C91.3182 41.2528 91.6025 40.8273 91.7162 40.3735C91.8228 39.9196 91.7731 39.4445 91.6807 38.9906Z" fill="#263238"/>
<path d="M86.5491 40.8417C86.4851 40.8417 86.4922 39.9978 86.2221 38.6929C85.945 37.4093 85.2982 35.5868 83.7702 34.2465C83.0168 33.5869 82.1498 33.126 81.3112 32.9203C80.4725 32.7146 79.6694 32.7359 79.0227 32.8636C77.715 33.126 77.0824 33.75 77.0469 33.6791C77.0327 33.6649 77.1677 33.5018 77.4804 33.2749C77.7931 33.048 78.2906 32.7785 78.9658 32.6083C79.641 32.4452 80.4867 32.3884 81.3893 32.587C82.2919 32.7856 83.223 33.2678 84.0118 33.9628C85.6251 35.3811 86.2648 37.3101 86.478 38.6362C86.5846 39.3099 86.613 39.8631 86.6059 40.246C86.5988 40.6361 86.5704 40.8417 86.5491 40.8417Z" fill="#455A64"/>
<path d="M152.005 123.524L124.678 112.716C124.678 112.716 110.677 94.398 110.969 94.0435L101.14 104.78L115.425 124.07L148.522 131.8L164.194 131.927C162.978 125.914 152.005 123.524 152.005 123.524Z" fill="#FFBE9D"/>
<path d="M92.4406 71.2721L88.7165 69.8325L72.6403 71.8678V74.7045L72.1784 74.7612C72.1784 74.7612 67.1821 75.669 62.328 78.5766C56.4504 82.1012 53.3944 88.8879 54.4818 95.6463C55.1356 99.7028 56.4007 104.631 58.8455 107.482C63.5148 112.929 67.7791 106.199 67.7791 106.199C67.7791 106.199 70.7072 112.872 70.5437 116.021C70.4016 118.666 69.2289 124.169 68.8522 125.885C68.7883 126.176 68.9802 126.453 69.2716 126.509L103.187 132.764L103.35 124.495L102.27 90.4765L100.77 77.2646C100.784 77.2575 100.827 70.9459 92.4406 71.2721Z" fill="#9773FF"/>
<path d="M100.266 75.0591L113.193 93.7032L102.782 106.355L100.266 75.0591Z" fill="#9773FF"/>
<path d="M103.037 114.291C103.009 114.291 102.995 113.858 102.988 113.085C102.98 112.248 102.966 111.142 102.945 109.809C102.881 107.043 102.725 103.228 102.17 99.0434C101.637 94.8593 100.82 91.122 100.194 88.4272C99.8889 87.1294 99.633 86.0515 99.4411 85.2359C99.2635 84.4842 99.1782 84.0658 99.1995 84.0587C99.2208 84.0516 99.3559 84.4629 99.5762 85.2004C99.7965 85.9451 100.095 87.023 100.443 88.3633C101.133 91.044 101.993 94.7884 102.533 98.9938C103.087 103.192 103.201 107.029 103.201 109.802C103.187 111.184 103.165 112.305 103.123 113.085C103.094 113.865 103.059 114.291 103.037 114.291Z" fill="#263238"/>
<path d="M71.2189 85.9449C71.2189 86.0016 70.2381 85.9945 68.6603 86.0796C67.0897 86.1647 64.9149 86.3774 62.5625 86.8597C60.21 87.349 58.1348 88.0085 56.6565 88.5617C55.1782 89.1077 54.2827 89.5049 54.2614 89.4552C54.2472 89.434 54.4604 89.3063 54.8584 89.1007C55.2493 88.895 55.8321 88.6255 56.5641 88.3135C58.0282 87.6965 60.1176 86.9873 62.4914 86.498C64.8723 86.0087 67.0683 85.8314 68.6532 85.8172C69.4492 85.8101 70.0889 85.8243 70.5295 85.8598C70.9701 85.8881 71.2189 85.9165 71.2189 85.9449Z" fill="#FAFAFA"/>
<path d="M101.168 94.4762C101.175 94.5258 100.564 94.6747 99.5547 94.8237C98.5455 94.9797 97.1454 95.1286 95.596 95.1782C94.0396 95.2279 92.6324 95.1782 91.6161 95.0931C90.5998 95.008 89.9814 94.9017 89.9814 94.852C89.9886 94.7953 90.614 94.8095 91.6232 94.8307C92.6324 94.852 94.0325 94.8591 95.5747 94.8095C97.1169 94.7527 98.5099 94.6535 99.5191 94.5613C100.535 94.4833 101.161 94.4265 101.168 94.4762Z" fill="#FAFAFA"/>
<path d="M107.102 86.0441C107.166 86.1151 106.022 87.2568 104.33 88.2851C102.639 89.3205 101.097 89.8169 101.068 89.7318C101.026 89.6325 102.476 88.9872 104.139 87.9731C105.802 86.959 107.031 85.959 107.102 86.0441Z" fill="#FAFAFA"/>
<path d="M101.879 77.3995C101.943 77.4633 100.415 78.832 98.1121 79.7965C95.8165 80.7752 93.7697 80.917 93.7697 80.8319C93.7484 80.7184 95.7313 80.4206 97.97 79.4632C100.216 78.5129 101.808 77.3073 101.879 77.3995Z" fill="#FAFAFA"/>
<path d="M102.582 108.908C102.589 108.929 102.355 109.057 101.907 109.262C101.467 109.468 100.813 109.737 99.9954 110.035C98.3608 110.638 96.0297 111.305 93.3929 111.716C90.7562 112.12 88.3327 112.177 86.5915 112.092C85.7173 112.049 85.0137 111.993 84.5304 111.929C84.0471 111.865 83.7842 111.822 83.7842 111.794C83.7913 111.73 84.8645 111.822 86.5986 111.837C88.3327 111.851 90.7278 111.751 93.3361 111.354C95.9444 110.95 98.2613 110.326 99.9101 109.794C101.566 109.262 102.561 108.858 102.582 108.908Z" fill="#FAFAFA"/>
<path d="M102.845 118.524C102.853 118.538 102.746 118.595 102.54 118.694C102.298 118.808 102 118.95 101.637 119.12C100.855 119.489 99.697 119.971 98.2471 120.51C96.7973 121.056 95.0418 121.623 93.0661 122.162C91.0832 122.687 88.8871 123.169 86.5489 123.538C84.2107 123.892 81.9648 124.091 79.918 124.197C77.8711 124.275 76.0233 124.268 74.4811 124.19C72.9317 124.112 71.688 124.006 70.828 123.892C70.4372 123.836 70.1102 123.793 69.8402 123.758C69.6127 123.722 69.499 123.701 69.499 123.687C69.499 123.673 69.6198 123.673 69.8473 123.687C70.1173 123.701 70.4443 123.722 70.8423 123.751C71.7022 123.822 72.9531 123.892 74.4882 123.935C76.0304 123.985 77.864 123.963 79.9038 123.864C81.9364 123.744 84.168 123.538 86.492 123.183C88.816 122.815 91.005 122.339 92.9808 121.843C94.9494 121.325 96.7049 120.786 98.1618 120.276C99.6188 119.772 100.784 119.325 101.58 118.999C101.95 118.857 102.256 118.737 102.504 118.638C102.725 118.552 102.845 118.517 102.845 118.524Z" fill="#FAFAFA"/>
<path d="M40.4878 269.286L36.6499 286.611L29.6495 299.44C29.1449 300.362 29.5287 301.525 30.4881 301.965C31.0283 302.213 31.6395 302.185 32.1512 301.887C35.4133 300.008 47.3532 293.044 47.5664 291.76C47.808 290.271 52.8327 273.754 52.8327 273.754L40.4878 269.286Z" fill="#FFA826"/>
<g opacity="0.6">
<path d="M30.4883 301.965L47.8509 290.604L47.6732 291.334C47.5168 291.966 47.1473 292.526 46.6213 292.902C45.207 293.916 41.2484 296.646 32.2153 301.908C31.6823 302.206 31.0355 302.227 30.4883 301.965Z" fill="white"/>
</g>
<g opacity="0.6">
<path d="M45.6756 284.172C45.171 284.363 44.8654 284.98 45.0431 285.498C45.2137 286.009 45.8462 286.321 46.3508 286.136C46.8625 285.952 47.2463 285.222 47.0189 284.732C46.7914 284.243 46.031 283.917 45.5832 284.214" fill="white"/>
</g>
<path d="M36.2877 295.398C36.1811 295.419 36.0106 294.426 35.1009 293.689C34.2125 292.923 33.2033 292.937 33.2033 292.824C33.1962 292.781 33.452 292.696 33.8713 292.739C34.2835 292.774 34.8592 292.98 35.3496 293.391C35.8471 293.81 36.1385 294.334 36.2522 294.731C36.373 295.136 36.3375 295.398 36.2877 295.398Z" fill="#263238"/>
<path d="M34.4895 297.405C34.39 297.462 33.9707 296.767 33.1392 296.291C32.3219 295.802 31.5045 295.774 31.5045 295.66C31.4761 295.561 32.4 295.398 33.3382 295.951C34.2834 296.497 34.589 297.384 34.4895 297.405Z" fill="#263238"/>
<path d="M39.3079 293.001C39.2084 293.065 38.5688 291.987 37.3464 291.136C36.1311 290.264 34.9086 290.03 34.93 289.916C34.9229 289.817 36.2661 289.895 37.5738 290.824C38.8815 291.739 39.4003 292.973 39.3079 293.001Z" fill="#263238"/>
<path d="M40.9147 287.831C40.8436 287.923 39.9836 287.292 38.7541 286.945C37.5246 286.576 36.4656 286.654 36.4585 286.533C36.4301 286.434 37.5459 286.179 38.8678 286.569C40.1898 286.945 40.9857 287.767 40.9147 287.831Z" fill="#263238"/>
<path d="M42.1721 282.775C42.0939 282.86 41.2766 282.051 39.9475 281.789C38.6256 281.498 37.5525 281.909 37.5169 281.803C37.4956 281.761 37.7372 281.59 38.1921 281.456C38.6469 281.321 39.315 281.257 40.0257 281.406C40.7364 281.555 41.3263 281.881 41.6888 282.186C42.0512 282.491 42.2076 282.739 42.1721 282.775Z" fill="#263238"/>
<path d="M40.2174 280.832C40.1961 280.825 40.2103 280.583 40.3525 280.172C40.4946 279.761 40.7647 279.179 41.2906 278.591C41.5536 278.314 41.8521 277.952 42.3922 277.846C42.6623 277.789 43.0034 277.924 43.1527 278.201C43.3019 278.47 43.2948 278.768 43.2379 279.044C42.9537 280.137 41.7526 280.959 40.4804 280.817C39.2082 280.647 38.263 279.669 38 278.605C37.9503 278.335 37.9503 278.016 38.1564 277.761C38.3625 277.498 38.7392 277.47 38.9737 277.569C39.4712 277.768 39.7199 278.144 39.9687 278.435C40.4449 279.059 40.6936 279.647 40.8215 280.059C40.9495 280.477 40.9637 280.718 40.9424 280.718C40.8713 280.747 40.7149 279.768 39.7555 278.605C39.5067 278.328 39.2296 277.995 38.8742 277.867C38.6965 277.803 38.526 277.839 38.4265 277.967C38.327 278.087 38.3127 278.314 38.3554 278.527C38.5828 279.399 39.4499 280.293 40.523 280.42C41.5962 280.555 42.6481 279.825 42.8897 278.952C42.9466 278.74 42.9394 278.513 42.8542 278.357C42.776 278.208 42.6125 278.13 42.4348 278.158C42.0653 278.208 41.7526 278.52 41.4896 278.775C40.452 279.874 40.2885 280.867 40.2174 280.832Z" fill="#263238"/>
<g opacity="0.3">
<path d="M40.0395 271.166L39.208 275.137L51.7804 277.222L52.8323 273.754L40.4873 269.286L40.0395 271.166Z" fill="black"/>
</g>
<path d="M96.6755 275.697L95.6379 289.54C95.6379 289.54 109.39 295.242 109.454 297.823L82.4756 296.781L83.2076 275.144L96.6755 275.697Z" fill="#FFA826"/>
<g opacity="0.6">
<path d="M87.3367 288.051C86.8108 288.171 86.427 288.746 86.5265 289.278C86.626 289.81 87.2088 290.2 87.7347 290.093C88.2677 289.98 88.7439 289.306 88.5876 288.788C88.4312 288.271 87.7205 287.845 87.2372 288.079" fill="white"/>
</g>
<g opacity="0.6">
<path d="M82.4688 296.781L82.6251 294.604L108.431 296.419C108.431 296.419 109.611 296.987 109.44 297.823L82.4688 296.781Z" fill="white"/>
</g>
<path d="M96.0783 289.42C96.0712 289.555 95.4103 289.583 94.7422 289.98C94.067 290.363 93.7117 290.916 93.5909 290.859C93.47 290.831 93.6975 290.051 94.5077 289.583C95.3179 289.115 96.1068 289.299 96.0783 289.42Z" fill="#263238"/>
<path d="M98.865 290.696C98.8934 290.824 98.3107 291.03 97.8416 291.569C97.3583 292.093 97.2233 292.689 97.0882 292.682C96.9603 292.696 96.9034 291.923 97.5004 291.264C98.0832 290.597 98.865 290.576 98.865 290.696Z" fill="#263238"/>
<path d="M100.336 294.143C100.215 294.164 100.059 293.505 100.421 292.795C100.784 292.086 101.416 291.824 101.466 291.937C101.537 292.051 101.118 292.42 100.826 293.001C100.528 293.583 100.471 294.129 100.336 294.143Z" fill="#263238"/>
<path d="M95.9655 286.243C95.9086 286.363 95.3116 286.158 94.5583 286.179C93.812 286.186 93.2222 286.413 93.1582 286.299C93.0871 286.2 93.6699 285.739 94.5512 285.725C95.4325 285.697 96.0295 286.136 95.9655 286.243Z" fill="#263238"/>
<g opacity="0.3">
<path d="M96.4626 278.435L96.285 280.902L83.0303 280.271L83.1156 277.42L96.4626 278.435Z" fill="black"/>
</g>
<path d="M96.1211 283.441C96.1211 283.498 95.5952 283.555 94.7708 283.385C94.3586 283.3 93.8753 283.144 93.3707 282.895C93.1219 282.775 92.8661 282.626 92.6102 282.456C92.4894 282.371 92.3473 282.285 92.2122 282.122C92.0701 281.981 91.999 281.626 92.1767 281.42C92.3259 281.222 92.5676 281.137 92.7666 281.144C92.9656 281.144 93.1219 281.193 93.2712 281.236C93.5697 281.321 93.8468 281.427 94.1027 281.555C94.6073 281.81 95.0195 282.122 95.318 282.42C95.9221 283.023 96.114 283.519 96.0714 283.548C96.0074 283.59 95.7231 283.165 95.1048 282.661C94.7992 282.413 94.4012 282.151 93.925 281.938C93.6905 281.832 93.4275 281.739 93.1575 281.668C92.8732 281.583 92.6315 281.569 92.5534 281.697C92.5249 281.747 92.5178 281.761 92.5747 281.846C92.6315 281.924 92.7453 282.002 92.8661 282.087C93.1006 282.25 93.3351 282.399 93.5626 282.52C94.0245 282.768 94.4652 282.945 94.8489 283.073C95.6165 283.314 96.1282 283.371 96.1211 283.441Z" fill="#263238"/>
<path d="M95.9438 283.626C95.8941 283.647 95.6524 283.165 95.6382 282.307C95.6311 281.881 95.6951 281.371 95.8799 280.839C95.9723 280.569 96.1002 280.3 96.2565 280.03C96.4271 279.768 96.6332 279.42 97.1449 279.385C97.415 279.385 97.6282 279.605 97.6922 279.782C97.7774 279.967 97.7846 280.123 97.813 280.279C97.8485 280.598 97.8343 280.903 97.7774 281.186C97.6708 281.754 97.415 282.222 97.1449 282.555C96.5906 283.229 96.0362 283.371 96.022 283.321C95.9794 283.25 96.4484 283.016 96.882 282.364C97.0952 282.037 97.2871 281.612 97.3581 281.115C97.3937 280.867 97.4008 280.605 97.3652 280.335C97.3368 280.045 97.2373 279.811 97.1236 279.839C96.9886 279.832 96.754 280.037 96.6332 280.264C96.484 280.498 96.3631 280.74 96.2708 280.981C96.086 281.463 95.9936 281.924 95.958 282.314C95.8941 283.108 96.0149 283.605 95.9438 283.626Z" fill="#263238"/>
<path d="M68.7456 126.403C68.7456 126.403 64.46 126.587 61.6385 141.146C58.817 155.699 37.1191 273.612 37.1191 273.612L52.8329 273.754L82.4694 161.649L80.5007 277.215L96.4632 278.435C96.4632 278.435 108.439 150.578 108.552 143.139C108.694 133.863 103.357 124.481 103.357 124.481L68.7456 126.403Z" fill="#263238"/>
<path d="M90.3368 125.162C90.4363 125.183 88.8088 133.494 86.698 143.728C84.5872 153.961 82.7962 162.244 82.6967 162.223C82.5972 162.202 84.2247 153.89 86.3355 143.65C88.4463 133.416 90.2373 125.14 90.3368 125.162Z" fill="#455A64"/>
<path d="M92.7892 127.233C92.7608 127.197 93.2156 127.062 93.6989 127.495C93.9263 127.708 94.1466 128.055 94.1253 128.495C94.1182 128.949 93.7771 129.381 93.3222 129.573C92.8745 129.764 92.3201 129.708 91.9861 129.396C91.6521 129.098 91.5597 128.694 91.5668 128.389C91.5952 127.736 92.0074 127.509 92.0145 127.552C92.0643 127.587 91.78 127.857 91.8297 128.382C91.8511 128.63 91.9648 128.942 92.2064 129.133C92.4409 129.332 92.8318 129.374 93.173 129.225C93.5212 129.076 93.7629 128.779 93.7842 128.467C93.8126 128.155 93.6705 127.864 93.507 127.672C93.1659 127.282 92.7821 127.296 92.7892 127.233Z" fill="#455A64"/>
<path d="M92.1069 132.998C92.0998 132.956 92.5475 133.012 92.7963 133.587C92.9029 133.856 92.9526 134.253 92.7536 134.629C92.5546 135.019 92.0713 135.246 91.6023 135.204C91.1332 135.175 90.6855 134.87 90.5504 134.459C90.4083 134.055 90.522 133.672 90.6713 133.424C91.0053 132.892 91.4601 132.906 91.4459 132.949C91.4672 133.005 91.1119 133.09 90.9058 133.544C90.8063 133.764 90.7565 134.069 90.8774 134.338C90.984 134.608 91.2896 134.814 91.6378 134.842C91.9932 134.87 92.3201 134.714 92.4693 134.466C92.6257 134.218 92.6257 133.906 92.5617 133.679C92.4125 133.19 92.0784 133.048 92.1069 132.998Z" fill="#455A64"/>
<path d="M77.047 127.381C77.0683 127.389 77.0114 127.651 76.8622 128.112C76.7129 128.573 76.4429 129.225 76.0307 129.991C75.2205 131.516 73.7066 133.487 71.475 134.955C69.2363 136.43 66.827 137.033 65.1 137.175C64.2329 137.253 63.5293 137.239 63.046 137.196C62.5628 137.154 62.2998 137.104 62.2998 137.083C62.2998 137.012 63.373 137.133 65.0716 136.92C66.763 136.714 69.0942 136.083 71.2689 134.65C73.4437 133.218 74.9504 131.332 75.8032 129.864C76.6774 128.388 76.983 127.36 77.047 127.381Z" fill="#455A64"/>
<path d="M107.621 137.721C107.607 137.743 107.436 137.643 107.152 137.438C106.861 137.239 106.463 136.913 106.015 136.466C105.112 135.58 104.039 134.14 103.336 132.324C102.639 130.509 102.461 128.722 102.54 127.46C102.575 126.828 102.646 126.318 102.731 125.977C102.81 125.63 102.866 125.445 102.888 125.453C102.952 125.467 102.802 126.226 102.802 127.467C102.795 128.701 103.009 130.424 103.684 132.19C104.366 133.948 105.368 135.367 106.207 136.282C107.038 137.204 107.664 137.672 107.621 137.721Z" fill="#455A64"/>
<path d="M62.4909 98.3551L69.47 98.7381C69.9106 100.993 71.4458 104.447 71.4458 104.447C77.0675 94.7171 81.4241 81.6755 82.5044 76.4347C82.348 75.9099 82.1632 75.3355 81.9287 74.683C81.6586 73.9384 81.8932 72.5201 82.014 71.7329C82.2059 70.5628 82.5328 68.9955 82.6252 68.2721C82.9237 66.0595 83.279 65.712 84.0537 65.9602C85.1055 66.3006 83.6202 72.1797 84.4872 72.3073C84.9492 72.3782 85.5178 70.3642 85.6812 68.7118C85.8447 67.0595 86.598 61.9747 87.1453 61.6414C87.9484 61.145 88.6449 61.9322 88.4459 63.5774C88.2398 65.244 87.9839 70.2082 88.8581 70.2791C89.718 70.3429 90.443 61.918 90.443 61.918C90.443 61.918 90.3079 60.0812 91.3171 60.1309C93.1436 60.2089 91.7151 69.0948 91.5588 69.9387C91.4522 70.5273 92.3974 70.6337 92.4827 69.9954C92.568 69.343 93.0086 61.5705 94.8707 61.6343C96.2992 61.6839 93.762 68.9529 94.5651 70.6408C95.3682 72.3286 95.9225 64.9178 97.2871 65.0171C97.7917 65.0525 98.1683 65.1518 97.2373 69.3501C96.7327 71.6052 95.2616 75.7468 93.9752 79.1792C91.8146 90.8096 82.3338 128.013 67.4587 121.205C59.1363 117.396 55.2559 98.5253 55.2559 98.5253L62.4909 98.3551Z" fill="#FFBE9D"/>
<path d="M93.9818 79.1793C93.9747 79.1793 93.9961 79.0871 94.0529 78.924C94.1169 78.7396 94.2022 78.4985 94.3017 78.1936C94.5362 77.5199 94.8631 76.5837 95.2753 75.3852C95.6875 74.1655 96.1993 72.6691 96.7039 70.9104C96.9597 70.031 97.1729 69.0807 97.3719 68.0666C97.4643 67.556 97.5638 67.0312 97.6207 66.4923C97.6491 66.2228 97.6775 65.9462 97.6562 65.6838C97.6349 65.4072 97.5922 65.1803 97.3719 65.1803C97.1445 65.1165 96.9952 65.3079 96.8389 65.542C96.6967 65.776 96.583 66.0526 96.4835 66.3292C96.2845 66.8894 96.1282 67.4851 95.9718 68.0879C95.8155 68.6978 95.6733 69.3218 95.4885 69.9601C95.3748 70.2792 95.3251 70.5913 95.0621 70.9388C95.0124 70.9813 94.9697 71.038 94.8702 71.0593C94.7636 71.0877 94.6783 71.0451 94.6002 71.0026C94.5007 70.9104 94.4509 70.8182 94.4012 70.7331C94.323 70.5558 94.2732 70.3714 94.2519 70.1941C94.124 68.7687 94.4509 67.3929 94.6712 65.9675C94.7921 65.2583 94.92 64.535 95.0195 63.8045C95.0621 63.4428 95.1048 63.0741 95.1048 62.7124C95.119 62.3791 95.0621 61.9252 94.9129 61.8614C94.7281 61.7905 94.4012 61.9961 94.2306 62.3011C94.0316 62.5989 93.8895 62.9464 93.7686 63.3081C93.5199 64.0314 93.3635 64.7973 93.2214 65.5774C93.0864 66.3575 92.9797 67.1518 92.8945 67.9602C92.8518 68.3645 92.8163 68.7687 92.7736 69.18L92.7168 69.797C92.7026 69.9672 92.7026 70.3147 92.4325 70.5133C92.1838 70.6976 91.8568 70.7189 91.5939 70.5487C91.4588 70.4636 91.3593 70.3076 91.338 70.1445C91.3238 70.0665 91.338 69.9885 91.3451 69.9175L91.3736 69.7686C91.4375 69.3573 91.5015 68.946 91.5654 68.5276C91.6863 67.6978 91.7858 66.8539 91.8639 66.0029C91.9421 65.1519 92.0061 64.2938 92.0132 63.4357C92.0132 62.5847 92.0061 61.6912 91.7644 60.9111C91.6863 60.6771 91.5512 60.4572 91.4091 60.4005C91.2598 60.3438 91.0395 60.4005 90.9258 60.5565C90.6771 60.904 90.6415 61.4713 90.6557 61.9323V61.9536V61.9678C90.5065 63.6343 90.3217 65.2725 90.0801 66.8823C89.9592 67.6837 89.8242 68.485 89.6181 69.2722C89.5684 69.4708 89.5044 69.6693 89.4404 69.8608C89.348 70.0594 89.3196 70.258 89.0353 70.4707C88.7937 70.5842 88.6089 70.4565 88.5165 70.3572C88.4099 70.2509 88.3673 70.1445 88.3246 70.0381C88.2393 69.8325 88.2038 69.6268 88.1683 69.4282C87.9408 67.8326 88.0332 66.2937 88.1256 64.7832C88.154 64.0243 88.3388 63.2726 88.2393 62.606C88.1896 62.2798 88.0617 61.9465 87.8413 61.7976C87.7347 61.7266 87.6068 61.7125 87.4789 61.7408C87.4149 61.7621 87.3438 61.7834 87.2799 61.8259C87.2159 61.8756 87.2301 61.8614 87.1804 61.9465C86.9032 62.528 86.7682 63.2584 86.6189 63.918C86.4768 64.5988 86.3631 65.2725 86.2494 65.9391C86.1427 66.6057 86.0432 67.2653 85.958 67.9106C85.8727 68.5559 85.8229 69.2084 85.7021 69.8395C85.5813 70.4707 85.432 71.0877 85.2046 71.6763C85.1478 71.8252 85.0767 71.9671 84.9985 72.1089C84.899 72.2436 84.8422 72.4138 84.5721 72.4989C84.4157 72.5415 84.2807 72.4351 84.2096 72.35C84.1528 72.2578 84.1243 72.1727 84.0959 72.0876C84.0604 71.9245 84.0462 71.7685 84.0391 71.6125C84.0248 70.4069 84.2025 69.2935 84.2665 68.2226C84.302 67.6908 84.3233 67.166 84.2594 66.6837C84.2309 66.4568 84.1528 66.1873 84.0248 66.1377C83.833 66.0597 83.5913 66.0242 83.4492 66.1235C83.1365 66.3504 83.0227 66.8681 82.9232 67.2865C82.8237 67.7262 82.774 68.1588 82.6958 68.5772C82.3973 70.2579 82.0846 71.6976 81.9354 72.8748C81.8643 73.4634 81.8359 73.9953 81.914 74.435C82.0135 74.8676 82.1557 75.2434 82.241 75.5413C82.3263 75.8249 82.3902 76.0519 82.4471 76.2292C82.4897 76.3852 82.511 76.4632 82.5039 76.4632C82.4968 76.4632 82.4613 76.3923 82.4044 76.2363C82.3405 76.0661 82.2623 75.8391 82.1628 75.5625C82.0633 75.2576 81.914 74.9172 81.7932 74.4491C81.7008 73.9882 81.715 73.4421 81.7719 72.8464C81.8998 71.6479 82.1912 70.2154 82.4613 68.5347C82.5395 68.1163 82.575 67.6695 82.6745 67.2227C82.7243 66.9958 82.774 66.7688 82.8593 66.5348C82.9517 66.3079 83.0441 66.0526 83.307 65.8824C83.5842 65.7122 83.8898 65.776 84.1457 65.8682C84.4797 66.0597 84.4939 66.3788 84.5508 66.627C84.6218 67.1589 84.6005 67.6908 84.5721 68.2297C84.5223 69.3077 84.3518 70.4352 84.3731 71.5841C84.3802 71.7259 84.3944 71.8607 84.4228 71.9883C84.4513 72.1231 84.5223 72.1798 84.5081 72.1514C84.5366 72.1585 84.6432 72.0309 84.7 71.9245C84.764 71.8039 84.8279 71.6692 84.8777 71.5345C85.0909 70.9813 85.233 70.3785 85.3468 69.7615C85.4676 69.1516 85.5031 68.5063 85.5884 67.8539C85.6666 67.2014 85.7661 66.5419 85.8656 65.8682C85.9722 65.1945 86.0859 64.5208 86.228 63.8329C86.3844 63.145 86.4839 62.4571 86.825 61.7408C86.8463 61.6699 86.9956 61.5068 87.0738 61.4642C87.1662 61.4075 87.2657 61.3721 87.3723 61.3366C87.5926 61.2799 87.8556 61.3082 88.0546 61.443C88.4454 61.7195 88.5663 62.145 88.6373 62.528C88.6942 62.918 88.68 63.3081 88.6302 63.6839C88.5876 64.0456 88.5592 64.4215 88.5307 64.7903C88.4454 66.2724 88.3602 67.8255 88.5805 69.336C88.616 69.5204 88.6515 69.7048 88.7155 69.8608C88.751 69.9317 88.7866 70.0097 88.8221 70.0452C88.8434 70.0665 88.8505 70.0665 88.8576 70.0736C88.8434 70.2367 88.8576 70.109 88.8505 70.1445C88.8505 70.1161 88.8434 70.1161 88.8221 70.0807C88.8577 70.0523 88.9714 69.8537 89.0282 69.6906C89.0922 69.5133 89.149 69.3289 89.1917 69.1375C89.3836 68.3787 89.5186 67.5915 89.6394 66.7901C89.874 65.1945 90.0587 63.5563 90.208 61.9039V61.9394C90.2009 61.3933 90.1938 60.826 90.5705 60.2587C90.7908 59.9821 91.1888 59.8261 91.5654 59.9679C91.935 60.1381 92.07 60.4714 92.1767 60.7409C92.4609 61.6486 92.4467 62.5351 92.4538 63.4145C92.4396 64.2938 92.3828 65.159 92.2975 66.0171C92.2122 66.8752 92.1127 67.7191 91.9919 68.563C91.9279 68.9814 91.8639 69.3999 91.8 69.8183C91.7502 70.0807 91.7573 70.0878 91.8355 70.1658C91.9208 70.2296 92.0843 70.2225 92.1695 70.1516C92.2619 70.0878 92.269 69.9672 92.2904 69.7403L92.3472 69.1233C92.3899 68.712 92.4325 68.3006 92.468 67.8964C92.5604 67.0809 92.667 66.2795 92.8092 65.4852C92.9513 64.691 93.1148 63.9109 93.3778 63.1521C93.5128 62.7762 93.662 62.4004 93.8966 62.0529C94.0174 61.8827 94.1524 61.7125 94.3514 61.5848C94.5575 61.4642 94.7849 61.3579 95.0905 61.4784C95.3819 61.6344 95.4317 61.9039 95.4814 62.1025C95.5099 62.3082 95.5241 62.5138 95.517 62.7053C95.5099 63.0953 95.4672 63.4712 95.4175 63.8471C95.318 64.5917 95.1829 65.315 95.0621 66.0242C94.8276 67.4355 94.5078 68.8396 94.6215 70.1374C94.6357 70.2934 94.6783 70.4423 94.7352 70.57C94.7707 70.6338 94.8063 70.6905 94.8276 70.7118C94.8276 70.7047 94.8205 70.6976 94.8134 70.7402C94.8063 70.7969 94.8134 70.726 94.8063 70.7402C94.7778 70.6976 94.7992 70.7118 94.8134 70.6905C94.9626 70.5062 95.0692 70.1516 95.1616 69.8608C95.3464 69.2438 95.4957 68.6127 95.652 68.0028C95.8084 67.3929 95.9718 66.7901 96.185 66.2157C96.2916 65.9249 96.4054 65.6413 96.5759 65.3718C96.6683 65.237 96.7536 65.1023 96.9029 64.9959C96.9668 64.9392 97.0663 64.8966 97.1587 64.8683C97.2724 64.8541 97.3577 64.8541 97.4288 64.8683C97.5993 64.8754 97.8197 65.0243 97.8765 65.1945C97.9476 65.3576 97.9618 65.5136 97.9689 65.6625C97.9831 65.9604 97.9476 66.244 97.9192 66.5206C97.8552 67.0738 97.7486 67.5986 97.6491 68.1092C97.443 69.1304 97.2156 70.0948 96.9455 70.9671C96.4125 72.7259 95.8794 74.2151 95.4388 75.4278C94.9982 76.6405 94.6357 77.5766 94.387 78.2077C94.2661 78.5056 94.1737 78.7396 94.0956 78.924C94.0316 79.1013 93.989 79.1793 93.9818 79.1793Z" fill="#EB996E"/>
<path d="M55.1924 99.1637C56.5427 103.915 59.1794 111.262 62.0152 119.006C62.4274 120.127 63.9838 120.198 64.4955 119.12L71.4462 104.454C71.4462 104.454 69.769 92.4053 69.9111 92.8308C70.0533 93.2563 55.5619 94.391 55.5619 94.391L55.1924 99.1637Z" fill="#9773FF"/>
<path d="M70.8497 96.8021C70.8639 96.8589 69.9826 97.1142 68.6109 97.639C67.2322 98.1638 65.3701 98.9935 63.4512 100.149C61.5323 101.312 59.9332 102.575 58.8316 103.553C57.73 104.532 57.0975 105.192 57.0548 105.149C57.0335 105.135 57.1757 104.951 57.4457 104.631C57.7087 104.312 58.128 103.88 58.661 103.362C59.7271 102.327 61.3191 101.015 63.2664 99.8303C65.2137 98.6531 67.1184 97.8517 68.5256 97.3908C69.2292 97.1567 69.812 96.9936 70.2171 96.9085C70.6151 96.8163 70.8425 96.7738 70.8497 96.8021Z" fill="#FAFAFA"/>
<path d="M73.6064 100.454C73.5709 100.483 73.0947 99.9224 72.448 98.9367C71.8012 97.951 70.991 96.5255 70.3016 94.8661C69.6122 93.1995 69.1716 91.6252 68.93 90.4692C68.6883 89.3133 68.6315 88.5899 68.6741 88.5828C68.731 88.5757 68.8802 89.2849 69.1858 90.4125C69.4843 91.5401 69.9605 93.086 70.6428 94.7242C71.325 96.3695 72.0855 97.7949 72.6754 98.802C73.2582 99.8161 73.649 100.426 73.6064 100.454Z" fill="#263238"/>
<path d="M78.2482 35.4876C75.8176 39.4093 75.2988 44.487 76.8908 48.8271C77.6015 50.7773 78.7386 52.6992 78.5325 54.77C78.3193 56.8904 76.7131 58.8902 77.2817 60.9397C77.6157 62.1524 78.6604 63.0531 79.0584 64.2445C79.5275 65.6415 79.0371 67.1592 78.8168 68.6129C78.2482 72.329 79.4351 76.0592 79.7336 79.8107C80.025 83.5552 79.0158 87.9449 75.6683 89.576C74.652 90.0724 73.323 90.2143 72.4773 89.4555C71.4041 88.491 71.7026 86.7677 71.994 85.3494C74.9363 71.1518 65.8464 57.323 67.9216 42.9694C68.2557 40.6717 69.5421 36.7641 71.2051 35.1543C72.8682 33.5445 77.4522 33.7431 79.0229 35.438" fill="#263238"/>
<path d="M64.2474 76.6333C64.2189 76.612 64.6738 76.1227 65.3134 75.1157C65.9531 74.1158 66.749 72.5556 67.1684 70.4706C67.3745 69.4282 67.4597 68.2722 67.3887 67.0241C67.3318 65.7759 67.1613 64.4285 67.2394 62.996C67.2679 62.2797 67.4242 61.5422 67.6445 60.8259C67.8933 60.1097 68.2273 59.4147 68.6182 58.741C69.4142 57.4006 70.4234 56.1525 71.3402 54.8122C72.2641 53.4789 73.0246 52.0748 73.2733 50.5855C73.5221 49.0963 73.252 47.6212 73.0246 46.2312C72.7758 44.8412 72.6053 43.4725 72.7119 42.2031C72.7901 40.9337 73.0459 39.7636 73.3942 38.7424C74.0906 36.6929 75.1212 35.232 75.903 34.3313C76.2938 33.8775 76.6279 33.5442 76.8695 33.3385C77.104 33.1257 77.232 33.0265 77.2462 33.0336C77.2746 33.0619 76.77 33.4945 76.0167 34.4235C75.2775 35.3455 74.2968 36.7993 73.6429 38.8275C73.3231 39.8345 73.0885 40.9834 73.0175 42.2244C72.9322 43.4725 73.1028 44.7916 73.3586 46.1816C73.5932 47.5645 73.8845 49.075 73.6287 50.6493C73.3728 52.2166 72.5768 53.6846 71.6458 55.0249C70.7148 56.3794 69.7056 57.6205 68.9309 58.9254C68.54 59.5778 68.2202 60.2515 67.9786 60.9394C67.7654 61.6273 67.609 62.3223 67.5735 63.0244C67.4811 64.4143 67.6445 65.7547 67.6872 67.017C67.7511 68.2793 67.6445 69.4778 67.4171 70.5345C66.9551 72.6549 66.1023 74.2221 65.4271 75.2079C65.086 75.7043 64.7875 76.066 64.5814 76.3C64.3682 76.5199 64.2545 76.6404 64.2474 76.6333Z" fill="#455A64"/>
<path d="M57.5026 77.6901C57.4884 77.6831 57.5666 77.5199 57.7229 77.215C57.9006 76.8817 58.128 76.4349 58.4123 75.8818C59.0093 74.7258 59.8977 73.0593 60.7719 70.9105C61.6318 68.7688 62.4847 66.0881 62.506 63.0316C62.5131 62.2728 62.4562 61.4927 62.3354 60.7055C62.2146 59.9184 62.0298 59.117 61.909 58.2731C61.7953 57.4363 61.7384 56.5427 61.9659 55.6633C62.1862 54.7769 62.7405 53.9968 63.4157 53.3869C64.7589 52.1742 66.3722 51.3799 67.2038 49.9545C68.0566 48.5575 68.2485 46.9122 68.4617 45.4087C68.6465 43.884 68.9379 42.416 69.4425 41.1253C69.9258 39.8276 70.5725 38.7 71.2477 37.7426C72.6051 35.8137 74.1118 34.601 75.1992 33.8776C75.7465 33.516 76.1871 33.2677 76.4998 33.1188C76.8054 32.9628 76.976 32.8919 76.976 32.9061C76.9973 32.9415 76.3364 33.2536 75.2774 33.9982C74.2256 34.7499 72.7686 35.9768 71.4609 37.8915C70.8142 38.8418 70.1887 39.9552 69.7339 41.2317C69.2577 42.5011 68.9805 43.9266 68.8029 45.4513C68.5968 46.9618 68.4191 48.6426 67.5165 50.146C66.6139 51.6778 64.9366 52.4933 63.6716 53.6564C63.0319 54.2379 62.5344 54.9471 62.3283 55.7555C62.1222 56.564 62.1649 57.4079 62.2786 58.2234C62.3923 59.0461 62.57 59.8474 62.6908 60.6488C62.8116 61.4572 62.8685 62.2515 62.8542 63.0316C62.8045 66.159 61.9161 68.861 61.0206 71.0098C60.1038 73.1656 59.1799 74.8109 58.5474 75.9456C58.2346 76.4846 57.9859 76.9172 57.794 77.2434C57.6163 77.5483 57.5168 77.6972 57.5026 77.6901Z" fill="#455A64"/>
<path d="M292.654 278.08C292.647 278.08 292.689 277.974 292.782 277.782C292.881 277.57 293.016 277.286 293.187 276.924C293.528 276.165 293.976 275.024 294.366 273.492C295.148 270.442 295.425 265.783 294.267 260.245C293.727 257.472 292.86 254.5 291.808 251.352C290.763 248.196 289.555 244.841 288.567 241.225C287.586 237.615 286.819 233.693 286.968 229.58C287.117 225.46 288.34 221.347 289.683 217.255C291.026 213.156 292.412 209.149 292.824 205.121C293.293 201.1 292.433 197.15 290.593 193.909C288.816 190.639 286.577 187.838 284.9 184.945C283.201 182.059 282.135 179.087 281.481 176.328C280.209 170.761 280.657 166.067 281.261 162.975C281.922 159.869 282.654 158.259 282.654 158.259C282.661 158.259 282.633 158.365 282.569 158.571C282.498 158.791 282.405 159.096 282.284 159.471C282.036 160.266 281.716 161.45 281.417 163.003C280.863 166.088 280.465 170.747 281.766 176.258C282.434 178.988 283.5 181.917 285.198 184.768C286.868 187.633 289.114 190.413 290.934 193.724C292.81 196.994 293.713 201.071 293.236 205.163C292.817 209.262 291.424 213.297 290.081 217.389C288.738 221.481 287.529 225.545 287.38 229.594C287.231 233.644 287.977 237.523 288.944 241.118C289.917 244.721 291.111 248.075 292.142 251.238C293.187 254.401 294.04 257.394 294.565 260.188C295.695 265.762 295.369 270.471 294.53 273.527C294.103 275.059 293.634 276.201 293.265 276.953C293.08 277.307 292.931 277.584 292.824 277.796C292.711 277.988 292.654 278.08 292.654 278.08Z" fill="#263238"/>
<path d="M287.167 187.803C287.167 187.803 283.763 176.953 289.868 170.598C290.081 170.379 290.458 170.478 290.514 170.783C290.841 172.577 291.247 178.038 287.167 187.803Z" fill="#FFA826"/>
<path d="M289.207 174.215C289.264 174.229 289.164 174.988 288.979 176.215C288.759 177.591 288.496 179.215 288.205 181.002C287.92 182.789 287.664 184.413 287.444 185.789C287.259 187.016 287.146 187.775 287.082 187.768C287.025 187.76 287.032 186.995 287.146 185.753C287.259 184.512 287.48 182.81 287.785 180.938C288.091 179.066 288.418 177.378 288.688 176.166C288.951 174.946 289.15 174.201 289.207 174.215Z" fill="#263238"/>
<path d="M291.168 213.404C291.168 213.404 293.25 202.22 301.622 199.455C301.914 199.355 302.198 199.625 302.106 199.923C301.551 201.653 299.348 206.674 291.168 213.404Z" fill="#FFA826"/>
<path d="M299.334 202.341C299.377 202.376 298.936 203.008 298.19 204.007C297.344 205.121 296.356 206.433 295.262 207.88C294.174 209.326 293.186 210.638 292.348 211.759C291.609 212.759 291.154 213.376 291.104 213.34C291.054 213.312 291.424 212.631 292.106 211.589C292.788 210.546 293.783 209.142 294.928 207.631C296.079 206.121 297.159 204.78 297.962 203.83C298.765 202.866 299.291 202.305 299.334 202.341Z" fill="#263238"/>
<path d="M288.901 241.452C288.901 241.452 287.636 230.147 294.842 225.077C295.098 224.9 295.446 225.077 295.439 225.382C295.418 227.197 294.778 232.637 288.901 241.452Z" fill="#FFA826"/>
<path d="M293.499 228.495C293.556 228.516 293.314 229.247 292.895 230.417C292.412 231.729 291.843 233.268 291.218 234.97C290.6 236.672 290.031 238.211 289.555 239.523C289.136 240.693 288.88 241.416 288.823 241.402C288.773 241.388 288.922 240.629 289.271 239.431C289.619 238.232 290.159 236.601 290.82 234.821C291.481 233.041 292.12 231.445 292.618 230.303C293.108 229.169 293.45 228.474 293.499 228.495Z" fill="#263238"/>
<path d="M295.212 269.662C295.212 269.662 294.352 258.323 301.737 253.507C301.992 253.337 302.341 253.529 302.326 253.834C302.234 255.656 301.395 261.067 295.212 269.662Z" fill="#FFA826"/>
<path d="M300.273 256.883C300.329 256.904 300.059 257.628 299.597 258.784C299.064 260.074 298.446 261.592 297.757 263.273C297.074 264.953 296.456 266.471 295.93 267.762C295.468 268.91 295.191 269.627 295.134 269.613C295.084 269.598 295.262 268.847 295.653 267.662C296.044 266.478 296.641 264.868 297.366 263.109C298.091 261.358 298.787 259.783 299.32 258.663C299.853 257.535 300.216 256.855 300.273 256.883Z" fill="#263238"/>
<path d="M282.285 178.272C282.285 178.272 272.185 173.01 271.986 164.209C271.979 163.897 272.32 163.705 272.576 163.883C274.076 164.918 278.234 168.485 282.285 178.272Z" fill="#FFA826"/>
<path d="M274.083 167.23C274.133 167.194 274.602 167.804 275.341 168.804C276.159 169.939 277.125 171.265 278.191 172.733C279.257 174.201 280.224 175.52 281.048 176.655C281.787 177.655 282.249 178.264 282.2 178.307C282.157 178.342 281.617 177.796 280.814 176.839C280.011 175.882 278.959 174.527 277.85 172.981C276.741 171.442 275.775 170.017 275.1 168.974C274.417 167.932 274.034 167.265 274.083 167.23Z" fill="#263238"/>
<path d="M293.13 201.575C293.13 201.575 282.725 196.93 281.993 188.164C281.964 187.859 282.299 187.647 282.561 187.803C284.125 188.746 288.489 192.058 293.13 201.575Z" fill="#FFA826"/>
<path d="M284.268 191.058C284.317 191.022 284.822 191.604 285.618 192.554C286.506 193.632 287.551 194.902 288.702 196.306C289.861 197.703 290.906 198.965 291.794 200.043C292.59 200.993 293.087 201.582 293.045 201.625C293.002 201.66 292.426 201.149 291.574 200.242C290.714 199.334 289.584 198.043 288.375 196.575C287.174 195.107 286.123 193.746 285.383 192.739C284.651 191.732 284.225 191.093 284.268 191.058Z" fill="#263238"/>
<path d="M287.146 227.58C287.146 227.58 280.003 218.723 283.351 210.581C283.472 210.298 283.856 210.255 284.019 210.518C284.978 212.064 287.359 216.992 287.146 227.58Z" fill="#FFA826"/>
<path d="M284.061 214.184C284.118 214.177 284.31 214.921 284.58 216.134C284.879 217.503 285.227 219.098 285.611 220.871C286.002 222.637 286.357 224.24 286.655 225.602C286.933 226.807 287.103 227.559 287.046 227.58C286.997 227.594 286.719 226.878 286.364 225.68C286.016 224.481 285.596 222.814 285.191 220.964C284.793 219.106 284.481 217.418 284.282 216.191C284.09 214.957 284.004 214.191 284.061 214.184Z" fill="#263238"/>
<path d="M294.217 258.174C294.217 258.174 283.89 253.359 283.308 244.579C283.286 244.274 283.62 244.061 283.883 244.232C285.433 245.196 289.739 248.579 294.217 258.174Z" fill="#FFA826"/>
<path d="M285.539 247.501C285.589 247.465 286.086 248.054 286.868 249.018C287.735 250.111 288.759 251.401 289.889 252.82C291.019 254.238 292.042 255.514 292.916 256.607C293.698 257.571 294.181 258.167 294.139 258.209C294.096 258.245 293.528 257.72 292.689 256.805C291.85 255.883 290.734 254.571 289.555 253.082C288.375 251.593 287.352 250.217 286.634 249.196C285.902 248.189 285.489 247.536 285.539 247.501Z" fill="#263238"/>
<path d="M314.778 213.461C314.785 213.461 314.793 213.546 314.793 213.709C314.785 213.907 314.778 214.149 314.771 214.439C314.743 215.12 314.7 216.042 314.65 217.198C314.515 219.623 314.331 222.999 314.11 227.041V227.048V227.063C313.371 231.176 311.275 235.736 308.453 240.168C306.385 243.43 304.217 246.395 302.341 249.153C300.458 251.905 298.866 254.451 297.764 256.706C296.648 258.961 296.001 260.897 295.625 262.252C295.44 262.932 295.305 263.457 295.227 263.826C295.141 264.188 295.092 264.379 295.078 264.372C295.063 264.372 295.085 264.173 295.141 263.805C295.191 263.436 295.305 262.897 295.461 262.209C295.795 260.833 296.407 258.869 297.494 256.578C298.574 254.288 300.152 251.706 302.021 248.933C303.876 246.153 306.037 243.189 308.098 239.941C310.905 235.537 312.994 231.041 313.755 226.992V227.013C314.039 222.971 314.274 219.595 314.444 217.177C314.537 216.028 314.615 215.106 314.665 214.425C314.693 214.134 314.714 213.9 314.736 213.702C314.757 213.546 314.771 213.461 314.778 213.461Z" fill="#263238"/>
<path d="M308.638 239.324C308.638 239.324 313.009 228.821 307.508 221.942C307.316 221.701 306.932 221.772 306.847 222.07C306.357 223.829 305.461 229.225 308.638 239.324Z" fill="#FFA826"/>
<path d="M307.842 225.609C307.899 225.602 308.034 226.36 308.19 227.594C308.346 228.828 308.517 230.537 308.652 232.431C308.787 234.324 308.851 236.041 308.851 237.289C308.851 238.537 308.787 239.303 308.73 239.303C308.666 239.303 308.624 238.537 308.553 237.296C308.46 235.906 308.346 234.268 308.226 232.459C308.098 230.651 307.984 229.013 307.885 227.623C307.806 226.382 307.778 225.609 307.842 225.609Z" fill="#263238"/>
<g opacity="0.3">
<path d="M308.638 239.324C308.638 239.324 313.009 228.821 307.508 221.942C307.316 221.701 306.932 221.772 306.847 222.07C306.357 223.829 305.461 229.225 308.638 239.324Z" fill="black"/>
</g>
<path d="M295.092 264.627C295.092 264.627 298.595 253.805 292.554 247.394C292.341 247.167 291.965 247.274 291.908 247.572C291.567 249.366 291.105 254.819 295.092 264.627Z" fill="#FFA826"/>
<path d="M293.187 251.018C293.244 251.004 293.443 251.756 293.692 252.968C293.948 254.188 294.261 255.876 294.545 257.748C294.836 259.62 295.035 261.33 295.142 262.571C295.241 263.812 295.241 264.585 295.184 264.592C295.121 264.599 295.021 263.833 294.843 262.606C294.637 261.223 294.396 259.606 294.126 257.812C293.855 256.018 293.607 254.401 293.394 253.018C293.216 251.798 293.131 251.032 293.187 251.018Z" fill="#263238"/>
<g opacity="0.3">
<path d="M295.092 264.627C295.092 264.627 298.595 253.805 292.554 247.394C292.341 247.167 291.965 247.274 291.908 247.572C291.567 249.366 291.105 254.819 295.092 264.627Z" fill="black"/>
</g>
<path d="M314.202 226.495C314.202 226.495 323.541 219.971 322.596 211.227C322.56 210.922 322.198 210.773 321.97 210.979C320.613 212.198 316.953 216.269 314.202 226.495Z" fill="#FFA826"/>
<g opacity="0.3">
<path d="M314.202 226.495C314.202 226.495 323.541 219.971 322.596 211.227C322.56 210.922 322.198 210.773 321.97 210.979C320.613 212.198 316.953 216.269 314.202 226.495Z" fill="black"/>
</g>
<path d="M320.904 214.489C320.954 214.517 320.663 215.226 320.13 216.354C319.597 217.475 318.822 219.013 317.919 220.68C317.017 222.354 316.15 223.836 315.474 224.885C314.799 225.935 314.337 226.552 314.288 226.516C314.238 226.481 314.615 225.814 315.212 224.729C315.88 223.502 316.668 222.063 317.536 220.474C318.403 218.879 319.184 217.439 319.852 216.212C320.464 215.127 320.855 214.461 320.904 214.489Z" fill="#263238"/>
<path d="M298.858 253.905C298.858 253.905 310.116 252.153 313.137 243.884C313.243 243.593 312.98 243.303 312.682 243.388C310.926 243.884 305.838 245.934 298.858 253.905Z" fill="#FFA826"/>
<g opacity="0.3">
<path d="M298.858 253.905C298.858 253.905 310.116 252.153 313.137 243.884C313.243 243.593 312.98 243.303 312.682 243.388C310.926 243.884 305.838 245.934 298.858 253.905Z" fill="black"/>
</g>
<path d="M310.173 246.075C310.208 246.125 309.633 246.629 308.652 247.409C307.678 248.182 306.307 249.224 304.757 250.323C303.208 251.43 301.772 252.38 300.706 253.025C299.64 253.671 298.951 254.018 298.922 253.969C298.887 253.912 299.526 253.479 300.543 252.77C301.687 251.962 303.03 251.018 304.508 249.976C305.987 248.926 307.33 247.976 308.467 247.168C309.498 246.451 310.137 246.026 310.173 246.075Z" fill="#263238"/>
<path d="M288.113 274.577L284.829 296.639H305.297L302.647 274.577H288.113Z" fill="#455A64"/>
<path d="M303.464 281.413C303.464 281.534 299.768 281.626 295.212 281.626C290.65 281.626 286.961 281.534 286.961 281.413C286.961 281.293 290.657 281.2 295.212 281.2C299.768 281.2 303.464 281.3 303.464 281.413Z" fill="#263238"/>
<path d="M303.869 283.172C303.869 283.293 300.052 283.385 295.348 283.385C290.636 283.385 286.826 283.293 286.826 283.172C286.826 283.051 290.643 282.959 295.348 282.959C300.052 282.959 303.869 283.051 303.869 283.172Z" fill="#263238"/>
<path d="M224.277 60.6205C224.277 60.6205 224.085 60.6276 223.723 60.6134C223.353 60.5992 222.813 60.5708 222.095 60.6205C220.674 60.6985 218.549 60.968 216.04 62.0105C213.559 63.0529 210.66 64.9039 208.35 67.9888C207.206 69.5277 206.246 71.3715 205.664 73.4706C205.102 75.5698 204.91 77.8959 205.18 80.2929C205.486 82.6828 206.218 85.1507 207.561 87.42C208.229 88.5547 209.018 89.6539 209.977 90.6184C210.909 91.6183 212.01 92.4977 213.247 93.1714C214.483 93.838 215.898 94.2635 217.348 94.1997C218.783 94.15 220.269 93.6465 221.32 92.604C222.379 91.5616 222.905 90.0368 222.905 88.5192C222.912 86.9874 222.379 85.4627 221.463 84.172C219.615 81.5835 216.637 79.8461 213.46 78.9029C210.255 77.9739 206.737 77.9455 203.368 78.761C201.691 79.1936 200.049 79.839 198.507 80.69C196.964 81.5481 195.564 82.6686 194.335 83.9593C194.043 84.2997 193.709 84.6046 193.454 84.9663L192.65 86.0442C192.181 86.8101 191.705 87.576 191.343 88.4128C190.589 90.0581 190.063 91.824 189.801 93.6394C189.324 97.2704 189.765 101.015 191.236 104.277C192.658 107.546 195.081 110.355 198.102 112.042C199.608 112.879 201.271 113.425 202.963 113.517C204.647 113.624 206.332 113.191 207.76 112.369C209.189 111.553 210.383 110.319 211.008 108.844C211.626 107.362 211.619 105.674 211.079 104.206C210.553 102.724 209.558 101.454 208.407 100.433C207.248 99.4192 205.891 98.6533 204.477 98.1568C201.612 97.2207 198.556 97.2704 195.827 98.0079C193.091 98.7525 190.646 100.157 188.727 101.958C186.816 103.766 185.472 105.986 184.662 108.248C183.02 112.815 183.44 117.446 184.847 120.992C186.297 124.566 188.599 127.105 190.703 128.786C192.828 130.481 194.754 131.396 196.083 131.913C196.751 132.169 197.263 132.346 197.618 132.445C197.967 132.552 198.144 132.623 198.144 132.623C198.144 132.623 197.959 132.58 197.604 132.488C197.249 132.403 196.73 132.232 196.048 131.991C194.712 131.495 192.757 130.594 190.604 128.906C188.472 127.233 186.133 124.68 184.648 121.077C183.205 117.496 182.757 112.808 184.406 108.17C185.224 105.866 186.581 103.61 188.521 101.759C190.469 99.9227 192.949 98.4831 195.735 97.7242C198.514 96.9725 201.627 96.9087 204.576 97.859C206.033 98.3696 207.426 99.1497 208.62 100.192C209.807 101.235 210.837 102.547 211.392 104.1C211.953 105.639 211.975 107.419 211.321 108.986C210.66 110.553 209.416 111.83 207.931 112.688C206.445 113.539 204.69 113.993 202.941 113.886C201.193 113.794 199.473 113.234 197.924 112.369C194.825 110.638 192.352 107.766 190.902 104.433C189.403 101.1 188.955 97.2917 189.438 93.5969C189.708 91.7459 190.241 89.9447 191.016 88.271C191.385 87.42 191.876 86.6399 192.352 85.8527L193.169 84.7464C193.432 84.3706 193.773 84.0585 194.072 83.7181C195.33 82.3991 196.765 81.2573 198.336 80.385C199.907 79.5199 201.577 78.8674 203.29 78.4206C206.722 77.5909 210.304 77.6193 213.574 78.5696C216.814 79.534 219.849 81.2999 221.761 83.9805C222.706 85.3138 223.268 86.9165 223.254 88.5192C223.254 90.1149 222.699 91.7247 221.562 92.8381C220.432 93.9515 218.868 94.4763 217.369 94.5188C215.855 94.5755 214.377 94.1288 213.112 93.4409C211.84 92.7459 210.717 91.8381 209.771 90.824C208.791 89.8312 207.995 88.7107 207.319 87.5618C205.962 85.25 205.23 82.7395 204.931 80.3212C204.669 77.8888 204.868 75.5343 205.45 73.4068C206.047 71.2864 207.028 69.4142 208.194 67.8611C210.546 64.7478 213.488 62.904 215.997 61.8686C218.534 60.8332 220.681 60.5921 222.102 60.5354C222.82 60.4999 223.367 60.5354 223.737 60.5637C224.092 60.5992 224.277 60.6205 224.277 60.6205Z" fill="#263238"/>
<path d="M248.014 131.58H148.366V208.27H248.014V131.58Z" fill="#9773FF"/>
<path d="M148.366 131.58L166.766 148.714H264.73L248.014 131.58H148.366Z" fill="#9773FF"/>
<path d="M148.366 131.58C150.164 131.58 191.321 131.502 248.014 131.396H248.093L248.149 131.452C253.487 136.92 259.03 142.601 264.695 148.402C264.752 148.458 264.808 148.522 264.865 148.579L265.171 148.891H264.73C224.561 148.863 188.912 148.834 166.774 148.82H166.731L166.702 148.792C155.175 137.977 148.97 132.147 148.366 131.58C148.977 132.14 155.232 137.92 166.845 148.629L166.766 148.6C188.905 148.586 224.554 148.558 264.723 148.529L264.588 148.841C264.531 148.785 264.474 148.728 264.418 148.664C258.753 142.856 253.217 137.175 247.879 131.708L248.007 131.765C191.321 131.658 150.157 131.587 148.366 131.58Z" fill="#263238"/>
<path d="M178.295 166.946C177.243 166.946 176.276 167.897 176.262 168.946C176.241 169.996 177.172 170.974 178.224 171.017C179.275 171.052 180.278 170.145 180.334 169.095C180.391 168.046 179.503 167.031 178.451 166.953" fill="#263238"/>
<path d="M201.826 166.946C200.774 166.946 199.808 167.897 199.793 168.946C199.772 169.996 200.703 170.974 201.755 171.017C202.807 171.052 203.809 170.145 203.866 169.095C203.923 168.046 203.034 167.031 201.982 166.953" fill="#263238"/>
<path d="M201.976 185.3C201.869 185.342 201.713 183.378 200 180.889C199.162 179.655 197.904 178.343 196.233 177.286C194.577 176.222 192.467 175.464 190.192 175.378C187.918 175.336 185.772 175.981 184.059 176.953C182.332 177.917 181.01 179.158 180.1 180.343C178.26 182.732 177.99 184.683 177.89 184.633C177.876 184.633 177.897 184.513 177.947 184.3C178.011 184.087 178.054 183.754 178.21 183.357C178.466 182.548 178.992 181.413 179.894 180.179C180.79 178.946 182.133 177.655 183.888 176.648C185.637 175.634 187.847 174.953 190.2 175.003C192.552 175.088 194.72 175.889 196.411 176.995C198.117 178.102 199.382 179.463 200.206 180.74C201.045 182.016 201.5 183.179 201.713 184.002C201.848 184.406 201.876 184.739 201.919 184.959C201.976 185.186 201.99 185.3 201.976 185.3Z" fill="#263238"/>
<path opacity="0.5" d="M148.587 132.424L166.212 154.72H248.015V148.713H166.767L148.587 132.424Z" fill="black"/>
<path d="M228.364 208.099C228.264 208.099 228.179 194.76 228.179 178.307C228.179 161.847 228.264 148.515 228.364 148.515C228.463 148.515 228.548 161.854 228.548 178.307C228.548 194.76 228.463 208.099 228.364 208.099Z" fill="#263238"/>
<path d="M244.006 190.711H235.222V200.618H244.006V190.711Z" fill="#F5F5F5"/>
<path d="M148.367 131.58L127.905 148.714H148.367V131.58Z" fill="#E8505B"/>
<g opacity="0.4">
<path d="M148.367 131.58L127.905 148.714H148.367V131.58Z" fill="#9773FF"/>
</g>
<path d="M250.957 208.27H136.384V296.448H250.957V208.27Z" fill="#E8505B"/>
<path opacity="0.3" d="M250.957 208.27H136.384V296.448H250.957V208.27Z" fill="#9773FF"/>
<path d="M222.244 295.824C222.145 295.824 222.06 276.172 222.06 251.926C222.06 227.679 222.145 208.028 222.244 208.028C222.344 208.028 222.429 227.679 222.429 251.926C222.429 276.172 222.351 295.824 222.244 295.824Z" fill="#263238"/>
<path d="M241.241 276.378H232.457V286.285H241.241V276.378Z" fill="#F5F5F5"/>
<path d="M184.349 208.496H171.336V227.311H184.349V208.496Z" fill="#263238"/>
<path d="M184.349 277.371H171.336V296.185H184.349V277.371Z" fill="#263238"/>
<path d="M249.954 208.269C249.954 208.276 249.855 208.284 249.663 208.291C249.45 208.298 249.166 208.298 248.803 208.312C248.028 208.319 246.913 208.333 245.491 208.347C242.599 208.362 238.448 208.383 233.324 208.404C223.033 208.418 208.84 208.44 193.176 208.461C177.498 208.44 163.312 208.418 153.021 208.404C147.897 208.383 143.746 208.362 140.854 208.347C139.432 208.333 138.324 208.319 137.542 208.312C137.18 208.305 136.895 208.298 136.682 208.291C136.49 208.284 136.391 208.276 136.391 208.269C136.391 208.262 136.49 208.255 136.682 208.248C136.895 208.241 137.18 208.241 137.542 208.227C138.317 208.22 139.432 208.206 140.854 208.191C143.746 208.177 147.897 208.156 153.021 208.135C163.312 208.12 177.505 208.099 193.176 208.078C208.847 208.099 223.033 208.12 233.324 208.135C238.448 208.163 242.599 208.177 245.491 208.191C246.913 208.206 248.021 208.22 248.803 208.227C249.166 208.234 249.45 208.241 249.663 208.248C249.855 208.262 249.954 208.262 249.954 208.269Z" fill="#263238"/>
<path d="M53.6009 55.6064C52.7764 55.4079 48.8036 54.4292 41.128 52.5499L41.2204 52.5357C38.477 54.2803 34.76 55.6916 30.4531 55.7554C28.3068 55.7483 26.0397 55.493 23.7796 54.7838C21.5196 54.0817 19.295 52.9187 17.2766 51.3443C13.2327 48.224 10.0843 43.2243 9.40911 37.473C9.06086 34.615 9.2954 31.6081 10.1838 28.7289C11.0935 25.8568 12.657 23.1407 14.7678 20.85C15.8339 19.6374 17.099 18.6374 18.3782 17.7084C19.0534 17.29 19.7144 16.8645 20.4109 16.4957L21.4698 15.9851L21.9957 15.7298L22.543 15.5313C25.4498 14.4037 28.5413 13.9711 31.5121 14.1697C34.4829 14.3611 37.3328 15.1909 39.8203 16.4957C42.3148 17.8006 44.4541 19.5735 46.1313 21.5805C47.8157 23.5945 49.0381 25.8426 49.8199 28.1119C50.5946 30.3884 50.9499 32.6719 50.9712 34.8349C50.9997 39.175 49.6351 42.8981 47.9792 45.6213V45.5079C51.4616 51.7486 53.2171 54.9044 53.6009 55.6064C53.2029 54.9186 51.3906 51.7982 47.7944 45.6213L47.7589 45.5646L47.7944 45.5079C49.4077 42.8059 50.7225 39.1183 50.6728 34.842C50.6443 32.7144 50.2819 30.4593 49.5072 28.2254C48.7325 25.9915 47.5243 23.786 45.8613 21.8145C44.2053 19.843 42.1016 18.1055 39.6497 16.8361C37.2049 15.5596 34.4118 14.7512 31.4908 14.5668C28.5769 14.3753 25.5422 14.8079 22.6993 15.9142L22.1592 16.1128L21.6404 16.361L20.6027 16.8645C19.9205 17.2262 19.2737 17.6446 18.6057 18.0559C17.3477 18.9636 16.1111 19.9494 15.0663 21.1337C12.9982 23.3747 11.4631 26.0412 10.5676 28.8566C9.69339 31.6791 9.45886 34.6221 9.8 37.4304C10.461 43.0754 13.5312 47.99 17.497 51.0678C19.4798 52.6208 21.6546 53.7697 23.8791 54.4718C26.1036 55.1739 28.3352 55.4362 30.446 55.4575C34.689 55.415 38.3633 54.0463 41.0924 52.3443L41.1351 52.3159L41.1848 52.3301C48.832 54.3441 52.7836 55.3866 53.6009 55.6064Z" fill="#263238"/>
<path d="M28.3996 25.7008L29.0606 36.0973C29.1174 36.9483 29.7926 37.622 30.6455 37.6716C31.541 37.7283 32.3298 37.0688 32.4293 36.1753L33.5878 25.7221C33.6731 24.9278 33.0477 24.2399 32.2517 24.2541L29.7073 24.2896C28.9469 24.3038 28.357 24.942 28.3996 25.7008Z" fill="#FFA826"/>
<path d="M33.4095 43.5224C32.9689 44.8556 31.5261 45.5719 30.1971 45.1322C28.861 44.6925 28.1432 43.2529 28.5838 41.9267C29.0244 40.5935 30.4672 39.8772 31.7962 40.3169C33.1323 40.7566 33.8501 42.1962 33.4095 43.5224Z" fill="#FFA826"/>
</g>
<defs>
<clipPath id="clip0_1250_10222">
<rect width="322" height="302" fill="white" transform="translate(0.660156 0.149414)"/>
</clipPath>
</defs>
</svg>
